<?xml version="1.0" encoding="UTF-8" standalone="no"?>
<!-- Created with matplotlib (http://matplotlib.org/) -->

<svg
   xmlns:dc="http://purl.org/dc/elements/1.1/"
   xmlns:cc="http://creativecommons.org/ns#"
   xmlns:rdf="http://www.w3.org/1999/02/22-rdf-syntax-ns#"
   xmlns:svg="http://www.w3.org/2000/svg"
   xmlns="http://www.w3.org/2000/svg"
   xmlns:xlink="http://www.w3.org/1999/xlink"
   xmlns:sodipodi="http://sodipodi.sourceforge.net/DTD/sodipodi-0.dtd"
   xmlns:inkscape="http://www.inkscape.org/namespaces/inkscape"
   height="345pt"
   version="1.1"
   viewBox="0 0 460 345"
   width="460pt"
   id="svg439"
   sodipodi:docname="accspe.svg"
   inkscape:version="0.92.3 (2405546, 2018-03-11)">
  <metadata
     id="metadata443">
    <rdf:RDF>
      <cc:Work
         rdf:about="">
        <dc:format>image/svg+xml</dc:format>
        <dc:type
           rdf:resource="http://purl.org/dc/dcmitype/StillImage" />
      </cc:Work>
    </rdf:RDF>
  </metadata>
  <sodipodi:namedview
     pagecolor="#ffffff"
     bordercolor="#666666"
     borderopacity="1"
     objecttolerance="10"
     gridtolerance="10"
     guidetolerance="10"
     inkscape:pageopacity="0"
     inkscape:pageshadow="2"
     inkscape:window-width="1366"
     inkscape:window-height="720"
     id="namedview441"
     showgrid="false"
     inkscape:zoom="0.51304348"
     inkscape:cx="306.66667"
     inkscape:cy="230"
     inkscape:window-x="0"
     inkscape:window-y="24"
     inkscape:window-maximized="1"
     inkscape:current-layer="svg439" />
  <defs
     id="defs4">
    <style
       type="text/css"
       id="style2">
*{stroke-linecap:butt;stroke-linejoin:round;}
  </style>
  </defs>
  <g
     id="figure_1">
    <g
       id="patch_1">
      <path
         d="M 0 345.6  L 460.8 345.6  L 460.8 0  L 0 0  z "
         style="fill:#ffffff;"
         id="path6" />
    </g>
    <g
       id="axes_1">
      <g
         id="patch_2">
        <path
           d="M 57.6 307.584  L 414.72 307.584  L 414.72 41.472  L 57.6 41.472  z "
           style="fill:#ffffff;"
           id="path9" />
      </g>
      <g
         id="matplotlib.axis_1">
        <g
           id="xtick_1">
          <g
             id="line2d_1">
            <defs
               id="defs13">
              <path
                 d="M 0 0  L 0 3.5  "
                 id="m2140420af2"
                 style="stroke:#000000;stroke-width:0.8;" />
            </defs>
            <g
               id="g17">
              <use
                 style="stroke:#000000;stroke-width:0.8;"
                 x="57.6"
                 xlink:href="#m2140420af2"
                 y="307.584"
                 id="use15" />
            </g>
          </g>
          <g
             id="text_1">
            <!-- 1020 -->
            <defs
               id="defs23">
              <path
                 d="M 12.40625 8.296875  L 28.515625 8.296875  L 28.515625 63.921875  L 10.984375 60.40625  L 10.984375 69.390625  L 28.421875 72.90625  L 38.28125 72.90625  L 38.28125 8.296875  L 54.390625 8.296875  L 54.390625 0  L 12.40625 0  z "
                 id="DejaVuSans-31" />
              <path
                 d="M 31.78125 66.40625  Q 24.171875 66.40625 20.328125 58.90625  Q 16.5 51.421875 16.5 36.375  Q 16.5 21.390625 20.328125 13.890625  Q 24.171875 6.390625 31.78125 6.390625  Q 39.453125 6.390625 43.28125 13.890625  Q 47.125 21.390625 47.125 36.375  Q 47.125 51.421875 43.28125 58.90625  Q 39.453125 66.40625 31.78125 66.40625  z M 31.78125 74.21875  Q 44.046875 74.21875 50.515625 64.515625  Q 56.984375 54.828125 56.984375 36.375  Q 56.984375 17.96875 50.515625 8.265625  Q 44.046875 -1.421875 31.78125 -1.421875  Q 19.53125 -1.421875 13.0625 8.265625  Q 6.59375 17.96875 6.59375 36.375  Q 6.59375 54.828125 13.0625 64.515625  Q 19.53125 74.21875 31.78125 74.21875  z "
                 id="DejaVuSans-30" />
              <path
                 d="M 19.1875 8.296875  L 53.609375 8.296875  L 53.609375 0  L 7.328125 0  L 7.328125 8.296875  Q 12.9375 14.109375 22.625 23.890625  Q 32.328125 33.6875 34.8125 36.53125  Q 39.546875 41.84375 41.421875 45.53125  Q 43.3125 49.21875 43.3125 52.78125  Q 43.3125 58.59375 39.234375 62.25  Q 35.15625 65.921875 28.609375 65.921875  Q 23.96875 65.921875 18.8125 64.3125  Q 13.671875 62.703125 7.8125 59.421875  L 7.8125 69.390625  Q 13.765625 71.78125 18.9375 73  Q 24.125 74.21875 28.421875 74.21875  Q 39.75 74.21875 46.484375 68.546875  Q 53.21875 62.890625 53.21875 53.421875  Q 53.21875 48.921875 51.53125 44.890625  Q 49.859375 40.875 45.40625 35.40625  Q 44.1875 33.984375 37.640625 27.21875  Q 31.109375 20.453125 19.1875 8.296875  z "
                 id="DejaVuSans-32" />
            </defs>
            <g
               transform="translate(44.875 322.182437)scale(0.1 -0.1)"
               id="g33">
              <use
                 xlink:href="#DejaVuSans-31"
                 id="use25" />
              <use
                 x="63.623047"
                 xlink:href="#DejaVuSans-30"
                 id="use27" />
              <use
                 x="127.246094"
                 xlink:href="#DejaVuSans-32"
                 id="use29" />
              <use
                 x="190.869141"
                 xlink:href="#DejaVuSans-30"
                 id="use31" />
            </g>
          </g>
        </g>
        <g
           id="xtick_2">
          <g
             id="line2d_2">
            <g
               id="g39">
              <use
                 style="stroke:#000000;stroke-width:0.8;"
                 x="105.216"
                 xlink:href="#m2140420af2"
                 y="307.584"
                 id="use37" />
            </g>
          </g>
          <g
             id="text_2">
            <!-- 1022 -->
            <g
               transform="translate(92.491 322.182437)scale(0.1 -0.1)"
               id="g50">
              <use
                 xlink:href="#DejaVuSans-31"
                 id="use42" />
              <use
                 x="63.623047"
                 xlink:href="#DejaVuSans-30"
                 id="use44" />
              <use
                 x="127.246094"
                 xlink:href="#DejaVuSans-32"
                 id="use46" />
              <use
                 x="190.869141"
                 xlink:href="#DejaVuSans-32"
                 id="use48" />
            </g>
          </g>
        </g>
        <g
           id="xtick_3">
          <g
             id="line2d_3">
            <g
               id="g56">
              <use
                 style="stroke:#000000;stroke-width:0.8;"
                 x="152.832"
                 xlink:href="#m2140420af2"
                 y="307.584"
                 id="use54" />
            </g>
          </g>
          <g
             id="text_3">
            <!-- 1024 -->
            <defs
               id="defs60">
              <path
                 d="M 37.796875 64.3125  L 12.890625 25.390625  L 37.796875 25.390625  z M 35.203125 72.90625  L 47.609375 72.90625  L 47.609375 25.390625  L 58.015625 25.390625  L 58.015625 17.1875  L 47.609375 17.1875  L 47.609375 0  L 37.796875 0  L 37.796875 17.1875  L 4.890625 17.1875  L 4.890625 26.703125  z "
                 id="DejaVuSans-34" />
            </defs>
            <g
               transform="translate(140.107 322.182437)scale(0.1 -0.1)"
               id="g70">
              <use
                 xlink:href="#DejaVuSans-31"
                 id="use62" />
              <use
                 x="63.623047"
                 xlink:href="#DejaVuSans-30"
                 id="use64" />
              <use
                 x="127.246094"
                 xlink:href="#DejaVuSans-32"
                 id="use66" />
              <use
                 x="190.869141"
                 xlink:href="#DejaVuSans-34"
                 id="use68" />
            </g>
          </g>
        </g>
        <g
           id="xtick_4">
          <g
             id="line2d_4">
            <g
               id="g76">
              <use
                 style="stroke:#000000;stroke-width:0.8;"
                 x="200.448"
                 xlink:href="#m2140420af2"
                 y="307.584"
                 id="use74" />
            </g>
          </g>
          <g
             id="text_4">
            <!-- 1026 -->
            <defs
               id="defs80">
              <path
                 d="M 33.015625 40.375  Q 26.375 40.375 22.484375 35.828125  Q 18.609375 31.296875 18.609375 23.390625  Q 18.609375 15.53125 22.484375 10.953125  Q 26.375 6.390625 33.015625 6.390625  Q 39.65625 6.390625 43.53125 10.953125  Q 47.40625 15.53125 47.40625 23.390625  Q 47.40625 31.296875 43.53125 35.828125  Q 39.65625 40.375 33.015625 40.375  z M 52.59375 71.296875  L 52.59375 62.3125  Q 48.875 64.0625 45.09375 64.984375  Q 41.3125 65.921875 37.59375 65.921875  Q 27.828125 65.921875 22.671875 59.328125  Q 17.53125 52.734375 16.796875 39.40625  Q 19.671875 43.65625 24.015625 45.921875  Q 28.375 48.1875 33.59375 48.1875  Q 44.578125 48.1875 50.953125 41.515625  Q 57.328125 34.859375 57.328125 23.390625  Q 57.328125 12.15625 50.6875 5.359375  Q 44.046875 -1.421875 33.015625 -1.421875  Q 20.359375 -1.421875 13.671875 8.265625  Q 6.984375 17.96875 6.984375 36.375  Q 6.984375 53.65625 15.1875 63.9375  Q 23.390625 74.21875 37.203125 74.21875  Q 40.921875 74.21875 44.703125 73.484375  Q 48.484375 72.75 52.59375 71.296875  z "
                 id="DejaVuSans-36" />
            </defs>
            <g
               transform="translate(187.723 322.182437)scale(0.1 -0.1)"
               id="g90">
              <use
                 xlink:href="#DejaVuSans-31"
                 id="use82" />
              <use
                 x="63.623047"
                 xlink:href="#DejaVuSans-30"
                 id="use84" />
              <use
                 x="127.246094"
                 xlink:href="#DejaVuSans-32"
                 id="use86" />
              <use
                 x="190.869141"
                 xlink:href="#DejaVuSans-36"
                 id="use88" />
            </g>
          </g>
        </g>
        <g
           id="xtick_5">
          <g
             id="line2d_5">
            <g
               id="g96">
              <use
                 style="stroke:#000000;stroke-width:0.8;"
                 x="248.064"
                 xlink:href="#m2140420af2"
                 y="307.584"
                 id="use94" />
            </g>
          </g>
          <g
             id="text_5">
            <!-- 1028 -->
            <defs
               id="defs100">
              <path
                 d="M 31.78125 34.625  Q 24.75 34.625 20.71875 30.859375  Q 16.703125 27.09375 16.703125 20.515625  Q 16.703125 13.921875 20.71875 10.15625  Q 24.75 6.390625 31.78125 6.390625  Q 38.8125 6.390625 42.859375 10.171875  Q 46.921875 13.96875 46.921875 20.515625  Q 46.921875 27.09375 42.890625 30.859375  Q 38.875 34.625 31.78125 34.625  z M 21.921875 38.8125  Q 15.578125 40.375 12.03125 44.71875  Q 8.5 49.078125 8.5 55.328125  Q 8.5 64.0625 14.71875 69.140625  Q 20.953125 74.21875 31.78125 74.21875  Q 42.671875 74.21875 48.875 69.140625  Q 55.078125 64.0625 55.078125 55.328125  Q 55.078125 49.078125 51.53125 44.71875  Q 48 40.375 41.703125 38.8125  Q 48.828125 37.15625 52.796875 32.3125  Q 56.78125 27.484375 56.78125 20.515625  Q 56.78125 9.90625 50.3125 4.234375  Q 43.84375 -1.421875 31.78125 -1.421875  Q 19.734375 -1.421875 13.25 4.234375  Q 6.78125 9.90625 6.78125 20.515625  Q 6.78125 27.484375 10.78125 32.3125  Q 14.796875 37.15625 21.921875 38.8125  z M 18.3125 54.390625  Q 18.3125 48.734375 21.84375 45.5625  Q 25.390625 42.390625 31.78125 42.390625  Q 38.140625 42.390625 41.71875 45.5625  Q 45.3125 48.734375 45.3125 54.390625  Q 45.3125 60.0625 41.71875 63.234375  Q 38.140625 66.40625 31.78125 66.40625  Q 25.390625 66.40625 21.84375 63.234375  Q 18.3125 60.0625 18.3125 54.390625  z "
                 id="DejaVuSans-38" />
            </defs>
            <g
               transform="translate(235.339 322.182437)scale(0.1 -0.1)"
               id="g110">
              <use
                 xlink:href="#DejaVuSans-31"
                 id="use102" />
              <use
                 x="63.623047"
                 xlink:href="#DejaVuSans-30"
                 id="use104" />
              <use
                 x="127.246094"
                 xlink:href="#DejaVuSans-32"
                 id="use106" />
              <use
                 x="190.869141"
                 xlink:href="#DejaVuSans-38"
                 id="use108" />
            </g>
          </g>
        </g>
        <g
           id="xtick_6">
          <g
             id="line2d_6">
            <g
               id="g116">
              <use
                 style="stroke:#000000;stroke-width:0.8;"
                 x="295.68"
                 xlink:href="#m2140420af2"
                 y="307.584"
                 id="use114" />
            </g>
          </g>
          <g
             id="text_6">
            <!-- 1030 -->
            <defs
               id="defs120">
              <path
                 d="M 40.578125 39.3125  Q 47.65625 37.796875 51.625 33  Q 55.609375 28.21875 55.609375 21.1875  Q 55.609375 10.40625 48.1875 4.484375  Q 40.765625 -1.421875 27.09375 -1.421875  Q 22.515625 -1.421875 17.65625 -0.515625  Q 12.796875 0.390625 7.625 2.203125  L 7.625 11.71875  Q 11.71875 9.328125 16.59375 8.109375  Q 21.484375 6.890625 26.8125 6.890625  Q 36.078125 6.890625 40.9375 10.546875  Q 45.796875 14.203125 45.796875 21.1875  Q 45.796875 27.640625 41.28125 31.265625  Q 36.765625 34.90625 28.71875 34.90625  L 20.21875 34.90625  L 20.21875 43.015625  L 29.109375 43.015625  Q 36.375 43.015625 40.234375 45.921875  Q 44.09375 48.828125 44.09375 54.296875  Q 44.09375 59.90625 40.109375 62.90625  Q 36.140625 65.921875 28.71875 65.921875  Q 24.65625 65.921875 20.015625 65.03125  Q 15.375 64.15625 9.8125 62.3125  L 9.8125 71.09375  Q 15.4375 72.65625 20.34375 73.4375  Q 25.25 74.21875 29.59375 74.21875  Q 40.828125 74.21875 47.359375 69.109375  Q 53.90625 64.015625 53.90625 55.328125  Q 53.90625 49.265625 50.4375 45.09375  Q 46.96875 40.921875 40.578125 39.3125  z "
                 id="DejaVuSans-33" />
            </defs>
            <g
               transform="translate(282.955 322.182437)scale(0.1 -0.1)"
               id="g130">
              <use
                 xlink:href="#DejaVuSans-31"
                 id="use122" />
              <use
                 x="63.623047"
                 xlink:href="#DejaVuSans-30"
                 id="use124" />
              <use
                 x="127.246094"
                 xlink:href="#DejaVuSans-33"
                 id="use126" />
              <use
                 x="190.869141"
                 xlink:href="#DejaVuSans-30"
                 id="use128" />
            </g>
          </g>
        </g>
        <g
           id="xtick_7">
          <g
             id="line2d_7">
            <g
               id="g136">
              <use
                 style="stroke:#000000;stroke-width:0.8;"
                 x="343.296"
                 xlink:href="#m2140420af2"
                 y="307.584"
                 id="use134" />
            </g>
          </g>
          <g
             id="text_7">
            <!-- 1032 -->
            <g
               transform="translate(330.571 322.182437)scale(0.1 -0.1)"
               id="g147">
              <use
                 xlink:href="#DejaVuSans-31"
                 id="use139" />
              <use
                 x="63.623047"
                 xlink:href="#DejaVuSans-30"
                 id="use141" />
              <use
                 x="127.246094"
                 xlink:href="#DejaVuSans-33"
                 id="use143" />
              <use
                 x="190.869141"
                 xlink:href="#DejaVuSans-32"
                 id="use145" />
            </g>
          </g>
        </g>
        <g
           id="xtick_8">
          <g
             id="line2d_8">
            <g
               id="g153">
              <use
                 style="stroke:#000000;stroke-width:0.8;"
                 x="390.912"
                 xlink:href="#m2140420af2"
                 y="307.584"
                 id="use151" />
            </g>
          </g>
          <g
             id="text_8">
            <!-- 1034 -->
            <g
               transform="translate(378.187 322.182437)scale(0.1 -0.1)"
               id="g164">
              <use
                 xlink:href="#DejaVuSans-31"
                 id="use156" />
              <use
                 x="63.623047"
                 xlink:href="#DejaVuSans-30"
                 id="use158" />
              <use
                 x="127.246094"
                 xlink:href="#DejaVuSans-33"
                 id="use160" />
              <use
                 x="190.869141"
                 xlink:href="#DejaVuSans-34"
                 id="use162" />
            </g>
          </g>
        </g>
      </g>
      <g
         id="matplotlib.axis_2">
        <g
           id="ytick_1">
          <g
             id="line2d_9">
            <defs
               id="defs170">
              <path
                 d="M 0 0  L -3.5 0  "
                 id="m52965d34ad"
                 style="stroke:#000000;stroke-width:0.8;" />
            </defs>
            <g
               id="g174">
              <use
                 style="stroke:#000000;stroke-width:0.8;"
                 x="57.6"
                 xlink:href="#m52965d34ad"
                 y="292.099612"
                 id="use172" />
            </g>
          </g>
          <g
             id="text_9">
            <!-- 0.0 -->
            <defs
               id="defs178">
              <path
                 d="M 10.6875 12.40625  L 21 12.40625  L 21 0  L 10.6875 0  z "
                 id="DejaVuSans-2e" />
            </defs>
            <g
               transform="translate(34.696875 295.89883)scale(0.1 -0.1)"
               id="g186">
              <use
                 xlink:href="#DejaVuSans-30"
                 id="use180" />
              <use
                 x="63.623047"
                 xlink:href="#DejaVuSans-2e"
                 id="use182" />
              <use
                 x="95.410156"
                 xlink:href="#DejaVuSans-30"
                 id="use184" />
            </g>
          </g>
        </g>
        <g
           id="ytick_2">
          <g
             id="line2d_10">
            <g
               id="g192">
              <use
                 style="stroke:#000000;stroke-width:0.8;"
                 x="57.6"
                 xlink:href="#m52965d34ad"
                 y="244.393289"
                 id="use190" />
            </g>
          </g>
          <g
             id="text_10">
            <!-- 0.2 -->
            <g
               transform="translate(34.696875 248.192508)scale(0.1 -0.1)"
               id="g201">
              <use
                 xlink:href="#DejaVuSans-30"
                 id="use195" />
              <use
                 x="63.623047"
                 xlink:href="#DejaVuSans-2e"
                 id="use197" />
              <use
                 x="95.410156"
                 xlink:href="#DejaVuSans-32"
                 id="use199" />
            </g>
          </g>
        </g>
        <g
           id="ytick_3">
          <g
             id="line2d_11">
            <g
               id="g207">
              <use
                 style="stroke:#000000;stroke-width:0.8;"
                 x="57.6"
                 xlink:href="#m52965d34ad"
                 y="196.686967"
                 id="use205" />
            </g>
          </g>
          <g
             id="text_11">
            <!-- 0.4 -->
            <g
               transform="translate(34.696875 200.486186)scale(0.1 -0.1)"
               id="g216">
              <use
                 xlink:href="#DejaVuSans-30"
                 id="use210" />
              <use
                 x="63.623047"
                 xlink:href="#DejaVuSans-2e"
                 id="use212" />
              <use
                 x="95.410156"
                 xlink:href="#DejaVuSans-34"
                 id="use214" />
            </g>
          </g>
        </g>
        <g
           id="ytick_4">
          <g
             id="line2d_12">
            <g
               id="g222">
              <use
                 style="stroke:#000000;stroke-width:0.8;"
                 x="57.6"
                 xlink:href="#m52965d34ad"
                 y="148.980645"
                 id="use220" />
            </g>
          </g>
          <g
             id="text_12">
            <!-- 0.6 -->
            <g
               transform="translate(34.696875 152.779863)scale(0.1 -0.1)"
               id="g231">
              <use
                 xlink:href="#DejaVuSans-30"
                 id="use225" />
              <use
                 x="63.623047"
                 xlink:href="#DejaVuSans-2e"
                 id="use227" />
              <use
                 x="95.410156"
                 xlink:href="#DejaVuSans-36"
                 id="use229" />
            </g>
          </g>
        </g>
        <g
           id="ytick_5">
          <g
             id="line2d_13">
            <g
               id="g237">
              <use
                 style="stroke:#000000;stroke-width:0.8;"
                 x="57.6"
                 xlink:href="#m52965d34ad"
                 y="101.274322"
                 id="use235" />
            </g>
          </g>
          <g
             id="text_13">
            <!-- 0.8 -->
            <g
               transform="translate(34.696875 105.073541)scale(0.1 -0.1)"
               id="g246">
              <use
                 xlink:href="#DejaVuSans-30"
                 id="use240" />
              <use
                 x="63.623047"
                 xlink:href="#DejaVuSans-2e"
                 id="use242" />
              <use
                 x="95.410156"
                 xlink:href="#DejaVuSans-38"
                 id="use244" />
            </g>
          </g>
        </g>
        <g
           id="ytick_6">
          <g
             id="line2d_14">
            <g
               id="g252">
              <use
                 style="stroke:#000000;stroke-width:0.8;"
                 x="57.6"
                 xlink:href="#m52965d34ad"
                 y="53.568"
                 id="use250" />
            </g>
          </g>
          <g
             id="text_14">
            <!-- 1.0 -->
            <g
               transform="translate(34.696875 57.367219)scale(0.1 -0.1)"
               id="g261">
              <use
                 xlink:href="#DejaVuSans-31"
                 id="use255" />
              <use
                 x="63.623047"
                 xlink:href="#DejaVuSans-2e"
                 id="use257" />
              <use
                 x="95.410156"
                 xlink:href="#DejaVuSans-30"
                 id="use259" />
            </g>
          </g>
        </g>
      </g>
      <g
         id="line2d_15">
        <path
           clip-path="url(#p43f5e1b64a)"
           d="M -1 291.518646  L 0.495084 291.601359  L 6.24512 291.56521  L 11.995133 291.825482  L 17.745146 290.480743  L 23.495159 292.331567  L 29.246624 292.309878  L 34.996637 291.521832  L 40.748102 292.179742  L 46.498115 289.548101  L 52.249604 290.285539  L 58.00107 290.798853  L 63.752535 289.721616  L 69.504 288.767285  L 75.255465 289.663777  L 81.008383 288.56485  L 86.759848 286.171793  L 92.512789 281.660408  L 98.265707 268.957681  L 104.018624 237.992522  L 109.771542 189.017974  L 115.524459 136.536984  L 121.277401 100.012123  L 127.030318 84.844053  L 132.784688 74.397011  L 138.537605 71.866577  L 144.291975 72.958287  L 150.046369 66.841878  L 155.799286 66.205674  L 161.553656 59.633797  L 167.308026 60.277251  L 173.062396 56.062283  L 178.819694 53.698144  L 184.574064 53.568  L 190.328433 63.617397  L 196.085708 87.519054  L 201.840101 126.58157  L 207.594471 164.321037  L 213.351746 189.777102  L 219.106115 207.82987  L 224.863414 220.127731  L 230.620688 231.688155  L 236.377962 243.031681  L 242.132332 251.613433  L 247.88963 258.488956  L 253.646905 262.646082  L 259.404179 269.64451  L 265.161477 274.069137  L 270.918751 277.416526  L 276.676026 279.93972  L 282.436229 283.453394  L 288.193503 285.159623  L 293.950777 287.429775  L 299.71098 289.345667  L 305.468254 289.685467  L 311.228433 290.835002  L 316.985708 290.112024  L 322.745911 288.767285  L 328.503185 288.225051  L 334.263364 290.502432  L 340.023567 289.960199  L 345.783746 290.415675  L 351.543948 290.155403  L 357.304127 291.348317  L 363.064306 291.717036  L 368.824509 291.623049  L 374.584688 292.353257  L 380.344867 292.056835  L 386.10507 292.599069  L 391.868153 292.707516  L 397.628332 290.090335  L 403.388535 290.545811  L 409.151618 292.042376  L 414.911821 291.998997  L 420.674905 292.324337  L 426.438012 291.377236  L 432.198191 291.500142  L 437.961274 291.333857  L 443.724382 292.374946  L 449.487465 290.408445  L 455.250573 292.432784  L 461.013656 291.341087  L 461.8 291.308534  "
           style="fill:none;stroke:#1f77b4;stroke-linecap:square;"
           id="path266" />
      </g>
      <g
         id="line2d_16">
        <path
           clip-path="url(#p43f5e1b64a)"
           d="M -1 290.604222  L 0.495084 290.56158  L 6.24512 291.167121  L 11.995133 291.28066  L 17.745146 290.460656  L 23.495159 291.835739  L 29.246624 291.356352  L 34.996637 290.763427  L 40.748102 292.706204  L 46.498115 287.660029  L 52.249604 289.880346  L 58.00107 288.606187  L 63.752535 288.580956  L 69.504 286.701256  L 75.255465 289.072958  L 81.008383 288.858496  L 86.759848 289.325267  L 92.512789 285.654175  L 98.265707 279.813228  L 104.018624 261.054074  L 109.771542 234.271503  L 115.524459 197.686736  L 121.277401 165.719223  L 127.030318 130.938468  L 132.784688 101.481422  L 138.537605 78.294246  L 144.291975 71.052996  L 150.046369 61.932035  L 155.799286 61.969866  L 161.553656 55.586471  L 167.308026 53.568  L 173.062396 59.484636  L 178.819694 69.740975  L 184.574064 83.794581  L 190.328433 100.346026  L 196.085708 122.284282  L 201.840101 156.711805  L 207.594471 183.052831  L 213.351746 200.020594  L 219.106115 217.202821  L 224.863414 226.48778  L 230.620688 238.522906  L 236.377962 247.366326  L 242.132332 254.430968  L 247.88963 260.864843  L 253.646905 262.101154  L 259.404179 270.111958  L 265.161477 274.590437  L 270.918751 275.877212  L 276.676026 276.419675  L 282.436229 281.175696  L 288.193503 284.241246  L 293.950777 286.196639  L 299.71098 288.177262  L 305.468254 287.899723  L 311.228433 290.044347  L 316.985708 288.833265  L 322.745911 286.52464  L 328.503185 285.994792  L 334.263364 290.485887  L 340.023567 288.719726  L 345.783746 291.116659  L 351.543948 290.12004  L 357.304127 292.125894  L 363.064306 291.457276  L 368.824509 291.406814  L 374.584688 291.999739  L 380.344867 292.529588  L 386.10507 293.778516  L 391.868153 291.873585  L 397.628332 289.060343  L 403.388535 287.887107  L 409.151618 290.750811  L 414.911821 291.747431  L 420.674905 292.037586  L 426.438012 289.514499  L 432.198191 289.741576  L 437.961274 290.776042  L 443.724382 289.577576  L 449.487465 287.029258  L 455.250573 291.621276  L 461.013656 290.309271  L 461.8 290.345419  "
           style="fill:none;stroke:#ff7f0e;stroke-linecap:square;"
           id="path269" />
      </g>
      <g
         id="line2d_17">
        <path
           clip-path="url(#p43f5e1b64a)"
           d="M -1 289.952031  L 0.495084 290.27001  L 6.24512 288.744942  L 11.995133 290.370722  L 17.745146 288.039958  L 23.495159 291.349067  L 29.246624 290.471434  L 34.996637 290.874282  L 40.748102 291.823853  L 46.498115 288.960754  L 52.249604 291.550491  L 58.00107 292.298638  L 63.752535 291.867015  L 69.504 287.69466  L 75.255465 290.457047  L 81.008383 290.298785  L 86.759848 289.65135  L 92.512789 284.457488  L 98.265707 278.688128  L 104.018624 262.617368  L 109.771542 238.878105  L 115.524459 202.046285  L 121.277401 169.401199  L 127.030318 139.489733  L 132.784688 104.370015  L 138.537605 80.012097  L 144.291975 59.740206  L 150.046369 53.568  L 155.799286 58.646747  L 161.553656 57.020979  L 167.308026 55.48152  L 173.062396 57.423823  L 178.819694 73.883046  L 184.574064 86.802961  L 190.328433 103.233401  L 196.085708 125.908004  L 201.840101 155.330288  L 207.594471 182.09091  L 213.351746 200.26224  L 219.106115 212.491555  L 224.863414 219.29681  L 230.620688 233.58353  L 236.377962 242.964137  L 242.132332 251.049873  L 247.88963 254.64673  L 253.646905 259.437745  L 259.404179 265.00568  L 265.161477 269.062936  L 270.918751 273.01948  L 276.676026 275.26392  L 282.436229 279.724023  L 288.193503 281.479289  L 293.950777 285.522158  L 299.71098 288.543518  L 305.468254 289.478701  L 311.228433 292.39935  L 316.985708 291.003769  L 322.745911 288.64423  L 328.503185 287.709047  L 334.263364 290.744795  L 340.023567 290.169298  L 345.783746 291.018156  L 351.543948 289.723288  L 357.304127 291.190806  L 363.064306 292.485674  L 368.824509 290.313172  L 374.584688 291.075706  L 380.344867 291.996502  L 386.10507 291.636816  L 391.868153 291.003769  L 397.628332 286.917739  L 403.388535 286.169592  L 409.151618 291.536104  L 414.911821 290.787958  L 420.674905 291.967727  L 426.438012 288.730555  L 432.198191 290.787958  L 437.961274 291.636816  L 443.724382 292.974847  L 449.487465 290.71602  L 455.250573 294.039517  L 461.013656 293.622281  L 461.8 293.594798  "
           style="fill:none;stroke:#2ca02c;stroke-linecap:square;"
           id="path272" />
      </g>
      <g
         id="line2d_18">
        <path
           clip-path="url(#p43f5e1b64a)"
           d="M -1 290.085361  L 0.495084 290.160184  L 6.24512 291.28727  L 11.995133 291.371202  L 17.745146 290.747708  L 23.495159 292.102609  L 29.246624 291.599018  L 34.996637 292.330425  L 40.748102 293.43353  L 46.498115 288.901205  L 52.249604 289.908388  L 58.00107 289.944359  L 63.752535 288.973146  L 69.504 286.98276  L 75.255465 288.517516  L 81.008383 288.505525  L 86.759848 285.831693  L 92.512789 281.071552  L 98.265707 272.3786  L 104.018624 250.388427  L 109.771542 218.494286  L 115.524459 174.957579  L 121.277401 142.715722  L 127.030318 117.440219  L 132.784688 105.306051  L 138.537605 93.50761  L 144.291975 79.790741  L 150.046369 70.258463  L 155.799286 68.220115  L 161.553656 64.647018  L 167.308026 56.61353  L 173.062396 53.568  L 178.819694 60.977986  L 184.574064 74.107344  L 190.328433 85.857817  L 196.085708 108.723284  L 201.840101 143.69892  L 207.594471 173.159038  L 213.351746 193.878238  L 219.106115 209.333711  L 224.863414 217.31924  L 230.620688 230.256751  L 236.377962 241.119941  L 242.132332 246.851294  L 247.88963 254.561043  L 253.646905 257.558613  L 259.404179 265.568122  L 265.161477 270.352242  L 270.918751 272.270686  L 276.676026 275.160345  L 282.436229 280.939659  L 288.193503 282.486405  L 293.950777 286.718974  L 299.71098 289.860427  L 305.468254 288.937176  L 311.228433 290.459941  L 316.985708 290.85562  L 322.745911 287.714167  L 328.503185 288.121836  L 334.263364 289.764505  L 340.023567 288.733341  L 345.783746 289.668583  L 351.543948 288.313681  L 357.304127 290.84363  L 363.064306 289.776495  L 368.824509 288.733341  L 374.584688 290.244116  L 380.344867 289.428777  L 386.10507 289.033098  L 391.868153 289.788485  L 397.628332 288.097856  L 403.388535 287.390429  L 409.151618 291.634988  L 414.911821 292.282463  L 420.674905 293.277657  L 426.438012 291.083436  L 432.198191 292.1146  L 437.961274 292.522269  L 443.724382 292.438337  L 449.487465 289.848437  L 455.250573 292.953919  L 461.013656 291.203338  L 461.8 291.226242  "
           style="fill:none;stroke:#d62728;stroke-linecap:square;"
           id="path275" />
      </g>
      <g
         id="line2d_19">
        <path
           clip-path="url(#p43f5e1b64a)"
           d="M -1 291.331865  L 0.495084 291.400073  L 6.24512 291.771703  L 11.995133 291.203328  L 17.745146 290.361696  L 23.495159 291.061235  L 29.246624 291.596819  L 34.996637 290.798908  L 40.748102 292.066821  L 46.498115 288.448897  L 52.249604 289.7496  L 58.00107 289.170295  L 63.752535 289.804252  L 69.504 286.995169  L 75.255465 287.880522  L 81.008383 288.011685  L 86.759848 287.574474  L 92.512789 283.235151  L 98.265707 274.578366  L 104.018624 252.08384  L 109.771542 218.954144  L 115.524459 179.725356  L 121.277401 149.065905  L 127.030318 127.270915  L 132.784688 116.275054  L 138.537605 107.388734  L 144.291975 96.196114  L 150.046369 86.07467  L 155.799286 78.784168  L 161.553656 66.269003  L 167.308026 57.229656  L 173.062396 53.568  L 178.819694 60.377575  L 184.574064 69.71204  L 190.328433 89.473989  L 196.085708 111.345493  L 201.840101 147.338918  L 207.594471 179.452097  L 213.351746 199.465446  L 219.106115 216.483902  L 224.863414 225.249991  L 230.620688 237.306093  L 236.377962 247.646141  L 242.132332 252.466397  L 247.88963 258.401543  L 253.646905 261.472952  L 259.404179 267.582982  L 265.161477 273.233939  L 270.918751 274.414411  L 276.676026 275.911859  L 282.436229 281.934446  L 288.193503 283.147708  L 293.950777 286.437724  L 299.71098 288.918899  L 305.468254 287.957034  L 311.228433 290.50379  L 316.985708 289.126574  L 322.745911 288.131918  L 328.503185 286.011443  L 334.263364 288.678432  L 340.023567 288.361454  L 345.783746 290.394487  L 351.543948 290.50379  L 357.304127 291.378213  L 363.064306 291.25798  L 368.824509 291.421934  L 374.584688 292.536823  L 380.344867 292.012169  L 386.10507 292.482172  L 391.868153 293.214501  L 397.628332 289.530995  L 403.388535 288.59099  L 409.151618 292.361939  L 414.911821 291.214259  L 420.674905 291.028444  L 426.438012 290.536581  L 432.198191 291.061235  L 437.961274 290.87542  L 443.724382 290.820768  L 449.487465 289.705879  L 455.250573 292.03403  L 461.013656 290.919141  L 461.8 290.978796  "
           style="fill:none;stroke:#9467bd;stroke-linecap:square;"
           id="path278" />
      </g>
      <g
         id="line2d_20">
        <path
           clip-path="url(#p43f5e1b64a)"
           d="M -1 289.244045  L 0.495084 289.321609  L 6.24512 290.693831  L 11.995133 289.754157  L 17.745146 288.486344  L 23.495159 289.724326  L 29.246624 289.51551  L 34.996637 289.67958  L 40.748102 291.394857  L 46.498115 287.472093  L 52.249604 290.141959  L 58.00107 290.842985  L 63.752535 290.261282  L 69.504 288.441598  L 75.255465 289.962973  L 81.008383 290.962309  L 86.759848 288.710076  L 92.512789 284.638158  L 98.265707 278.120106  L 104.018624 262.488714  L 109.771542 239.95147  L 115.524459 203.796418  L 121.277401 172.861779  L 127.030318 136.512828  L 132.784688 110.172135  L 138.537605 83.637545  L 144.291975 65.57494  L 150.046369 55.999229  L 155.799286 53.568  L 161.553656 56.476527  L 167.308026 58.997238  L 173.062396 58.549774  L 178.819694 72.197403  L 184.574064 92.735977  L 190.328433 106.204625  L 196.085708 126.638791  L 201.840101 159.333464  L 207.594471 183.347334  L 213.351746 200.649261  L 219.106115 216.280651  L 224.863414 221.739703  L 230.620688 230.83813  L 236.377962 240.920972  L 242.132332 248.691924  L 247.88963 255.150312  L 253.646905 259.386301  L 259.404179 265.725366  L 265.161477 270.692211  L 270.918751 271.437984  L 276.676026 273.854288  L 282.436229 278.686894  L 288.193503 280.954042  L 293.950777 285.562916  L 299.71098 288.710076  L 305.468254 289.172455  L 311.228433 291.379941  L 316.985708 291.767743  L 322.745911 288.85923  L 328.503185 288.20295  L 334.263364 289.694495  L 340.023567 290.00772  L 345.783746 291.469434  L 351.543948 290.455183  L 357.304127 292.036221  L 363.064306 291.84232  L 368.824509 290.49993  L 374.584688 291.484349  L 380.344867 289.84365  L 386.10507 290.112128  L 391.868153 290.634169  L 397.628332 286.025295  L 403.388535 284.563581  L 409.151618 290.201621  L 414.911821 290.186705  L 420.674905 289.530425  L 426.438012 288.023965  L 432.198191 289.217201  L 437.961274 291.603673  L 443.724382 292.080967  L 449.487465 290.574507  L 455.250573 294.974565  L 461.013656 293.363696  L 461.8 293.20292  "
           style="fill:none;stroke:#8c564b;stroke-linecap:square;"
           id="path281" />
      </g>
      <g
         id="patch_3">
        <path
           d="M 57.6 307.584  L 57.6 41.472  "
           style="fill:none;stroke:#000000;stroke-linecap:square;stroke-linejoin:miter;stroke-width:0.8;"
           id="path284" />
      </g>
      <g
         id="patch_4">
        <path
           d="M 414.72 307.584  L 414.72 41.472  "
           style="fill:none;stroke:#000000;stroke-linecap:square;stroke-linejoin:miter;stroke-width:0.8;"
           id="path287" />
      </g>
      <g
         id="patch_5">
        <path
           d="M 57.6 307.584  L 414.72 307.584  "
           style="fill:none;stroke:#000000;stroke-linecap:square;stroke-linejoin:miter;stroke-width:0.8;"
           id="path290" />
      </g>
      <g
         id="patch_6">
        <path
           d="M 57.6 41.472  L 414.72 41.472  "
           style="fill:none;stroke:#000000;stroke-linecap:square;stroke-linejoin:miter;stroke-width:0.8;"
           id="path293" />
      </g>
      <g
         id="legend_1">
        <g
           id="patch_7">
          <path
             d="M 335.568438 137.54075  L 407.72 137.54075  Q 409.72 137.54075 409.72 135.54075  L 409.72 48.472  Q 409.72 46.472 407.72 46.472  L 335.568438 46.472  Q 333.568438 46.472 333.568438 48.472  L 333.568438 135.54075  Q 333.568438 137.54075 335.568438 137.54075  z "
             style="fill:#ffffff;opacity:0.8;stroke:#cccccc;stroke-linejoin:miter;"
             id="path296" />
        </g>
        <g
           id="line2d_21">
          <path
             d="M 337.568438 54.570438  L 357.568438 54.570438  "
             style="fill:none;stroke:#1f77b4;stroke-linecap:square;"
             id="path299" />
        </g>
        <g
           id="line2d_22" />
        <g
           id="text_15">
          <!-- incident -->
          <defs
             id="defs309">
            <path
               d="M 9.421875 54.6875  L 18.40625 54.6875  L 18.40625 0  L 9.421875 0  z M 9.421875 75.984375  L 18.40625 75.984375  L 18.40625 64.59375  L 9.421875 64.59375  z "
               id="DejaVuSans-69" />
            <path
               d="M 54.890625 33.015625  L 54.890625 0  L 45.90625 0  L 45.90625 32.71875  Q 45.90625 40.484375 42.875 44.328125  Q 39.84375 48.1875 33.796875 48.1875  Q 26.515625 48.1875 22.3125 43.546875  Q 18.109375 38.921875 18.109375 30.90625  L 18.109375 0  L 9.078125 0  L 9.078125 54.6875  L 18.109375 54.6875  L 18.109375 46.1875  Q 21.34375 51.125 25.703125 53.5625  Q 30.078125 56 35.796875 56  Q 45.21875 56 50.046875 50.171875  Q 54.890625 44.34375 54.890625 33.015625  z "
               id="DejaVuSans-6e" />
            <path
               d="M 48.78125 52.59375  L 48.78125 44.1875  Q 44.96875 46.296875 41.140625 47.34375  Q 37.3125 48.390625 33.40625 48.390625  Q 24.65625 48.390625 19.8125 42.84375  Q 14.984375 37.3125 14.984375 27.296875  Q 14.984375 17.28125 19.8125 11.734375  Q 24.65625 6.203125 33.40625 6.203125  Q 37.3125 6.203125 41.140625 7.25  Q 44.96875 8.296875 48.78125 10.40625  L 48.78125 2.09375  Q 45.015625 0.34375 40.984375 -0.53125  Q 36.96875 -1.421875 32.421875 -1.421875  Q 20.0625 -1.421875 12.78125 6.34375  Q 5.515625 14.109375 5.515625 27.296875  Q 5.515625 40.671875 12.859375 48.328125  Q 20.21875 56 33.015625 56  Q 37.15625 56 41.109375 55.140625  Q 45.0625 54.296875 48.78125 52.59375  z "
               id="DejaVuSans-63" />
            <path
               d="M 45.40625 46.390625  L 45.40625 75.984375  L 54.390625 75.984375  L 54.390625 0  L 45.40625 0  L 45.40625 8.203125  Q 42.578125 3.328125 38.25 0.953125  Q 33.9375 -1.421875 27.875 -1.421875  Q 17.96875 -1.421875 11.734375 6.484375  Q 5.515625 14.40625 5.515625 27.296875  Q 5.515625 40.1875 11.734375 48.09375  Q 17.96875 56 27.875 56  Q 33.9375 56 38.25 53.625  Q 42.578125 51.265625 45.40625 46.390625  z M 14.796875 27.296875  Q 14.796875 17.390625 18.875 11.75  Q 22.953125 6.109375 30.078125 6.109375  Q 37.203125 6.109375 41.296875 11.75  Q 45.40625 17.390625 45.40625 27.296875  Q 45.40625 37.203125 41.296875 42.84375  Q 37.203125 48.484375 30.078125 48.484375  Q 22.953125 48.484375 18.875 42.84375  Q 14.796875 37.203125 14.796875 27.296875  z "
               id="DejaVuSans-64" />
            <path
               d="M 56.203125 29.59375  L 56.203125 25.203125  L 14.890625 25.203125  Q 15.484375 15.921875 20.484375 11.0625  Q 25.484375 6.203125 34.421875 6.203125  Q 39.59375 6.203125 44.453125 7.46875  Q 49.3125 8.734375 54.109375 11.28125  L 54.109375 2.78125  Q 49.265625 0.734375 44.1875 -0.34375  Q 39.109375 -1.421875 33.890625 -1.421875  Q 20.796875 -1.421875 13.15625 6.1875  Q 5.515625 13.8125 5.515625 26.8125  Q 5.515625 40.234375 12.765625 48.109375  Q 20.015625 56 32.328125 56  Q 43.359375 56 49.78125 48.890625  Q 56.203125 41.796875 56.203125 29.59375  z M 47.21875 32.234375  Q 47.125 39.59375 43.09375 43.984375  Q 39.0625 48.390625 32.421875 48.390625  Q 24.90625 48.390625 20.390625 44.140625  Q 15.875 39.890625 15.1875 32.171875  z "
               id="DejaVuSans-65" />
            <path
               d="M 18.3125 70.21875  L 18.3125 54.6875  L 36.8125 54.6875  L 36.8125 47.703125  L 18.3125 47.703125  L 18.3125 18.015625  Q 18.3125 11.328125 20.140625 9.421875  Q 21.96875 7.515625 27.59375 7.515625  L 36.8125 7.515625  L 36.8125 0  L 27.59375 0  Q 17.1875 0 13.234375 3.875  Q 9.28125 7.765625 9.28125 18.015625  L 9.28125 47.703125  L 2.6875 47.703125  L 2.6875 54.6875  L 9.28125 54.6875  L 9.28125 70.21875  z "
               id="DejaVuSans-74" />
          </defs>
          <g
             transform="translate(365.568438 58.070438)scale(0.1 -0.1)"
             id="g327">
            <use
               xlink:href="#DejaVuSans-69"
               id="use311" />
            <use
               x="27.783203"
               xlink:href="#DejaVuSans-6e"
               id="use313" />
            <use
               x="91.162109"
               xlink:href="#DejaVuSans-63"
               id="use315" />
            <use
               x="146.142578"
               xlink:href="#DejaVuSans-69"
               id="use317" />
            <use
               x="173.925781"
               xlink:href="#DejaVuSans-64"
               id="use319" />
            <use
               x="237.402344"
               xlink:href="#DejaVuSans-65"
               id="use321" />
            <use
               x="298.925781"
               xlink:href="#DejaVuSans-6e"
               id="use323" />
            <use
               x="362.304688"
               xlink:href="#DejaVuSans-74"
               id="use325" />
          </g>
        </g>
        <g
           id="line2d_23">
          <path
             d="M 337.568438 69.248563  L 357.568438 69.248563  "
             style="fill:none;stroke:#ff7f0e;stroke-linecap:square;"
             id="path330" />
        </g>
        <g
           id="line2d_24" />
        <g
           id="text_16">
          <!-- 505 mA -->
          <defs
             id="defs338">
            <path
               d="M 10.796875 72.90625  L 49.515625 72.90625  L 49.515625 64.59375  L 19.828125 64.59375  L 19.828125 46.734375  Q 21.96875 47.46875 24.109375 47.828125  Q 26.265625 48.1875 28.421875 48.1875  Q 40.625 48.1875 47.75 41.5  Q 54.890625 34.8125 54.890625 23.390625  Q 54.890625 11.625 47.5625 5.09375  Q 40.234375 -1.421875 26.90625 -1.421875  Q 22.3125 -1.421875 17.546875 -0.640625  Q 12.796875 0.140625 7.71875 1.703125  L 7.71875 11.625  Q 12.109375 9.234375 16.796875 8.0625  Q 21.484375 6.890625 26.703125 6.890625  Q 35.15625 6.890625 40.078125 11.328125  Q 45.015625 15.765625 45.015625 23.390625  Q 45.015625 31 40.078125 35.4375  Q 35.15625 39.890625 26.703125 39.890625  Q 22.75 39.890625 18.8125 39.015625  Q 14.890625 38.140625 10.796875 36.28125  z "
               id="DejaVuSans-35" />
            <path
               id="DejaVuSans-20" />
            <path
               d="M 52 44.1875  Q 55.375 50.25 60.0625 53.125  Q 64.75 56 71.09375 56  Q 79.640625 56 84.28125 50.015625  Q 88.921875 44.046875 88.921875 33.015625  L 88.921875 0  L 79.890625 0  L 79.890625 32.71875  Q 79.890625 40.578125 77.09375 44.375  Q 74.3125 48.1875 68.609375 48.1875  Q 61.625 48.1875 57.5625 43.546875  Q 53.515625 38.921875 53.515625 30.90625  L 53.515625 0  L 44.484375 0  L 44.484375 32.71875  Q 44.484375 40.625 41.703125 44.40625  Q 38.921875 48.1875 33.109375 48.1875  Q 26.21875 48.1875 22.15625 43.53125  Q 18.109375 38.875 18.109375 30.90625  L 18.109375 0  L 9.078125 0  L 9.078125 54.6875  L 18.109375 54.6875  L 18.109375 46.1875  Q 21.1875 51.21875 25.484375 53.609375  Q 29.78125 56 35.6875 56  Q 41.65625 56 45.828125 52.96875  Q 50 49.953125 52 44.1875  z "
               id="DejaVuSans-6d" />
            <path
               d="M 34.1875 63.1875  L 20.796875 26.90625  L 47.609375 26.90625  z M 28.609375 72.90625  L 39.796875 72.90625  L 67.578125 0  L 57.328125 0  L 50.6875 18.703125  L 17.828125 18.703125  L 11.1875 0  L 0.78125 0  z "
               id="DejaVuSans-41" />
          </defs>
          <g
             transform="translate(365.568438 72.748563)scale(0.1 -0.1)"
             id="g352">
            <use
               xlink:href="#DejaVuSans-35"
               id="use340" />
            <use
               x="63.623047"
               xlink:href="#DejaVuSans-30"
               id="use342" />
            <use
               x="127.246094"
               xlink:href="#DejaVuSans-35"
               id="use344" />
            <use
               x="190.869141"
               xlink:href="#DejaVuSans-20"
               id="use346" />
            <use
               x="222.65625"
               xlink:href="#DejaVuSans-6d"
               id="use348" />
            <use
               x="320.068359"
               xlink:href="#DejaVuSans-41"
               id="use350" />
          </g>
        </g>
        <g
           id="line2d_25">
          <path
             d="M 337.568438 83.926688  L 357.568438 83.926688  "
             style="fill:none;stroke:#2ca02c;stroke-linecap:square;"
             id="path355" />
        </g>
        <g
           id="line2d_26" />
        <g
           id="text_17">
          <!-- 530 mA -->
          <g
             transform="translate(365.568438 87.426688)scale(0.1 -0.1)"
             id="g371">
            <use
               xlink:href="#DejaVuSans-35"
               id="use359" />
            <use
               x="63.623047"
               xlink:href="#DejaVuSans-33"
               id="use361" />
            <use
               x="127.246094"
               xlink:href="#DejaVuSans-30"
               id="use363" />
            <use
               x="190.869141"
               xlink:href="#DejaVuSans-20"
               id="use365" />
            <use
               x="222.65625"
               xlink:href="#DejaVuSans-6d"
               id="use367" />
            <use
               x="320.068359"
               xlink:href="#DejaVuSans-41"
               id="use369" />
          </g>
        </g>
        <g
           id="line2d_27">
          <path
             d="M 337.568438 98.604813  L 357.568438 98.604813  "
             style="fill:none;stroke:#d62728;stroke-linecap:square;"
             id="path374" />
        </g>
        <g
           id="line2d_28" />
        <g
           id="text_18">
          <!-- 480 mA -->
          <g
             transform="translate(365.568438 102.104813)scale(0.1 -0.1)"
             id="g390">
            <use
               xlink:href="#DejaVuSans-34"
               id="use378" />
            <use
               x="63.623047"
               xlink:href="#DejaVuSans-38"
               id="use380" />
            <use
               x="127.246094"
               xlink:href="#DejaVuSans-30"
               id="use382" />
            <use
               x="190.869141"
               xlink:href="#DejaVuSans-20"
               id="use384" />
            <use
               x="222.65625"
               xlink:href="#DejaVuSans-6d"
               id="use386" />
            <use
               x="320.068359"
               xlink:href="#DejaVuSans-41"
               id="use388" />
          </g>
        </g>
        <g
           id="line2d_29">
          <path
             d="M 337.568438 113.282938  L 357.568438 113.282938  "
             style="fill:none;stroke:#9467bd;stroke-linecap:square;"
             id="path393" />
        </g>
        <g
           id="line2d_30" />
        <g
           id="text_19">
          <!-- 455 mA -->
          <g
             transform="translate(365.568438 116.782938)scale(0.1 -0.1)"
             id="g409">
            <use
               xlink:href="#DejaVuSans-34"
               id="use397" />
            <use
               x="63.623047"
               xlink:href="#DejaVuSans-35"
               id="use399" />
            <use
               x="127.246094"
               xlink:href="#DejaVuSans-35"
               id="use401" />
            <use
               x="190.869141"
               xlink:href="#DejaVuSans-20"
               id="use403" />
            <use
               x="222.65625"
               xlink:href="#DejaVuSans-6d"
               id="use405" />
            <use
               x="320.068359"
               xlink:href="#DejaVuSans-41"
               id="use407" />
          </g>
        </g>
        <g
           id="line2d_31">
          <path
             d="M 337.568438 127.961063  L 357.568438 127.961063  "
             style="fill:none;stroke:#8c564b;stroke-linecap:square;"
             id="path412" />
        </g>
        <g
           id="line2d_32" />
        <g
           id="text_20">
          <!-- 550 mA -->
          <g
             transform="translate(365.568438 131.461063)scale(0.1 -0.1)"
             id="g428">
            <use
               xlink:href="#DejaVuSans-35"
               id="use416" />
            <use
               x="63.623047"
               xlink:href="#DejaVuSans-35"
               id="use418" />
            <use
               x="127.246094"
               xlink:href="#DejaVuSans-30"
               id="use420" />
            <use
               x="190.869141"
               xlink:href="#DejaVuSans-20"
               id="use422" />
            <use
               x="222.65625"
               xlink:href="#DejaVuSans-6d"
               id="use424" />
            <use
               x="320.068359"
               xlink:href="#DejaVuSans-41"
               id="use426" />
          </g>
        </g>
      </g>
    </g>
  </g>
  <defs
     id="defs437">
    <clipPath
       id="p43f5e1b64a">
      <rect
         height="266.112"
         width="357.12"
         x="57.6"
         y="41.472"
         id="rect434" />
    </clipPath>
  </defs>
  <text
     xml:space="preserve"
     style="font-style:normal;font-weight:normal;font-size:16px;line-height:1.25;font-family:sans-serif;letter-spacing:0px;word-spacing:0px;fill:#000000;fill-opacity:1;stroke:none;stroke-width:0.75;stroke-linecap:butt;stroke-linejoin:round"
     x="156.87712"
     y="341.19916"
     id="text1252"><tspan
       sodipodi:role="line"
       id="tspan1250"
       style="font-size:16px;stroke-width:0.75;stroke-linecap:butt;stroke-linejoin:round"
       x="156.87712"
       y="341.19916">wavelength [nm]</tspan></text>
  <text
     xml:space="preserve"
     style="font-style:normal;font-weight:normal;font-size:18px;line-height:1.25;font-family:sans-serif;letter-spacing:0px;word-spacing:0px;fill:#000000;fill-opacity:1;stroke:none;stroke-width:0.75;stroke-linecap:butt;stroke-linejoin:round"
     x="82.983055"
     y="25.766949"
     id="text1256"><tspan
       sodipodi:role="line"
       id="tspan1254"
       style="font-size:18px;stroke-width:0.75;stroke-linecap:butt;stroke-linejoin:round"
       x="82.983055"
       y="25.766949">Spectral coupling (FInesse 3000)</tspan></text>
  <text
     xml:space="preserve"
     style="font-style:normal;font-weight:normal;font-size:16px;line-height:1.25;font-family:sans-serif;letter-spacing:0px;word-spacing:0px;fill:#000000;fill-opacity:1;stroke:none;stroke-width:0.75;stroke-linecap:butt;stroke-linejoin:round"
     x="-197.32845"
     y="23.50775"
     id="text1260"
     transform="rotate(-90)"><tspan
       sodipodi:role="line"
       id="tspan1258"
       style="font-size:16px;stroke-width:0.75;stroke-linecap:butt;stroke-linejoin:round"
       x="-197.32845"
       y="23.50775">a.u.</tspan></text>
</svg>
