<?xml version="1.0" encoding="utf-8" standalone="no"?>
<!DOCTYPE svg PUBLIC "-//W3C//DTD SVG 1.1//EN"
  "http://www.w3.org/Graphics/SVG/1.1/DTD/svg11.dtd">
<!-- Created with matplotlib (http://matplotlib.org/) -->
<svg height="345pt" version="1.1" viewBox="0 0 460 345" width="460pt" xmlns="http://www.w3.org/2000/svg" xmlns:xlink="http://www.w3.org/1999/xlink">
 <defs>
  <style type="text/css">
*{stroke-linecap:butt;stroke-linejoin:round;}
  </style>
 </defs>
 <g id="figure_1">
  <g id="patch_1">
   <path d="M 0 345.6 
L 460.8 345.6 
L 460.8 0 
L 0 0 
z
" style="fill:#ffffff;"/>
  </g>
  <g id="axes_1">
   <g id="patch_2">
    <path d="M 57.6 307.584 
L 414.72 307.584 
L 414.72 41.472 
L 57.6 41.472 
z
" style="fill:#ffffff;"/>
   </g>
   <g id="matplotlib.axis_1">
    <g id="xtick_1">
     <g id="line2d_1">
      <defs>
       <path d="M 0 0 
L 0 3.5 
" id="m04fea8709e" style="stroke:#000000;stroke-width:0.8;"/>
      </defs>
      <g>
       <use style="stroke:#000000;stroke-width:0.8;" x="57.6" xlink:href="#m04fea8709e" y="307.584"/>
      </g>
     </g>
     <g id="text_1">
      <!-- −0.04 -->
      <defs>
       <path d="M 10.59375 35.5 
L 73.1875 35.5 
L 73.1875 27.203125 
L 10.59375 27.203125 
z
" id="DejaVuSans-2212"/>
       <path d="M 31.78125 66.40625 
Q 24.171875 66.40625 20.328125 58.90625 
Q 16.5 51.421875 16.5 36.375 
Q 16.5 21.390625 20.328125 13.890625 
Q 24.171875 6.390625 31.78125 6.390625 
Q 39.453125 6.390625 43.28125 13.890625 
Q 47.125 21.390625 47.125 36.375 
Q 47.125 51.421875 43.28125 58.90625 
Q 39.453125 66.40625 31.78125 66.40625 
z
M 31.78125 74.21875 
Q 44.046875 74.21875 50.515625 64.515625 
Q 56.984375 54.828125 56.984375 36.375 
Q 56.984375 17.96875 50.515625 8.265625 
Q 44.046875 -1.421875 31.78125 -1.421875 
Q 19.53125 -1.421875 13.0625 8.265625 
Q 6.59375 17.96875 6.59375 36.375 
Q 6.59375 54.828125 13.0625 64.515625 
Q 19.53125 74.21875 31.78125 74.21875 
z
" id="DejaVuSans-30"/>
       <path d="M 10.6875 12.40625 
L 21 12.40625 
L 21 0 
L 10.6875 0 
z
" id="DejaVuSans-2e"/>
       <path d="M 37.796875 64.3125 
L 12.890625 25.390625 
L 37.796875 25.390625 
z
M 35.203125 72.90625 
L 47.609375 72.90625 
L 47.609375 25.390625 
L 58.015625 25.390625 
L 58.015625 17.1875 
L 47.609375 17.1875 
L 47.609375 0 
L 37.796875 0 
L 37.796875 17.1875 
L 4.890625 17.1875 
L 4.890625 26.703125 
z
" id="DejaVuSans-34"/>
      </defs>
      <g transform="translate(42.277344 322.182437)scale(0.1 -0.1)">
       <use xlink:href="#DejaVuSans-2212"/>
       <use x="83.789062" xlink:href="#DejaVuSans-30"/>
       <use x="147.412109" xlink:href="#DejaVuSans-2e"/>
       <use x="179.199219" xlink:href="#DejaVuSans-30"/>
       <use x="242.822266" xlink:href="#DejaVuSans-34"/>
      </g>
     </g>
    </g>
    <g id="xtick_2">
     <g id="line2d_2">
      <g>
       <use style="stroke:#000000;stroke-width:0.8;" x="117.12" xlink:href="#m04fea8709e" y="307.584"/>
      </g>
     </g>
     <g id="text_2">
      <!-- −0.03 -->
      <defs>
       <path d="M 40.578125 39.3125 
Q 47.65625 37.796875 51.625 33 
Q 55.609375 28.21875 55.609375 21.1875 
Q 55.609375 10.40625 48.1875 4.484375 
Q 40.765625 -1.421875 27.09375 -1.421875 
Q 22.515625 -1.421875 17.65625 -0.515625 
Q 12.796875 0.390625 7.625 2.203125 
L 7.625 11.71875 
Q 11.71875 9.328125 16.59375 8.109375 
Q 21.484375 6.890625 26.8125 6.890625 
Q 36.078125 6.890625 40.9375 10.546875 
Q 45.796875 14.203125 45.796875 21.1875 
Q 45.796875 27.640625 41.28125 31.265625 
Q 36.765625 34.90625 28.71875 34.90625 
L 20.21875 34.90625 
L 20.21875 43.015625 
L 29.109375 43.015625 
Q 36.375 43.015625 40.234375 45.921875 
Q 44.09375 48.828125 44.09375 54.296875 
Q 44.09375 59.90625 40.109375 62.90625 
Q 36.140625 65.921875 28.71875 65.921875 
Q 24.65625 65.921875 20.015625 65.03125 
Q 15.375 64.15625 9.8125 62.3125 
L 9.8125 71.09375 
Q 15.4375 72.65625 20.34375 73.4375 
Q 25.25 74.21875 29.59375 74.21875 
Q 40.828125 74.21875 47.359375 69.109375 
Q 53.90625 64.015625 53.90625 55.328125 
Q 53.90625 49.265625 50.4375 45.09375 
Q 46.96875 40.921875 40.578125 39.3125 
z
" id="DejaVuSans-33"/>
      </defs>
      <g transform="translate(101.797344 322.182437)scale(0.1 -0.1)">
       <use xlink:href="#DejaVuSans-2212"/>
       <use x="83.789062" xlink:href="#DejaVuSans-30"/>
       <use x="147.412109" xlink:href="#DejaVuSans-2e"/>
       <use x="179.199219" xlink:href="#DejaVuSans-30"/>
       <use x="242.822266" xlink:href="#DejaVuSans-33"/>
      </g>
     </g>
    </g>
    <g id="xtick_3">
     <g id="line2d_3">
      <g>
       <use style="stroke:#000000;stroke-width:0.8;" x="176.64" xlink:href="#m04fea8709e" y="307.584"/>
      </g>
     </g>
     <g id="text_3">
      <!-- −0.02 -->
      <defs>
       <path d="M 19.1875 8.296875 
L 53.609375 8.296875 
L 53.609375 0 
L 7.328125 0 
L 7.328125 8.296875 
Q 12.9375 14.109375 22.625 23.890625 
Q 32.328125 33.6875 34.8125 36.53125 
Q 39.546875 41.84375 41.421875 45.53125 
Q 43.3125 49.21875 43.3125 52.78125 
Q 43.3125 58.59375 39.234375 62.25 
Q 35.15625 65.921875 28.609375 65.921875 
Q 23.96875 65.921875 18.8125 64.3125 
Q 13.671875 62.703125 7.8125 59.421875 
L 7.8125 69.390625 
Q 13.765625 71.78125 18.9375 73 
Q 24.125 74.21875 28.421875 74.21875 
Q 39.75 74.21875 46.484375 68.546875 
Q 53.21875 62.890625 53.21875 53.421875 
Q 53.21875 48.921875 51.53125 44.890625 
Q 49.859375 40.875 45.40625 35.40625 
Q 44.1875 33.984375 37.640625 27.21875 
Q 31.109375 20.453125 19.1875 8.296875 
z
" id="DejaVuSans-32"/>
      </defs>
      <g transform="translate(161.317344 322.182437)scale(0.1 -0.1)">
       <use xlink:href="#DejaVuSans-2212"/>
       <use x="83.789062" xlink:href="#DejaVuSans-30"/>
       <use x="147.412109" xlink:href="#DejaVuSans-2e"/>
       <use x="179.199219" xlink:href="#DejaVuSans-30"/>
       <use x="242.822266" xlink:href="#DejaVuSans-32"/>
      </g>
     </g>
    </g>
    <g id="xtick_4">
     <g id="line2d_4">
      <g>
       <use style="stroke:#000000;stroke-width:0.8;" x="236.16" xlink:href="#m04fea8709e" y="307.584"/>
      </g>
     </g>
     <g id="text_4">
      <!-- −0.01 -->
      <defs>
       <path d="M 12.40625 8.296875 
L 28.515625 8.296875 
L 28.515625 63.921875 
L 10.984375 60.40625 
L 10.984375 69.390625 
L 28.421875 72.90625 
L 38.28125 72.90625 
L 38.28125 8.296875 
L 54.390625 8.296875 
L 54.390625 0 
L 12.40625 0 
z
" id="DejaVuSans-31"/>
      </defs>
      <g transform="translate(220.837344 322.182437)scale(0.1 -0.1)">
       <use xlink:href="#DejaVuSans-2212"/>
       <use x="83.789062" xlink:href="#DejaVuSans-30"/>
       <use x="147.412109" xlink:href="#DejaVuSans-2e"/>
       <use x="179.199219" xlink:href="#DejaVuSans-30"/>
       <use x="242.822266" xlink:href="#DejaVuSans-31"/>
      </g>
     </g>
    </g>
    <g id="xtick_5">
     <g id="line2d_5">
      <g>
       <use style="stroke:#000000;stroke-width:0.8;" x="295.68" xlink:href="#m04fea8709e" y="307.584"/>
      </g>
     </g>
     <g id="text_5">
      <!-- 0.00 -->
      <g transform="translate(284.547188 322.182437)scale(0.1 -0.1)">
       <use xlink:href="#DejaVuSans-30"/>
       <use x="63.623047" xlink:href="#DejaVuSans-2e"/>
       <use x="95.410156" xlink:href="#DejaVuSans-30"/>
       <use x="159.033203" xlink:href="#DejaVuSans-30"/>
      </g>
     </g>
    </g>
    <g id="xtick_6">
     <g id="line2d_6">
      <g>
       <use style="stroke:#000000;stroke-width:0.8;" x="355.2" xlink:href="#m04fea8709e" y="307.584"/>
      </g>
     </g>
     <g id="text_6">
      <!-- 0.01 -->
      <g transform="translate(344.067188 322.182437)scale(0.1 -0.1)">
       <use xlink:href="#DejaVuSans-30"/>
       <use x="63.623047" xlink:href="#DejaVuSans-2e"/>
       <use x="95.410156" xlink:href="#DejaVuSans-30"/>
       <use x="159.033203" xlink:href="#DejaVuSans-31"/>
      </g>
     </g>
    </g>
    <g id="xtick_7">
     <g id="line2d_7">
      <g>
       <use style="stroke:#000000;stroke-width:0.8;" x="414.72" xlink:href="#m04fea8709e" y="307.584"/>
      </g>
     </g>
     <g id="text_7">
      <!-- 0.02 -->
      <g transform="translate(403.587188 322.182437)scale(0.1 -0.1)">
       <use xlink:href="#DejaVuSans-30"/>
       <use x="63.623047" xlink:href="#DejaVuSans-2e"/>
       <use x="95.410156" xlink:href="#DejaVuSans-30"/>
       <use x="159.033203" xlink:href="#DejaVuSans-32"/>
      </g>
     </g>
    </g>
    <g id="text_8">
     <!-- time [s] -->
     <defs>
      <path d="M 18.3125 70.21875 
L 18.3125 54.6875 
L 36.8125 54.6875 
L 36.8125 47.703125 
L 18.3125 47.703125 
L 18.3125 18.015625 
Q 18.3125 11.328125 20.140625 9.421875 
Q 21.96875 7.515625 27.59375 7.515625 
L 36.8125 7.515625 
L 36.8125 0 
L 27.59375 0 
Q 17.1875 0 13.234375 3.875 
Q 9.28125 7.765625 9.28125 18.015625 
L 9.28125 47.703125 
L 2.6875 47.703125 
L 2.6875 54.6875 
L 9.28125 54.6875 
L 9.28125 70.21875 
z
" id="DejaVuSans-74"/>
      <path d="M 9.421875 54.6875 
L 18.40625 54.6875 
L 18.40625 0 
L 9.421875 0 
z
M 9.421875 75.984375 
L 18.40625 75.984375 
L 18.40625 64.59375 
L 9.421875 64.59375 
z
" id="DejaVuSans-69"/>
      <path d="M 52 44.1875 
Q 55.375 50.25 60.0625 53.125 
Q 64.75 56 71.09375 56 
Q 79.640625 56 84.28125 50.015625 
Q 88.921875 44.046875 88.921875 33.015625 
L 88.921875 0 
L 79.890625 0 
L 79.890625 32.71875 
Q 79.890625 40.578125 77.09375 44.375 
Q 74.3125 48.1875 68.609375 48.1875 
Q 61.625 48.1875 57.5625 43.546875 
Q 53.515625 38.921875 53.515625 30.90625 
L 53.515625 0 
L 44.484375 0 
L 44.484375 32.71875 
Q 44.484375 40.625 41.703125 44.40625 
Q 38.921875 48.1875 33.109375 48.1875 
Q 26.21875 48.1875 22.15625 43.53125 
Q 18.109375 38.875 18.109375 30.90625 
L 18.109375 0 
L 9.078125 0 
L 9.078125 54.6875 
L 18.109375 54.6875 
L 18.109375 46.1875 
Q 21.1875 51.21875 25.484375 53.609375 
Q 29.78125 56 35.6875 56 
Q 41.65625 56 45.828125 52.96875 
Q 50 49.953125 52 44.1875 
z
" id="DejaVuSans-6d"/>
      <path d="M 56.203125 29.59375 
L 56.203125 25.203125 
L 14.890625 25.203125 
Q 15.484375 15.921875 20.484375 11.0625 
Q 25.484375 6.203125 34.421875 6.203125 
Q 39.59375 6.203125 44.453125 7.46875 
Q 49.3125 8.734375 54.109375 11.28125 
L 54.109375 2.78125 
Q 49.265625 0.734375 44.1875 -0.34375 
Q 39.109375 -1.421875 33.890625 -1.421875 
Q 20.796875 -1.421875 13.15625 6.1875 
Q 5.515625 13.8125 5.515625 26.8125 
Q 5.515625 40.234375 12.765625 48.109375 
Q 20.015625 56 32.328125 56 
Q 43.359375 56 49.78125 48.890625 
Q 56.203125 41.796875 56.203125 29.59375 
z
M 47.21875 32.234375 
Q 47.125 39.59375 43.09375 43.984375 
Q 39.0625 48.390625 32.421875 48.390625 
Q 24.90625 48.390625 20.390625 44.140625 
Q 15.875 39.890625 15.1875 32.171875 
z
" id="DejaVuSans-65"/>
      <path id="DejaVuSans-20"/>
      <path d="M 8.59375 75.984375 
L 29.296875 75.984375 
L 29.296875 69 
L 17.578125 69 
L 17.578125 -6.203125 
L 29.296875 -6.203125 
L 29.296875 -13.1875 
L 8.59375 -13.1875 
z
" id="DejaVuSans-5b"/>
      <path d="M 44.28125 53.078125 
L 44.28125 44.578125 
Q 40.484375 46.53125 36.375 47.5 
Q 32.28125 48.484375 27.875 48.484375 
Q 21.1875 48.484375 17.84375 46.4375 
Q 14.5 44.390625 14.5 40.28125 
Q 14.5 37.15625 16.890625 35.375 
Q 19.28125 33.59375 26.515625 31.984375 
L 29.59375 31.296875 
Q 39.15625 29.25 43.1875 25.515625 
Q 47.21875 21.78125 47.21875 15.09375 
Q 47.21875 7.46875 41.1875 3.015625 
Q 35.15625 -1.421875 24.609375 -1.421875 
Q 20.21875 -1.421875 15.453125 -0.5625 
Q 10.6875 0.296875 5.421875 2 
L 5.421875 11.28125 
Q 10.40625 8.6875 15.234375 7.390625 
Q 20.0625 6.109375 24.8125 6.109375 
Q 31.15625 6.109375 34.5625 8.28125 
Q 37.984375 10.453125 37.984375 14.40625 
Q 37.984375 18.0625 35.515625 20.015625 
Q 33.0625 21.96875 24.703125 23.78125 
L 21.578125 24.515625 
Q 13.234375 26.265625 9.515625 29.90625 
Q 5.8125 33.546875 5.8125 39.890625 
Q 5.8125 47.609375 11.28125 51.796875 
Q 16.75 56 26.8125 56 
Q 31.78125 56 36.171875 55.265625 
Q 40.578125 54.546875 44.28125 53.078125 
z
" id="DejaVuSans-73"/>
      <path d="M 30.421875 75.984375 
L 30.421875 -13.1875 
L 9.71875 -13.1875 
L 9.71875 -6.203125 
L 21.390625 -6.203125 
L 21.390625 69 
L 9.71875 69 
L 9.71875 75.984375 
z
" id="DejaVuSans-5d"/>
     </defs>
     <g transform="translate(216.768594 335.860562)scale(0.1 -0.1)">
      <use xlink:href="#DejaVuSans-74"/>
      <use x="39.208984" xlink:href="#DejaVuSans-69"/>
      <use x="66.992188" xlink:href="#DejaVuSans-6d"/>
      <use x="164.404297" xlink:href="#DejaVuSans-65"/>
      <use x="225.927734" xlink:href="#DejaVuSans-20"/>
      <use x="257.714844" xlink:href="#DejaVuSans-5b"/>
      <use x="296.728516" xlink:href="#DejaVuSans-73"/>
      <use x="348.828125" xlink:href="#DejaVuSans-5d"/>
     </g>
    </g>
   </g>
   <g id="matplotlib.axis_2">
    <g id="ytick_1">
     <g id="line2d_8">
      <defs>
       <path d="M 0 0 
L -3.5 0 
" id="mc94bfad2ab" style="stroke:#000000;stroke-width:0.8;"/>
      </defs>
      <g>
       <use style="stroke:#000000;stroke-width:0.8;" x="57.6" xlink:href="#mc94bfad2ab" y="297.471107"/>
      </g>
     </g>
     <g id="text_9">
      <!-- 0.5 -->
      <defs>
       <path d="M 10.796875 72.90625 
L 49.515625 72.90625 
L 49.515625 64.59375 
L 19.828125 64.59375 
L 19.828125 46.734375 
Q 21.96875 47.46875 24.109375 47.828125 
Q 26.265625 48.1875 28.421875 48.1875 
Q 40.625 48.1875 47.75 41.5 
Q 54.890625 34.8125 54.890625 23.390625 
Q 54.890625 11.625 47.5625 5.09375 
Q 40.234375 -1.421875 26.90625 -1.421875 
Q 22.3125 -1.421875 17.546875 -0.640625 
Q 12.796875 0.140625 7.71875 1.703125 
L 7.71875 11.625 
Q 12.109375 9.234375 16.796875 8.0625 
Q 21.484375 6.890625 26.703125 6.890625 
Q 35.15625 6.890625 40.078125 11.328125 
Q 45.015625 15.765625 45.015625 23.390625 
Q 45.015625 31 40.078125 35.4375 
Q 35.15625 39.890625 26.703125 39.890625 
Q 22.75 39.890625 18.8125 39.015625 
Q 14.890625 38.140625 10.796875 36.28125 
z
" id="DejaVuSans-35"/>
      </defs>
      <g transform="translate(34.696875 301.270325)scale(0.1 -0.1)">
       <use xlink:href="#DejaVuSans-30"/>
       <use x="63.623047" xlink:href="#DejaVuSans-2e"/>
       <use x="95.410156" xlink:href="#DejaVuSans-35"/>
      </g>
     </g>
    </g>
    <g id="ytick_2">
     <g id="line2d_9">
      <g>
       <use style="stroke:#000000;stroke-width:0.8;" x="57.6" xlink:href="#mc94bfad2ab" y="267.47802"/>
      </g>
     </g>
     <g id="text_10">
      <!-- 1.0 -->
      <g transform="translate(34.696875 271.277238)scale(0.1 -0.1)">
       <use xlink:href="#DejaVuSans-31"/>
       <use x="63.623047" xlink:href="#DejaVuSans-2e"/>
       <use x="95.410156" xlink:href="#DejaVuSans-30"/>
      </g>
     </g>
    </g>
    <g id="ytick_3">
     <g id="line2d_10">
      <g>
       <use style="stroke:#000000;stroke-width:0.8;" x="57.6" xlink:href="#mc94bfad2ab" y="237.484933"/>
      </g>
     </g>
     <g id="text_11">
      <!-- 1.5 -->
      <g transform="translate(34.696875 241.284151)scale(0.1 -0.1)">
       <use xlink:href="#DejaVuSans-31"/>
       <use x="63.623047" xlink:href="#DejaVuSans-2e"/>
       <use x="95.410156" xlink:href="#DejaVuSans-35"/>
      </g>
     </g>
    </g>
    <g id="ytick_4">
     <g id="line2d_11">
      <g>
       <use style="stroke:#000000;stroke-width:0.8;" x="57.6" xlink:href="#mc94bfad2ab" y="207.491845"/>
      </g>
     </g>
     <g id="text_12">
      <!-- 2.0 -->
      <g transform="translate(34.696875 211.291064)scale(0.1 -0.1)">
       <use xlink:href="#DejaVuSans-32"/>
       <use x="63.623047" xlink:href="#DejaVuSans-2e"/>
       <use x="95.410156" xlink:href="#DejaVuSans-30"/>
      </g>
     </g>
    </g>
    <g id="ytick_5">
     <g id="line2d_12">
      <g>
       <use style="stroke:#000000;stroke-width:0.8;" x="57.6" xlink:href="#mc94bfad2ab" y="177.498758"/>
      </g>
     </g>
     <g id="text_13">
      <!-- 2.5 -->
      <g transform="translate(34.696875 181.297977)scale(0.1 -0.1)">
       <use xlink:href="#DejaVuSans-32"/>
       <use x="63.623047" xlink:href="#DejaVuSans-2e"/>
       <use x="95.410156" xlink:href="#DejaVuSans-35"/>
      </g>
     </g>
    </g>
    <g id="ytick_6">
     <g id="line2d_13">
      <g>
       <use style="stroke:#000000;stroke-width:0.8;" x="57.6" xlink:href="#mc94bfad2ab" y="147.505671"/>
      </g>
     </g>
     <g id="text_14">
      <!-- 3.0 -->
      <g transform="translate(34.696875 151.30489)scale(0.1 -0.1)">
       <use xlink:href="#DejaVuSans-33"/>
       <use x="63.623047" xlink:href="#DejaVuSans-2e"/>
       <use x="95.410156" xlink:href="#DejaVuSans-30"/>
      </g>
     </g>
    </g>
    <g id="ytick_7">
     <g id="line2d_14">
      <g>
       <use style="stroke:#000000;stroke-width:0.8;" x="57.6" xlink:href="#mc94bfad2ab" y="117.512584"/>
      </g>
     </g>
     <g id="text_15">
      <!-- 3.5 -->
      <g transform="translate(34.696875 121.311803)scale(0.1 -0.1)">
       <use xlink:href="#DejaVuSans-33"/>
       <use x="63.623047" xlink:href="#DejaVuSans-2e"/>
       <use x="95.410156" xlink:href="#DejaVuSans-35"/>
      </g>
     </g>
    </g>
    <g id="ytick_8">
     <g id="line2d_15">
      <g>
       <use style="stroke:#000000;stroke-width:0.8;" x="57.6" xlink:href="#mc94bfad2ab" y="87.519497"/>
      </g>
     </g>
     <g id="text_16">
      <!-- 4.0 -->
      <g transform="translate(34.696875 91.318716)scale(0.1 -0.1)">
       <use xlink:href="#DejaVuSans-34"/>
       <use x="63.623047" xlink:href="#DejaVuSans-2e"/>
       <use x="95.410156" xlink:href="#DejaVuSans-30"/>
      </g>
     </g>
    </g>
    <g id="ytick_9">
     <g id="line2d_16">
      <g>
       <use style="stroke:#000000;stroke-width:0.8;" x="57.6" xlink:href="#mc94bfad2ab" y="57.52641"/>
      </g>
     </g>
     <g id="text_17">
      <!-- 4.5 -->
      <g transform="translate(34.696875 61.325629)scale(0.1 -0.1)">
       <use xlink:href="#DejaVuSans-34"/>
       <use x="63.623047" xlink:href="#DejaVuSans-2e"/>
       <use x="95.410156" xlink:href="#DejaVuSans-35"/>
      </g>
     </g>
    </g>
    <g id="text_18">
     <!-- a.u. -->
     <defs>
      <path d="M 34.28125 27.484375 
Q 23.390625 27.484375 19.1875 25 
Q 14.984375 22.515625 14.984375 16.5 
Q 14.984375 11.71875 18.140625 8.90625 
Q 21.296875 6.109375 26.703125 6.109375 
Q 34.1875 6.109375 38.703125 11.40625 
Q 43.21875 16.703125 43.21875 25.484375 
L 43.21875 27.484375 
z
M 52.203125 31.203125 
L 52.203125 0 
L 43.21875 0 
L 43.21875 8.296875 
Q 40.140625 3.328125 35.546875 0.953125 
Q 30.953125 -1.421875 24.3125 -1.421875 
Q 15.921875 -1.421875 10.953125 3.296875 
Q 6 8.015625 6 15.921875 
Q 6 25.140625 12.171875 29.828125 
Q 18.359375 34.515625 30.609375 34.515625 
L 43.21875 34.515625 
L 43.21875 35.40625 
Q 43.21875 41.609375 39.140625 45 
Q 35.0625 48.390625 27.6875 48.390625 
Q 23 48.390625 18.546875 47.265625 
Q 14.109375 46.140625 10.015625 43.890625 
L 10.015625 52.203125 
Q 14.9375 54.109375 19.578125 55.046875 
Q 24.21875 56 28.609375 56 
Q 40.484375 56 46.34375 49.84375 
Q 52.203125 43.703125 52.203125 31.203125 
z
" id="DejaVuSans-61"/>
      <path d="M 8.5 21.578125 
L 8.5 54.6875 
L 17.484375 54.6875 
L 17.484375 21.921875 
Q 17.484375 14.15625 20.5 10.265625 
Q 23.53125 6.390625 29.59375 6.390625 
Q 36.859375 6.390625 41.078125 11.03125 
Q 45.3125 15.671875 45.3125 23.6875 
L 45.3125 54.6875 
L 54.296875 54.6875 
L 54.296875 0 
L 45.3125 0 
L 45.3125 8.40625 
Q 42.046875 3.421875 37.71875 1 
Q 33.40625 -1.421875 27.6875 -1.421875 
Q 18.265625 -1.421875 13.375 4.4375 
Q 8.5 10.296875 8.5 21.578125 
z
M 31.109375 56 
z
" id="DejaVuSans-75"/>
     </defs>
     <g transform="translate(28.617188 183.938937)rotate(-90)scale(0.1 -0.1)">
      <use xlink:href="#DejaVuSans-61"/>
      <use x="61.279297" xlink:href="#DejaVuSans-2e"/>
      <use x="93.066406" xlink:href="#DejaVuSans-75"/>
      <use x="156.445312" xlink:href="#DejaVuSans-2e"/>
     </g>
    </g>
   </g>
   <g id="line2d_17">
    <path clip-path="url(#pbba28715b7)" d="M 57.48096 287.962368 
L 57.71904 287.816487 
L 57.83808 289.655687 
L 57.95712 287.889427 
L 58.1952 287.816487 
L 58.31424 285.916549 
L 58.55232 291.151792 
L 58.67136 287.743547 
L 58.7904 287.743547 
L 58.90944 289.436866 
L 59.02848 287.743547 
L 59.14752 287.670606 
L 59.26656 285.770669 
L 59.3856 287.670606 
L 59.50464 287.670606 
L 59.62368 285.843609 
L 59.74272 287.670606 
L 59.86176 287.524726 
L 59.9808 285.624788 
L 60.09984 289.290985 
L 60.21888 287.378845 
L 60.45696 287.451785 
L 60.69504 287.524726 
L 60.93312 287.597666 
L 61.05216 287.743547 
L 61.1712 287.670606 
L 61.29024 285.916549 
L 61.52832 289.509806 
L 61.64736 287.816487 
L 62.00448 288.108249 
L 62.12352 291.589435 
L 62.24256 286.281251 
L 62.3616 290.020389 
L 62.48064 289.947448 
L 62.59968 286.281251 
L 62.83776 291.516494 
L 62.9568 288.108249 
L 63.07584 291.516494 
L 63.31392 288.035308 
L 63.43296 289.655687 
L 63.552 286.06243 
L 63.67104 286.06243 
L 63.79008 289.655687 
L 63.90912 285.98949 
L 64.02816 287.962368 
L 64.1472 287.816487 
L 64.26624 285.98949 
L 64.38528 287.816487 
L 64.50432 287.597666 
L 64.62336 287.743547 
L 64.7424 289.436866 
L 64.98048 285.98949 
L 65.09952 291.297673 
L 65.21856 287.962368 
L 65.3376 289.728627 
L 65.45664 289.655687 
L 65.57568 284.018697 
L 65.69472 291.443554 
L 65.81376 288.035308 
L 65.9328 288.108249 
L 66.05184 289.801567 
L 66.17088 289.801567 
L 66.28992 288.254129 
L 66.40896 288.181189 
L 66.528 286.354192 
L 66.76608 290.020389 
L 66.88512 288.40001 
L 67.00416 290.020389 
L 67.1232 288.254129 
L 67.24224 288.32707 
L 67.36128 291.662375 
L 67.48032 289.947448 
L 67.59936 290.020389 
L 67.7184 291.589435 
L 67.83744 288.254129 
L 67.95648 288.254129 
L 68.07552 288.108249 
L 68.19456 288.181189 
L 68.3136 289.947448 
L 68.43264 288.108249 
L 68.55168 288.254129 
L 68.67072 289.874508 
L 68.78976 286.135371 
L 68.9088 288.108249 
L 69.02784 287.889427 
L 69.14688 285.98949 
L 69.26592 289.801567 
L 69.38496 289.728627 
L 69.504 286.135371 
L 69.62304 291.370613 
L 69.74208 288.035308 
L 69.86112 288.035308 
L 69.98016 291.370613 
L 70.0992 286.06243 
L 70.33728 291.516494 
L 70.45632 286.208311 
L 70.57536 289.874508 
L 70.6944 288.035308 
L 70.81344 289.874508 
L 70.93248 288.108249 
L 71.05152 288.108249 
L 71.17056 286.281251 
L 71.2896 291.589435 
L 71.52768 286.354192 
L 71.64672 289.874508 
L 71.76576 288.181189 
L 71.8848 288.181189 
L 72.00384 291.589435 
L 72.12288 288.108249 
L 72.36096 291.516494 
L 72.48 288.181189 
L 72.71808 288.035308 
L 72.83712 288.181189 
L 72.95616 289.874508 
L 73.0752 288.108249 
L 73.19424 288.181189 
L 73.31328 288.035308 
L 73.43232 288.108249 
L 73.55136 288.035308 
L 73.78944 287.816487 
L 73.90848 289.582746 
L 74.02752 287.816487 
L 74.14656 287.889427 
L 74.2656 289.582746 
L 74.38464 287.743547 
L 74.50368 289.509806 
L 74.74176 285.843609 
L 74.8608 287.816487 
L 75.09888 287.816487 
L 75.21792 289.509806 
L 75.456 286.06243 
L 75.57504 287.889427 
L 75.81312 287.962368 
L 75.93216 289.728627 
L 76.0512 288.035308 
L 76.17024 288.108249 
L 76.28928 288.035308 
L 76.52736 291.370613 
L 76.6464 287.816487 
L 76.76544 289.582746 
L 76.88448 289.582746 
L 77.00352 287.816487 
L 77.12256 287.816487 
L 77.2416 289.436866 
L 77.36064 285.770669 
L 77.47968 287.670606 
L 77.59872 287.670606 
L 77.71776 283.726935 
L 77.95584 287.524726 
L 78.19392 287.451785 
L 78.31296 285.478907 
L 78.432 287.451785 
L 78.67008 287.378845 
L 78.78912 289.218044 
L 78.90816 287.305904 
L 79.0272 287.451785 
L 79.14624 289.363925 
L 79.38432 285.624788 
L 79.50336 289.290985 
L 79.74144 285.697728 
L 79.86048 289.436866 
L 79.97952 283.653995 
L 80.2176 289.436866 
L 80.33664 285.770669 
L 80.45568 287.597666 
L 80.57472 287.524726 
L 80.69376 287.597666 
L 80.8128 287.524726 
L 80.93184 289.218044 
L 81.05088 285.697728 
L 81.16992 289.290985 
L 81.28896 289.436866 
L 81.64608 285.843609 
L 81.76512 287.816487 
L 81.88416 287.816487 
L 82.0032 285.98949 
L 82.12224 289.728627 
L 82.24128 287.889427 
L 82.36032 288.035308 
L 82.47936 291.370613 
L 82.5984 285.98949 
L 82.83648 289.728627 
L 82.95552 288.035308 
L 83.07456 289.874508 
L 83.1936 289.801567 
L 83.31264 288.181189 
L 83.43168 289.947448 
L 83.55072 288.108249 
L 83.66976 288.108249 
L 83.7888 289.728627 
L 83.90784 287.962368 
L 84.02688 288.035308 
L 84.14592 289.728627 
L 84.26496 286.06243 
L 84.384 289.801567 
L 84.50304 289.728627 
L 84.62208 286.135371 
L 84.74112 288.035308 
L 84.86016 287.962368 
L 84.9792 286.06243 
L 85.09824 289.728627 
L 85.21728 287.962368 
L 85.33632 287.962368 
L 85.45536 291.297673 
L 85.5744 287.962368 
L 85.69344 289.655687 
L 85.81248 289.582746 
L 85.93152 286.06243 
L 86.1696 289.655687 
L 86.28864 287.962368 
L 86.52672 287.889427 
L 86.64576 288.035308 
L 86.88384 287.816487 
L 87.00288 289.509806 
L 87.24096 285.697728 
L 87.36 287.670606 
L 87.47904 287.597666 
L 87.59808 287.670606 
L 87.71712 291.005911 
L 87.9552 285.551847 
L 88.07424 287.451785 
L 88.19328 283.508114 
L 88.43136 288.999223 
L 88.5504 287.232964 
L 88.66944 288.999223 
L 88.90752 283.362233 
L 89.02656 287.087083 
L 89.1456 287.087083 
L 89.26464 287.232964 
L 89.38368 285.187146 
L 89.62176 285.478907 
L 89.7408 287.232964 
L 89.85984 287.232964 
L 89.97888 288.926283 
L 90.09792 285.260086 
L 90.336 289.072164 
L 90.45504 283.216352 
L 90.57408 289.072164 
L 90.69312 289.145104 
L 90.81216 285.551847 
L 90.9312 287.597666 
L 91.05024 287.597666 
L 91.16928 285.697728 
L 91.28832 287.524726 
L 91.40736 287.597666 
L 91.5264 283.653995 
L 91.64544 290.932971 
L 91.76448 287.670606 
L 91.88352 287.670606 
L 92.00256 289.290985 
L 92.1216 287.524726 
L 92.24064 287.670606 
L 92.35968 287.524726 
L 92.59776 287.670606 
L 92.7168 287.597666 
L 92.83584 287.743547 
L 92.95488 289.363925 
L 93.07392 285.551847 
L 93.19296 285.551847 
L 93.312 290.71415 
L 93.43104 283.362233 
L 93.66912 289.072164 
L 93.78816 285.405967 
L 93.9072 287.378845 
L 94.02624 287.378845 
L 94.14528 283.508114 
L 94.26432 287.378845 
L 94.38336 285.478907 
L 94.62144 289.072164 
L 94.74048 285.551847 
L 94.97856 289.072164 
L 95.0976 287.305904 
L 95.21664 289.145104 
L 95.45472 285.551847 
L 95.57376 289.363925 
L 95.6928 285.770669 
L 95.81184 287.816487 
L 95.93088 287.743547 
L 96.04992 285.916549 
L 96.16896 285.916549 
L 96.288 289.509806 
L 96.40704 283.799876 
L 96.64512 291.151792 
L 96.76416 287.889427 
L 96.8832 291.224733 
L 97.00224 287.816487 
L 97.24032 287.962368 
L 97.4784 288.181189 
L 97.59744 291.516494 
L 97.71648 286.281251 
L 97.83552 289.947448 
L 98.0736 286.208311 
L 98.19264 291.370613 
L 98.31168 287.816487 
L 98.43072 287.962368 
L 98.54976 289.728627 
L 98.78784 286.06243 
L 98.90688 289.509806 
L 99.02592 287.816487 
L 99.14496 289.509806 
L 99.264 287.743547 
L 99.38304 283.872816 
L 99.50208 291.078852 
L 99.62112 287.597666 
L 99.8592 287.524726 
L 99.97824 285.624788 
L 100.09728 287.670606 
L 100.33536 287.524726 
L 100.57344 287.378845 
L 100.69248 285.624788 
L 100.81152 287.378845 
L 101.0496 287.305904 
L 101.16864 289.072164 
L 101.28768 285.478907 
L 101.40672 287.451785 
L 101.52576 287.451785 
L 101.6448 285.551847 
L 101.76384 287.451785 
L 101.88288 287.451785 
L 102.00192 285.551847 
L 102.12096 287.451785 
L 102.35904 287.378845 
L 102.47808 289.072164 
L 102.59712 287.305904 
L 102.95424 287.305904 
L 103.07328 285.405967 
L 103.19232 287.378845 
L 103.31136 285.551847 
L 103.4304 287.451785 
L 103.54944 287.378845 
L 103.66848 285.478907 
L 103.78752 287.305904 
L 103.90656 287.305904 
L 104.0256 285.405967 
L 104.26368 288.999223 
L 104.38272 287.305904 
L 104.50176 287.305904 
L 104.6208 285.551847 
L 104.73984 287.451785 
L 105.216 287.451785 
L 105.33504 285.697728 
L 105.45408 287.451785 
L 105.57312 287.305904 
L 105.69216 289.072164 
L 105.8112 287.232964 
L 106.04928 287.378845 
L 106.16832 287.305904 
L 106.28736 285.405967 
L 106.4064 289.072164 
L 106.52544 283.289293 
L 106.76352 287.305904 
L 106.88256 285.405967 
L 107.12064 289.072164 
L 107.23968 285.405967 
L 107.35872 287.378845 
L 107.47776 287.305904 
L 107.5968 285.551847 
L 107.83488 287.597666 
L 107.95392 287.670606 
L 108.07296 289.363925 
L 108.192 287.524726 
L 108.31104 287.597666 
L 108.43008 289.218044 
L 108.54912 285.624788 
L 108.66816 289.363925 
L 108.7872 289.218044 
L 108.90624 287.524726 
L 109.02528 287.524726 
L 109.26336 283.653995 
L 109.3824 289.363925 
L 109.50144 285.697728 
L 109.73952 289.290985 
L 109.85856 283.653995 
L 109.9776 287.597666 
L 110.09664 287.451785 
L 110.21568 287.524726 
L 110.33472 289.363925 
L 110.45376 289.436866 
L 110.5728 287.816487 
L 110.69184 289.509806 
L 110.81088 285.843609 
L 111.04896 289.436866 
L 111.168 285.916549 
L 111.28704 289.582746 
L 111.40608 289.509806 
L 111.52512 287.743547 
L 111.64416 287.743547 
L 111.7632 287.524726 
L 111.88224 285.624788 
L 112.00128 289.290985 
L 112.12032 285.624788 
L 112.23936 287.597666 
L 112.3584 287.524726 
L 112.47744 285.697728 
L 112.71552 289.363925 
L 112.83456 283.653995 
L 113.07264 289.363925 
L 113.19168 285.770669 
L 113.31072 289.290985 
L 113.42976 287.524726 
L 113.5488 287.597666 
L 113.66784 291.005911 
L 113.78688 287.670606 
L 113.90592 287.670606 
L 114.02496 289.363925 
L 114.144 285.843609 
L 114.26304 287.889427 
L 114.38208 285.843609 
L 114.50112 285.916549 
L 114.62016 289.509806 
L 114.7392 287.743547 
L 114.85824 287.816487 
L 115.09632 287.670606 
L 115.21536 287.743547 
L 115.3344 291.078852 
L 115.45344 285.843609 
L 115.57248 287.743547 
L 115.81056 287.816487 
L 115.9296 289.509806 
L 116.04864 287.743547 
L 116.16768 287.816487 
L 116.28672 289.582746 
L 116.40576 287.743547 
L 116.5248 287.816487 
L 116.64384 287.524726 
L 116.76288 285.697728 
L 116.88192 287.670606 
L 117.12 287.597666 
L 117.23904 289.290985 
L 117.47712 285.624788 
L 117.59616 289.145104 
L 117.7152 283.435174 
L 117.95328 289.145104 
L 118.07232 285.551847 
L 118.19136 287.524726 
L 118.3104 287.524726 
L 118.42944 285.697728 
L 118.54848 289.290985 
L 118.66752 285.624788 
L 118.78656 287.670606 
L 118.9056 287.597666 
L 119.14368 287.889427 
L 119.26272 289.509806 
L 119.38176 287.816487 
L 119.5008 289.582746 
L 119.61984 287.743547 
L 119.73888 287.816487 
L 119.85792 289.509806 
L 119.97696 287.816487 
L 120.096 287.816487 
L 120.21504 291.151792 
L 120.33408 285.843609 
L 120.45312 287.889427 
L 120.57216 287.743547 
L 120.6912 285.843609 
L 120.81024 287.670606 
L 120.92928 287.597666 
L 121.04832 287.670606 
L 121.16736 287.524726 
L 121.2864 285.624788 
L 121.52448 290.78709 
L 121.64352 285.551847 
L 121.76256 287.524726 
L 121.8816 287.451785 
L 122.00064 285.624788 
L 122.11968 289.290985 
L 122.23872 285.478907 
L 122.4768 289.218044 
L 122.59584 285.551847 
L 122.83392 289.145104 
L 122.95296 285.551847 
L 123.072 287.524726 
L 123.19104 287.451785 
L 123.31008 283.581054 
L 123.42912 289.290985 
L 123.6672 285.551847 
L 123.78624 289.145104 
L 123.90528 287.451785 
L 124.02432 287.524726 
L 124.14336 289.218044 
L 124.2624 285.551847 
L 124.50048 289.290985 
L 124.61952 285.770669 
L 124.73856 285.770669 
L 124.8576 287.524726 
L 124.97664 287.597666 
L 125.09568 289.363925 
L 125.33376 285.697728 
L 125.4528 289.290985 
L 125.57184 287.524726 
L 125.69088 287.597666 
L 125.80992 289.290985 
L 125.92896 283.653995 
L 126.16704 289.363925 
L 126.28608 287.597666 
L 126.52416 287.451785 
L 126.6432 285.697728 
L 126.76224 289.290985 
L 126.88128 287.524726 
L 127.00032 287.597666 
L 127.11936 287.524726 
L 127.2384 285.770669 
L 127.35744 287.743547 
L 127.47648 287.743547 
L 127.59552 285.916549 
L 127.71456 289.655687 
L 127.8336 287.816487 
L 127.95264 287.889427 
L 128.07168 289.655687 
L 128.19072 287.816487 
L 128.30976 287.889427 
L 128.4288 289.655687 
L 128.78592 289.801567 
L 128.90496 286.281251 
L 129.14304 290.020389 
L 129.26208 286.354192 
L 129.38112 289.947448 
L 129.50016 288.181189 
L 129.6192 288.254129 
L 129.73824 289.947448 
L 129.85728 288.108249 
L 129.97632 289.874508 
L 130.09536 289.728627 
L 130.2144 289.947448 
L 130.33344 288.181189 
L 130.45248 288.108249 
L 130.57152 288.32707 
L 130.69056 290.166269 
L 130.8096 288.254129 
L 130.92864 288.32707 
L 131.04768 289.947448 
L 131.16672 286.354192 
L 131.28576 291.589435 
L 131.4048 288.108249 
L 131.52384 288.035308 
L 131.64288 291.516494 
L 131.76192 291.443554 
L 131.88096 284.164577 
L 132 289.801567 
L 132.11904 286.135371 
L 132.23808 289.874508 
L 132.35712 288.035308 
L 132.47616 288.108249 
L 132.5952 288.035308 
L 132.71424 289.728627 
L 132.83328 286.135371 
L 132.95232 289.728627 
L 133.07136 287.816487 
L 133.1904 287.962368 
L 133.30944 289.655687 
L 133.42848 287.962368 
L 133.54752 287.962368 
L 133.66656 289.801567 
L 133.7856 286.06243 
L 133.90464 289.874508 
L 134.02368 289.801567 
L 134.14272 288.181189 
L 134.49984 288.254129 
L 134.61888 289.947448 
L 134.73792 289.947448 
L 134.85696 286.354192 
L 134.976 291.516494 
L 135.09504 288.181189 
L 135.21408 289.947448 
L 135.33312 289.874508 
L 135.45216 288.108249 
L 135.5712 289.947448 
L 135.69024 288.108249 
L 135.80928 288.108249 
L 135.92832 289.874508 
L 136.04736 286.06243 
L 136.28544 289.728627 
L 136.40448 288.035308 
L 136.52352 288.108249 
L 136.64256 289.874508 
L 136.7616 286.208311 
L 136.99968 289.801567 
L 137.11872 286.208311 
L 137.23776 289.801567 
L 137.3568 288.108249 
L 137.59488 291.443554 
L 137.83296 288.035308 
L 137.952 289.728627 
L 138.07104 286.208311 
L 138.19008 289.947448 
L 138.30912 288.035308 
L 138.42816 288.108249 
L 138.5472 289.801567 
L 138.66624 286.135371 
L 138.78528 288.108249 
L 139.02336 287.743547 
L 139.1424 289.582746 
L 139.26144 289.436866 
L 139.38048 285.843609 
L 139.49952 287.743547 
L 139.61856 287.670606 
L 139.7376 287.743547 
L 139.85664 291.078852 
L 139.97568 285.697728 
L 140.09472 285.770669 
L 140.21376 289.436866 
L 140.3328 285.770669 
L 140.57088 289.290985 
L 140.68992 285.551847 
L 140.80896 289.290985 
L 140.928 287.524726 
L 141.04704 283.653995 
L 141.16608 289.218044 
L 141.28512 287.451785 
L 141.40416 287.597666 
L 141.5232 289.290985 
L 141.76128 283.653995 
L 141.88032 289.290985 
L 141.99936 287.597666 
L 142.1184 289.290985 
L 142.35648 285.770669 
L 142.47552 289.363925 
L 142.59456 287.524726 
L 142.7136 287.597666 
L 142.95168 287.524726 
L 143.07072 287.743547 
L 143.18976 287.670606 
L 143.42784 287.743547 
L 143.54688 287.670606 
L 143.66592 285.697728 
L 143.78496 289.290985 
L 144.02304 285.697728 
L 144.14208 289.363925 
L 144.26112 287.597666 
L 144.38016 289.363925 
L 144.4992 289.363925 
L 144.73728 283.653995 
L 144.85632 287.524726 
L 144.97536 287.597666 
L 145.0944 289.145104 
L 145.21344 287.305904 
L 145.45152 287.451785 
L 145.80864 287.451785 
L 145.92768 285.624788 
L 146.04672 287.743547 
L 146.16576 283.726935 
L 146.40384 289.363925 
L 146.52288 289.218044 
L 146.64192 287.451785 
L 146.76096 290.932971 
L 146.88 287.524726 
L 146.99904 287.524726 
L 147.11808 289.218044 
L 147.23712 285.624788 
L 147.4752 287.670606 
L 147.59424 283.872816 
L 147.83232 289.509806 
L 148.18944 285.770669 
L 148.30848 287.743547 
L 148.42752 287.670606 
L 148.54656 287.743547 
L 148.6656 289.509806 
L 148.78464 289.509806 
L 148.90368 287.816487 
L 149.02272 289.582746 
L 149.14176 287.743547 
L 149.2608 287.743547 
L 149.37984 289.509806 
L 149.49888 287.743547 
L 149.61792 287.816487 
L 149.856 287.670606 
L 149.97504 285.770669 
L 150.09408 287.524726 
L 150.4512 287.451785 
L 150.57024 285.624788 
L 150.68928 289.218044 
L 150.80832 283.508114 
L 151.0464 289.363925 
L 151.16544 285.770669 
L 151.28448 287.889427 
L 151.52256 287.816487 
L 151.6416 289.582746 
L 151.76064 287.670606 
L 151.87968 287.743547 
L 151.99872 291.078852 
L 152.11776 287.743547 
L 152.35584 291.297673 
L 152.47488 286.06243 
L 152.59392 288.035308 
L 152.71296 288.035308 
L 152.832 284.091637 
L 152.95104 287.962368 
L 153.07008 287.962368 
L 153.18912 286.06243 
L 153.30816 291.224733 
L 153.54624 287.743547 
L 153.66528 289.290985 
L 153.78432 287.451785 
L 153.90336 287.524726 
L 154.0224 287.451785 
L 154.26048 287.670606 
L 154.37952 287.597666 
L 154.49856 287.670606 
L 154.6176 287.597666 
L 154.85568 283.581054 
L 154.97472 289.218044 
L 155.09376 285.478907 
L 155.33184 289.072164 
L 155.45088 285.333026 
L 155.68896 289.072164 
L 155.808 287.305904 
L 156.04608 287.305904 
L 156.16512 285.551847 
L 156.28416 287.378845 
L 156.4032 285.478907 
L 156.52224 285.478907 
L 156.64128 289.072164 
L 156.76032 287.378845 
L 156.87936 287.451785 
L 156.9984 287.305904 
L 157.11744 285.405967 
L 157.23648 287.305904 
L 157.35552 287.160024 
L 157.47456 285.333026 
L 157.5936 287.232964 
L 157.83168 287.305904 
L 157.95072 288.999223 
L 158.06976 285.333026 
L 158.1888 287.305904 
L 158.30784 287.305904 
L 158.42688 283.362233 
L 158.54592 287.451785 
L 158.66496 287.378845 
L 158.784 285.551847 
L 158.90304 287.451785 
L 159.02208 287.451785 
L 159.14112 287.597666 
L 159.26016 289.290985 
L 159.49824 285.697728 
L 159.61728 290.932971 
L 159.73632 285.770669 
L 159.85536 287.670606 
L 160.09344 287.670606 
L 160.21248 291.151792 
L 160.45056 285.843609 
L 160.5696 289.436866 
L 160.68864 285.770669 
L 160.80768 287.816487 
L 160.92672 287.524726 
L 161.04576 287.597666 
L 161.1648 285.697728 
L 161.28384 289.363925 
L 161.40288 287.670606 
L 161.64096 287.597666 
L 161.76 287.670606 
L 161.87904 289.363925 
L 161.99808 283.726935 
L 162.11712 287.597666 
L 162.3552 287.597666 
L 162.47424 289.509806 
L 162.59328 289.436866 
L 162.71232 287.670606 
L 163.06944 287.670606 
L 163.18848 285.697728 
L 163.30752 287.743547 
L 163.42656 287.816487 
L 163.5456 289.582746 
L 163.66464 287.816487 
L 163.78368 287.889427 
L 163.90272 287.816487 
L 164.02176 285.916549 
L 164.1408 289.582746 
L 164.25984 287.743547 
L 164.37888 287.743547 
L 164.49792 289.509806 
L 164.61696 287.597666 
L 164.736 287.670606 
L 164.85504 290.932971 
L 164.97408 287.378845 
L 165.21216 287.014143 
L 165.3312 284.895384 
L 165.45024 286.357679 
L 165.68832 280.9552 
L 165.80736 285.352204 
L 166.04544 276.724658 
L 166.16448 275.338791 
L 166.5216 266.335353 
L 166.75968 246.114593 
L 166.99776 185.876004 
L 167.712 268.80619 
L 167.83104 273.588221 
L 167.95008 272.046272 
L 168.18816 278.257809 
L 168.3072 277.745823 
L 168.42624 284.914562 
L 168.54528 280.298737 
L 168.66432 281.174022 
L 168.78336 285.628275 
L 168.9024 281.976366 
L 169.02144 286.211799 
L 169.14048 286.284739 
L 169.25952 284.603622 
L 169.4976 288.48864 
L 169.61664 282.924591 
L 169.73568 286.868262 
L 169.97376 283.216352 
L 170.0928 287.160024 
L 170.21184 285.405967 
L 170.44992 289.218044 
L 170.56896 287.524726 
L 170.688 287.597666 
L 170.80704 289.290985 
L 170.92608 287.670606 
L 171.16416 287.670606 
L 171.2832 287.816487 
L 171.40224 291.224733 
L 171.52128 287.889427 
L 171.64032 287.889427 
L 171.75936 289.509806 
L 171.8784 287.816487 
L 172.11648 287.743547 
L 172.23552 285.916549 
L 172.35456 287.816487 
L 172.4736 287.743547 
L 172.59264 287.816487 
L 172.71168 287.670606 
L 172.83072 285.770669 
L 172.94976 289.436866 
L 173.0688 287.451785 
L 173.18784 287.451785 
L 173.30688 289.290985 
L 173.54496 285.624788 
L 173.664 289.363925 
L 173.78304 287.597666 
L 174.02112 287.670606 
L 174.14016 283.799876 
L 174.37824 289.509806 
L 174.49728 285.843609 
L 174.73536 289.436866 
L 174.8544 287.816487 
L 174.97344 289.582746 
L 175.09248 287.816487 
L 175.21152 287.816487 
L 175.33056 289.582746 
L 175.4496 287.962368 
L 175.56864 288.108249 
L 175.68768 288.035308 
L 175.80672 288.108249 
L 175.92576 289.947448 
L 176.0448 289.874508 
L 176.16384 288.108249 
L 176.52096 288.035308 
L 176.64 291.370613 
L 176.75904 287.962368 
L 176.87808 288.035308 
L 176.99712 289.801567 
L 177.11616 288.035308 
L 177.2352 287.962368 
L 177.35424 289.582746 
L 177.47328 285.916549 
L 177.59232 287.816487 
L 177.8304 287.816487 
L 177.94944 289.436866 
L 178.06848 287.670606 
L 178.18752 287.743547 
L 178.30656 287.670606 
L 178.4256 285.843609 
L 178.54464 287.743547 
L 178.66368 287.524726 
L 178.78272 287.597666 
L 179.13984 287.451785 
L 179.25888 289.218044 
L 179.37792 287.451785 
L 179.49696 289.290985 
L 179.616 287.597666 
L 179.73504 283.726935 
L 179.85408 287.670606 
L 179.97312 285.697728 
L 180.09216 285.770669 
L 180.33024 289.509806 
L 180.44928 287.743547 
L 180.56832 289.436866 
L 180.68736 289.436866 
L 180.8064 287.597666 
L 180.92544 287.597666 
L 181.04448 285.770669 
L 181.16352 289.509806 
L 181.28256 289.509806 
L 181.4016 287.816487 
L 181.52064 287.889427 
L 181.63968 287.816487 
L 181.75872 287.889427 
L 181.9968 287.743547 
L 182.11584 285.98949 
L 182.23488 289.582746 
L 182.35392 286.06243 
L 182.592 289.655687 
L 182.71104 287.889427 
L 182.83008 289.801567 
L 182.94912 288.035308 
L 183.06816 288.108249 
L 183.1872 291.516494 
L 183.30624 286.208311 
L 183.42528 289.947448 
L 183.54432 289.801567 
L 183.66336 287.962368 
L 183.7824 288.035308 
L 183.90144 291.224733 
L 184.02048 287.816487 
L 184.13952 289.582746 
L 184.25856 287.816487 
L 184.49664 287.743547 
L 184.73472 283.799876 
L 184.85376 289.436866 
L 184.9728 283.653995 
L 185.21088 289.218044 
L 185.32992 287.378845 
L 185.44896 287.378845 
L 185.568 289.145104 
L 185.68704 285.478907 
L 185.80608 289.145104 
L 186.04416 285.843609 
L 186.28224 287.889427 
L 186.40128 286.135371 
L 186.52032 289.728627 
L 186.63936 287.962368 
L 186.7584 288.035308 
L 186.87744 287.889427 
L 186.99648 287.962368 
L 187.11552 291.370613 
L 187.3536 288.035308 
L 187.47264 291.516494 
L 187.59168 287.962368 
L 187.71072 288.035308 
L 187.82976 289.728627 
L 187.9488 285.98949 
L 188.18688 289.655687 
L 188.30592 287.889427 
L 188.42496 287.816487 
L 188.544 289.509806 
L 188.66304 283.799876 
L 188.78208 287.597666 
L 188.90112 287.524726 
L 189.02016 285.697728 
L 189.1392 287.524726 
L 189.37728 287.524726 
L 189.49632 289.145104 
L 189.61536 287.378845 
L 189.7344 287.378845 
L 189.85344 287.160024 
L 189.97248 285.405967 
L 190.09152 288.999223 
L 190.3296 285.187146 
L 190.44864 286.868262 
L 190.56768 284.676563 
L 190.68672 286.284739 
L 190.80576 285.628275 
L 190.9248 280.9552 
L 191.04384 284.096527 
L 191.28192 278.694048 
L 191.40096 280.081318 
L 191.63904 272.74497 
L 191.75808 272.453209 
L 191.99616 253.775389 
L 192.23424 245.449575 
L 192.47232 260.552985 
L 192.59136 263.792092 
L 192.7104 272.015567 
L 192.82944 272.088507 
L 193.06752 279.278974 
L 193.18656 277.745823 
L 193.3056 278.475227 
L 193.42464 281.175424 
L 193.54368 279.934035 
L 193.78176 283.144815 
L 193.9008 281.538724 
L 194.01984 285.701216 
L 194.13888 285.847097 
L 194.25792 284.16598 
L 194.37696 286.138858 
L 194.496 282.268127 
L 194.73408 288.123939 
L 194.85312 282.414008 
L 194.97216 284.530682 
L 195.0912 284.457742 
L 195.21024 282.486949 
L 195.32928 286.43062 
L 195.44832 286.357679 
L 195.56736 284.530682 
L 195.6864 286.43062 
L 195.92448 282.632829 
L 196.04352 286.43062 
L 196.16256 282.559889 
L 196.40064 286.649441 
L 196.51968 284.895384 
L 196.63872 286.795322 
L 196.75776 286.649441 
L 196.8768 284.895384 
L 196.99584 286.722381 
L 197.11488 284.822444 
L 197.23392 284.968324 
L 197.472 286.941202 
L 197.59104 287.087083 
L 197.71008 287.014143 
L 197.82912 283.143412 
L 197.94816 288.926283 
L 198.0672 285.260086 
L 198.18624 285.333026 
L 198.30528 287.160024 
L 198.42432 285.260086 
L 198.6624 288.926283 
L 198.78144 285.260086 
L 199.01952 288.999223 
L 199.13856 287.451785 
L 199.2576 287.378845 
L 199.37664 285.405967 
L 199.49568 285.478907 
L 199.61472 287.378845 
L 199.73376 285.624788 
L 199.97184 289.145104 
L 200.09088 287.378845 
L 200.20992 289.145104 
L 200.32896 287.160024 
L 200.448 283.216352 
L 200.56704 287.232964 
L 200.68608 287.232964 
L 200.80512 288.999223 
L 201.16224 285.333026 
L 201.28128 287.087083 
L 201.40032 282.997531 
L 201.6384 288.634521 
L 201.75744 285.041265 
L 201.87648 285.114205 
L 201.99552 287.014143 
L 202.11456 285.187146 
L 202.2336 287.087083 
L 202.47168 283.362233 
L 202.59072 289.072164 
L 202.70976 285.551847 
L 202.8288 285.551847 
L 202.94784 289.072164 
L 203.06688 287.378845 
L 203.18592 290.932971 
L 203.424 285.551847 
L 203.54304 290.860031 
L 203.66208 287.524726 
L 203.78112 287.670606 
L 203.90016 287.524726 
L 204.0192 285.624788 
L 204.25728 289.363925 
L 204.37632 283.726935 
L 204.49536 287.597666 
L 204.85248 287.524726 
L 204.97152 285.478907 
L 205.09056 285.551847 
L 205.2096 289.145104 
L 205.32864 287.451785 
L 205.44768 289.218044 
L 205.56672 289.072164 
L 205.68576 287.451785 
L 205.92384 287.378845 
L 206.04288 283.435174 
L 206.16192 289.145104 
L 206.28096 285.478907 
L 206.4 287.451785 
L 206.51904 287.451785 
L 206.63808 285.478907 
L 206.75712 287.378845 
L 206.87616 287.305904 
L 206.9952 285.405967 
L 207.11424 287.305904 
L 207.23328 287.160024 
L 207.35232 285.405967 
L 207.5904 289.072164 
L 207.70944 285.478907 
L 207.82848 289.145104 
L 207.94752 287.305904 
L 208.1856 287.232964 
L 208.30464 283.289293 
L 208.42368 287.232964 
L 208.54272 287.232964 
L 208.66176 287.378845 
L 208.7808 289.218044 
L 208.89984 287.378845 
L 209.01888 283.581054 
L 209.13792 287.451785 
L 209.25696 285.478907 
L 209.376 285.478907 
L 209.49504 287.378845 
L 209.61408 287.451785 
L 209.73312 289.218044 
L 209.85216 289.218044 
L 209.9712 287.451785 
L 210.09024 289.145104 
L 210.32832 285.697728 
L 210.44736 287.597666 
L 210.5664 287.670606 
L 210.68544 285.916549 
L 210.80448 287.743547 
L 211.04256 287.743547 
L 211.28064 287.524726 
L 211.39968 289.218044 
L 211.51872 287.451785 
L 211.63776 287.597666 
L 211.7568 289.436866 
L 211.87584 285.770669 
L 212.11392 289.582746 
L 212.23296 283.872816 
L 212.352 287.962368 
L 212.59008 288.108249 
L 212.70912 289.874508 
L 212.82816 289.801567 
L 212.9472 288.181189 
L 213.06624 289.947448 
L 213.18528 288.254129 
L 213.30432 288.32707 
L 213.42336 291.662375 
L 213.5424 290.166269 
L 213.78048 290.093329 
L 213.89952 286.427132 
L 214.01856 291.735315 
L 214.25664 288.254129 
L 214.37568 289.947448 
L 214.49472 288.035308 
L 214.61376 288.108249 
L 214.7328 287.962368 
L 214.85184 285.843609 
L 215.08992 289.290985 
L 215.328 287.451785 
L 215.44704 287.305904 
L 215.56608 283.435174 
L 215.68512 289.072164 
L 215.80416 287.232964 
L 215.9232 283.362233 
L 216.04224 289.072164 
L 216.16128 283.362233 
L 216.28032 287.378845 
L 216.39936 287.305904 
L 216.5184 285.405967 
L 216.63744 289.072164 
L 216.87552 285.333026 
L 216.99456 288.926283 
L 217.23264 285.260086 
L 217.35168 288.780402 
L 217.47072 287.087083 
L 217.7088 287.232964 
L 217.82784 283.289293 
L 218.06592 287.160024 
L 218.18496 283.289293 
L 218.304 287.160024 
L 218.42304 285.187146 
L 218.54208 285.333026 
L 218.66112 290.495329 
L 218.8992 285.260086 
L 219.01824 287.087083 
L 219.37536 287.232964 
L 219.4944 285.478907 
L 219.61344 289.145104 
L 219.73248 285.478907 
L 219.85152 285.551847 
L 219.97056 290.71415 
L 220.0896 285.405967 
L 220.20864 285.624788 
L 220.32768 289.290985 
L 220.44672 285.697728 
L 220.56576 287.670606 
L 220.6848 287.670606 
L 220.80384 285.916549 
L 220.92288 287.743547 
L 221.04192 287.670606 
L 221.16096 287.743547 
L 221.28 291.005911 
L 221.39904 287.670606 
L 221.51808 289.509806 
L 221.63712 289.436866 
L 221.75616 287.670606 
L 221.8752 289.436866 
L 221.99424 287.670606 
L 222.11328 283.799876 
L 222.23232 287.816487 
L 222.58944 287.743547 
L 222.70848 287.670606 
L 222.82752 285.624788 
L 222.94656 287.451785 
L 223.18464 287.305904 
L 223.30368 289.072164 
L 223.42272 287.451785 
L 223.54176 289.290985 
L 223.77984 285.697728 
L 223.89888 285.697728 
L 224.01792 287.597666 
L 224.13696 285.770669 
L 224.256 287.743547 
L 224.49408 287.816487 
L 224.61312 289.509806 
L 224.73216 287.816487 
L 224.8512 289.582746 
L 224.97024 287.816487 
L 225.20832 288.035308 
L 225.32736 289.655687 
L 225.4464 288.035308 
L 225.56544 289.728627 
L 225.68448 287.962368 
L 225.80352 289.801567 
L 225.92256 289.655687 
L 226.0416 287.889427 
L 226.16064 289.582746 
L 226.27968 287.670606 
L 226.39872 283.726935 
L 226.51776 289.290985 
L 226.6368 285.405967 
L 226.87488 288.780402 
L 226.99392 284.895384 
L 227.11296 286.5765 
L 227.232 286.284739 
L 227.35104 282.341068 
L 227.47008 286.211799 
L 227.58912 282.195187 
L 227.70816 282.341068 
L 227.8272 284.311861 
L 228.06528 280.142655 
L 228.18432 282.195187 
L 228.30336 280.069715 
L 228.4224 286.211799 
L 228.54144 286.211799 
L 228.66048 284.457742 
L 228.77952 286.43062 
L 228.89856 286.43062 
L 229.13664 286.795322 
L 229.25568 285.041265 
L 229.37472 287.232964 
L 229.49376 287.232964 
L 229.73184 287.451785 
L 229.85088 289.218044 
L 229.96992 283.653995 
L 230.08896 289.363925 
L 230.208 289.290985 
L 230.32704 287.524726 
L 230.44608 289.290985 
L 230.56512 283.508114 
L 230.8032 289.290985 
L 230.92224 287.451785 
L 231.04128 289.218044 
L 231.27936 285.551847 
L 231.3984 287.524726 
L 231.51744 287.378845 
L 231.63648 283.508114 
L 231.75552 289.218044 
L 231.9936 285.843609 
L 232.11264 287.670606 
L 232.23168 287.597666 
L 232.35072 285.697728 
L 232.46976 290.932971 
L 232.5888 285.697728 
L 232.70784 289.509806 
L 232.82688 289.363925 
L 232.94592 287.743547 
L 233.06496 289.436866 
L 233.30304 285.843609 
L 233.42208 289.509806 
L 233.54112 285.843609 
L 233.7792 291.151792 
L 233.89824 283.872816 
L 234.01728 287.816487 
L 234.13632 287.670606 
L 234.25536 285.843609 
L 234.3744 289.436866 
L 234.49344 287.597666 
L 234.61248 287.743547 
L 234.73152 289.436866 
L 234.85056 287.670606 
L 234.9696 287.670606 
L 235.08864 289.218044 
L 235.20768 285.697728 
L 235.32672 289.363925 
L 235.5648 285.770669 
L 235.68384 289.436866 
L 235.92192 285.916549 
L 236.04096 287.743547 
L 236.16 285.770669 
L 236.27785 287.743547 
L 236.39689 287.670606 
L 236.63497 287.743547 
L 236.75401 289.509806 
L 236.87305 287.816487 
L 236.99209 291.151792 
L 237.23017 285.916549 
L 237.34921 289.582746 
L 237.46825 287.816487 
L 237.58729 287.889427 
L 237.70633 289.582746 
L 237.82537 287.816487 
L 237.94441 287.889427 
L 238.06345 287.816487 
L 238.18249 287.889427 
L 238.42057 287.743547 
L 238.53961 285.98949 
L 238.65865 289.582746 
L 238.77769 285.916549 
L 239.01577 289.582746 
L 239.13481 287.816487 
L 239.25385 289.655687 
L 239.37289 289.655687 
L 239.49193 285.98949 
L 239.61097 289.655687 
L 239.73001 287.889427 
L 239.84905 288.035308 
L 239.96809 289.728627 
L 240.08713 288.035308 
L 240.20617 288.108249 
L 240.32521 289.801567 
L 240.44425 288.035308 
L 240.80137 288.108249 
L 240.92041 289.874508 
L 241.03945 288.108249 
L 241.15849 288.181189 
L 241.27753 290.020389 
L 241.39657 288.181189 
L 241.51561 288.254129 
L 241.63465 289.947448 
L 241.75369 289.947448 
L 241.87273 288.181189 
L 241.99177 289.874508 
L 242.11081 288.181189 
L 242.34889 291.516494 
L 242.46793 286.281251 
L 242.58697 289.874508 
L 242.70601 288.108249 
L 242.94409 288.035308 
L 243.06313 286.06243 
L 243.18217 289.801567 
L 243.30121 289.655687 
L 243.42025 285.98949 
L 243.53929 289.655687 
L 243.65833 287.743547 
L 243.77737 287.889427 
L 244.13449 287.743547 
L 244.25353 289.509806 
L 244.37257 285.843609 
L 244.61065 289.290985 
L 244.72969 287.670606 
L 244.84873 289.509806 
L 245.08681 285.916549 
L 245.20585 287.889427 
L 245.32489 287.889427 
L 245.44393 286.06243 
L 245.56297 287.889427 
L 245.68201 285.98949 
L 245.92009 291.297673 
L 246.03913 287.962368 
L 246.15817 289.728627 
L 246.27721 289.655687 
L 246.39625 287.962368 
L 246.51529 289.801567 
L 246.75337 286.135371 
L 246.87241 291.443554 
L 246.99145 286.135371 
L 247.11049 289.728627 
L 247.22953 289.582746 
L 247.34857 285.916549 
L 247.58665 289.436866 
L 247.70569 285.843609 
L 247.82473 287.597666 
L 247.94377 287.597666 
L 248.06281 285.843609 
L 248.18185 287.597666 
L 248.41993 287.670606 
L 248.53897 289.290985 
L 248.65801 285.697728 
L 248.77705 289.436866 
L 248.89609 285.624788 
L 249.13417 289.436866 
L 249.25321 287.597666 
L 249.37225 287.816487 
L 249.49129 289.582746 
L 249.61033 285.916549 
L 249.84841 289.655687 
L 249.96745 286.06243 
L 250.20553 289.801567 
L 250.32457 286.208311 
L 250.44361 291.443554 
L 250.56265 287.962368 
L 250.68169 287.962368 
L 250.80073 291.297673 
L 250.91977 287.889427 
L 251.03881 288.035308 
L 251.15785 289.655687 
L 251.27689 287.889427 
L 251.39593 289.655687 
L 251.63401 285.916549 
L 251.75305 287.743547 
L 251.87209 287.670606 
L 251.99113 285.843609 
L 252.11017 291.151792 
L 252.22921 285.770669 
L 252.34825 285.843609 
L 252.46729 287.670606 
L 252.58633 285.770669 
L 252.82441 289.363925 
L 252.94345 285.843609 
L 253.18153 291.078852 
L 253.30057 285.843609 
L 253.41961 289.363925 
L 253.53865 287.597666 
L 253.65769 287.743547 
L 253.77673 287.670606 
L 253.89577 287.743547 
L 254.01481 289.582746 
L 254.25289 285.916549 
L 254.37193 287.743547 
L 254.49097 287.524726 
L 254.61001 285.697728 
L 254.72905 289.290985 
L 254.84809 285.624788 
L 255.08617 289.290985 
L 255.20521 287.524726 
L 255.44329 287.451785 
L 255.56233 285.624788 
L 255.68137 287.524726 
L 256.63369 287.451785 
L 256.75273 287.378845 
L 256.99081 287.524726 
L 257.10985 285.624788 
L 257.34793 289.363925 
L 257.46697 285.624788 
L 257.58601 287.524726 
L 257.70505 287.524726 
L 257.82409 285.624788 
L 258.06217 289.363925 
L 258.18121 287.524726 
L 258.30025 289.290985 
L 258.53833 285.770669 
L 258.65737 287.670606 
L 258.89545 287.743547 
L 259.01449 289.509806 
L 259.25257 286.06243 
L 259.37161 287.889427 
L 259.49065 287.889427 
L 259.60969 289.582746 
L 259.72873 289.436866 
L 259.84777 287.816487 
L 259.96681 287.816487 
L 260.08585 287.670606 
L 260.20489 287.743547 
L 260.32393 291.078852 
L 260.44297 287.597666 
L 260.68105 287.743547 
L 260.80009 283.945756 
L 260.91913 289.509806 
L 261.03817 287.597666 
L 261.15721 283.799876 
L 261.27625 289.509806 
L 261.51433 285.916549 
L 261.63337 289.436866 
L 261.75241 287.597666 
L 261.87145 291.078852 
L 261.99049 285.770669 
L 262.10953 285.916549 
L 262.22857 291.224733 
L 262.46665 285.916549 
L 262.58569 291.151792 
L 262.82377 285.843609 
L 262.94281 289.509806 
L 263.06185 287.670606 
L 263.18089 287.597666 
L 263.29993 289.436866 
L 263.41897 283.799876 
L 263.53801 287.597666 
L 263.65705 287.597666 
L 263.77609 285.770669 
L 264.01417 289.145104 
L 264.13321 285.551847 
L 264.25225 289.145104 
L 264.37129 287.232964 
L 264.49033 287.305904 
L 264.60937 287.232964 
L 264.96649 287.451785 
L 265.08553 283.653995 
L 265.20457 287.597666 
L 265.32361 287.451785 
L 265.44265 283.653995 
L 265.56169 289.290985 
L 265.79977 285.624788 
L 265.91881 290.932971 
L 266.03785 287.524726 
L 266.15689 289.290985 
L 266.39497 285.770669 
L 266.51401 289.509806 
L 266.63305 287.670606 
L 266.75209 287.816487 
L 266.99017 287.597666 
L 267.10921 287.670606 
L 267.34729 287.451785 
L 267.46633 287.524726 
L 267.58537 289.218044 
L 267.70441 285.624788 
L 267.82345 287.451785 
L 267.94249 285.478907 
L 268.06153 285.478907 
L 268.18057 287.378845 
L 268.29961 285.478907 
L 268.53769 290.78709 
L 268.65673 285.333026 
L 268.77577 287.232964 
L 268.89481 287.160024 
L 269.01385 285.333026 
L 269.13289 287.232964 
L 269.60905 287.305904 
L 269.72809 283.362233 
L 269.84713 287.160024 
L 270.20425 287.305904 
L 270.32329 285.405967 
L 270.44233 287.378845 
L 270.56137 287.305904 
L 270.68041 285.405967 
L 270.79945 287.305904 
L 270.91849 287.232964 
L 271.03753 287.378845 
L 271.15657 289.145104 
L 271.39465 285.551847 
L 271.51369 289.145104 
L 271.63273 285.551847 
L 271.75177 287.451785 
L 271.87081 287.378845 
L 271.98985 285.551847 
L 272.10889 287.597666 
L 272.34697 287.597666 
L 272.46601 289.290985 
L 272.58505 285.624788 
L 272.70409 287.597666 
L 272.82313 287.378845 
L 272.94217 285.551847 
L 273.18025 290.78709 
L 273.29929 287.451785 
L 273.41833 287.524726 
L 273.65641 287.378845 
L 273.77545 287.378845 
L 273.89449 283.508114 
L 274.01353 287.524726 
L 274.13257 287.524726 
L 274.25161 285.697728 
L 274.48969 289.436866 
L 274.60873 283.872816 
L 274.84681 289.582746 
L 274.96585 287.889427 
L 275.08489 289.655687 
L 275.20393 288.035308 
L 275.32297 288.108249 
L 275.44201 291.516494 
L 275.56105 289.947448 
L 275.68009 291.589435 
L 275.79913 288.035308 
L 275.91817 288.181189 
L 276.03721 289.947448 
L 276.15625 288.035308 
L 276.27529 288.035308 
L 276.39433 289.728627 
L 276.51337 287.889427 
L 276.63241 287.962368 
L 276.75145 287.889427 
L 276.87049 285.916549 
L 276.98953 287.670606 
L 277.10857 287.597666 
L 277.22761 285.697728 
L 277.34665 287.524726 
L 277.46569 287.378845 
L 277.58473 285.478907 
L 277.70377 289.072164 
L 277.82281 288.999223 
L 277.94185 287.305904 
L 278.06089 287.305904 
L 278.17993 285.478907 
L 278.29897 287.451785 
L 278.41801 287.305904 
L 278.53705 283.435174 
L 278.65609 287.378845 
L 278.77513 287.305904 
L 278.89417 285.478907 
L 279.01321 289.072164 
L 279.13225 287.087083 
L 279.25129 287.087083 
L 279.37033 288.999223 
L 279.48937 283.362233 
L 279.60841 287.378845 
L 279.72745 287.378845 
L 279.84649 285.697728 
L 279.96553 287.670606 
L 280.08457 287.670606 
L 280.20361 283.799876 
L 280.44169 291.005911 
L 280.56073 287.670606 
L 280.67977 289.290985 
L 280.79881 287.597666 
L 280.91785 289.363925 
L 281.03689 289.290985 
L 281.15593 287.597666 
L 281.39401 287.670606 
L 281.51305 285.98949 
L 281.63209 289.728627 
L 281.75113 285.843609 
L 281.87017 285.843609 
L 281.98921 287.670606 
L 282.10825 285.770669 
L 282.34633 289.290985 
L 282.46537 287.524726 
L 282.58441 289.363925 
L 282.70345 289.290985 
L 282.82249 285.697728 
L 282.94153 287.524726 
L 283.06057 287.524726 
L 283.17961 287.670606 
L 283.29865 289.436866 
L 283.41769 285.916549 
L 283.65577 289.582746 
L 283.77481 285.916549 
L 283.89385 287.816487 
L 284.01289 287.743547 
L 284.13193 285.916549 
L 284.25097 289.655687 
L 284.37001 287.816487 
L 284.48905 289.509806 
L 284.60809 289.436866 
L 284.72713 287.743547 
L 284.84617 287.743547 
L 284.96521 289.363925 
L 285.08425 287.670606 
L 285.20329 287.743547 
L 285.32233 289.436866 
L 285.44137 285.843609 
L 285.56041 285.843609 
L 285.67945 287.670606 
L 285.79849 287.743547 
L 285.91753 287.670606 
L 286.03657 285.697728 
L 286.27465 289.363925 
L 286.39369 285.770669 
L 286.63177 289.436866 
L 286.75081 285.770669 
L 286.86985 291.151792 
L 287.10793 285.770669 
L 287.22697 289.436866 
L 287.34601 287.670606 
L 287.46505 289.509806 
L 287.58409 289.436866 
L 287.82217 285.98949 
L 287.94121 287.889427 
L 288.06025 286.06243 
L 288.17929 287.962368 
L 288.29833 287.962368 
L 288.41737 286.208311 
L 288.53641 289.801567 
L 288.65545 288.035308 
L 288.77449 288.035308 
L 288.89353 291.297673 
L 289.13161 288.108249 
L 289.25065 291.516494 
L 289.36969 288.108249 
L 289.48873 289.801567 
L 289.60777 287.962368 
L 289.72681 288.035308 
L 289.845969 289.728627 
L 289.965009 285.98949 
L 290.203089 291.151792 
L 290.441169 285.770669 
L 290.679249 285.551847 
L 290.798289 287.378845 
L 290.917329 287.378845 
L 291.036369 285.551847 
L 291.155409 289.072164 
L 291.274449 285.405967 
L 291.393489 285.405967 
L 291.512529 288.853342 
L 291.631569 285.041265 
L 291.750609 287.087083 
L 291.869649 287.014143 
L 291.988689 287.087083 
L 292.107729 288.999223 
L 292.226769 285.260086 
L 292.345809 285.405967 
L 292.464849 287.378845 
L 292.702929 283.508114 
L 292.821969 289.218044 
L 292.941009 283.508114 
L 293.179089 290.932971 
L 293.298129 285.697728 
L 293.536209 291.005911 
L 293.655249 283.799876 
L 293.774289 289.509806 
L 293.893329 289.509806 
L 294.012369 285.98949 
L 294.131409 289.509806 
L 294.250449 287.889427 
L 294.369489 289.655687 
L 294.488529 287.597666 
L 294.607569 287.670606 
L 294.726609 289.436866 
L 294.964689 285.843609 
L 295.083729 287.670606 
L 295.202786 285.697728 
L 295.321826 287.670606 
L 295.440866 287.597666 
L 295.559906 283.581054 
L 295.797986 289.290985 
L 295.917026 285.551847 
L 296.036066 290.78709 
L 296.155106 287.305904 
L 296.393169 287.378845 
L 296.512209 287.378845 
L 296.631249 285.478907 
L 296.750289 289.145104 
L 296.988369 285.697728 
L 297.107409 287.524726 
L 297.226449 285.697728 
L 297.345489 287.597666 
L 297.464529 287.597666 
L 297.583569 285.697728 
L 297.702609 287.743547 
L 297.940689 287.816487 
L 298.059729 289.509806 
L 298.178769 287.670606 
L 298.297809 287.816487 
L 298.416849 291.297673 
L 298.535889 287.816487 
L 298.654929 287.889427 
L 298.773969 291.151792 
L 298.893009 287.816487 
L 299.131089 287.743547 
L 299.250129 285.916549 
L 299.369169 289.509806 
L 299.488209 289.436866 
L 299.607249 283.872816 
L 299.726289 289.436866 
L 299.845329 283.726935 
L 299.964369 287.670606 
L 300.083409 287.378845 
L 300.202449 285.405967 
L 300.321489 289.072164 
L 300.559569 285.551847 
L 300.678609 290.71415 
L 300.797649 287.160024 
L 300.916689 287.232964 
L 301.035729 287.160024 
L 301.154769 283.362233 
L 301.392849 287.305904 
L 301.511889 287.378845 
L 301.630929 288.999223 
L 301.74985 285.187146 
L 301.86889 285.187146 
L 301.98793 284.968324 
L 302.10697 286.722381 
L 302.22601 286.5765 
L 302.34505 288.123939 
L 302.46409 284.384801 
L 302.58313 286.211799 
L 302.82121 281.392843 
L 302.94025 282.853053 
L 303.05929 282.123649 
L 303.41641 275.547411 
L 303.53545 274.672126 
L 303.65449 275.849373 
L 303.77353 265.203741 
L 303.89257 264.547277 
L 304.01161 261.020357 
L 304.13065 246.333414 
L 304.24969 253.50017 
L 304.48777 231.608174 
L 304.60681 240.927271 
L 304.72585 236.221459 
L 304.84489 240.78139 
L 304.96393 252.479005 
L 305.20201 252.916647 
L 305.44009 263.23435 
L 305.67817 269.608534 
L 305.79721 267.940042 
L 305.91625 273.578021 
L 306.03529 272.015567 
L 306.15433 272.817911 
L 306.27337 277.964645 
L 306.51145 274.349659 
L 306.63049 279.350512 
L 306.74953 277.516801 
L 306.86857 280.079916 
L 307.10665 280.517558 
L 307.34473 282.925994 
L 307.46377 278.975609 
L 307.70185 283.217755 
L 307.82089 283.509517 
L 307.93993 285.409454 
L 308.05897 281.611664 
L 308.17801 283.801278 
L 308.41609 284.020099 
L 308.53513 285.992977 
L 308.77321 279.923834 
L 308.89225 286.211799 
L 309.01129 282.341068 
L 309.24937 286.357679 
L 309.36841 284.530682 
L 309.48745 286.5765 
L 309.60649 286.5765 
L 309.72553 280.507357 
L 309.84457 286.722381 
L 309.96361 286.795322 
L 310.20169 287.014143 
L 310.32073 287.087083 
L 310.43977 285.333026 
L 310.55881 289.072164 
L 310.67785 285.478907 
L 310.91593 289.290985 
L 311.03497 285.843609 
L 311.15401 287.816487 
L 311.27305 287.816487 
L 311.39209 285.98949 
L 311.51113 289.728627 
L 311.63017 289.728627 
L 311.74921 288.108249 
L 311.86825 291.443554 
L 311.98729 288.035308 
L 312.10633 288.035308 
L 312.22537 289.728627 
L 312.34441 288.035308 
L 312.46345 289.874508 
L 312.58249 289.874508 
L 312.70153 288.254129 
L 312.82057 290.093329 
L 313.05865 286.500072 
L 313.17769 288.254129 
L 313.29673 288.254129 
L 313.41577 288.40001 
L 313.53481 290.093329 
L 313.65385 288.32707 
L 313.89193 291.589435 
L 314.01097 288.181189 
L 314.13001 291.589435 
L 314.24905 288.035308 
L 314.36809 288.108249 
L 314.48713 291.443554 
L 314.60617 287.962368 
L 314.72521 287.962368 
L 314.84425 289.655687 
L 314.96329 285.98949 
L 315.20137 289.582746 
L 315.32041 283.945756 
L 315.43945 287.743547 
L 315.55849 285.770669 
L 315.67753 285.770669 
L 315.79657 287.524726 
L 315.91561 287.451785 
L 316.03465 287.524726 
L 316.15369 290.71415 
L 316.27273 287.305904 
L 316.39177 289.072164 
L 316.62985 285.405967 
L 316.74889 287.305904 
L 316.86793 287.305904 
L 316.98697 285.405967 
L 317.10601 288.999223 
L 317.22505 283.289293 
L 317.46313 287.160024 
L 317.58217 285.260086 
L 317.70121 287.160024 
L 317.82025 287.160024 
L 317.93929 285.405967 
L 318.05833 285.405967 
L 318.17737 285.260086 
L 318.41545 288.853342 
L 318.53449 287.160024 
L 318.65353 287.305904 
L 318.77257 289.072164 
L 318.89161 287.378845 
L 319.01065 289.218044 
L 319.12969 287.378845 
L 319.24873 283.508114 
L 319.48681 287.524726 
L 319.60585 285.697728 
L 319.72489 289.290985 
L 319.84393 287.524726 
L 319.96297 287.597666 
L 320.08201 289.290985 
L 320.20105 285.624788 
L 320.32009 287.597666 
L 320.43913 285.697728 
L 320.67721 289.728627 
L 320.79625 287.889427 
L 320.91529 287.962368 
L 321.03433 289.655687 
L 321.15337 287.889427 
L 321.27241 287.889427 
L 321.39145 291.151792 
L 321.51049 287.816487 
L 321.62953 289.655687 
L 321.74857 289.728627 
L 321.86761 286.06243 
L 321.98665 287.889427 
L 322.34377 287.889427 
L 322.46281 285.916549 
L 322.70089 289.509806 
L 322.81993 287.743547 
L 323.29609 287.816487 
L 323.41513 289.509806 
L 323.53417 285.843609 
L 323.65321 289.436866 
L 323.77225 287.597666 
L 323.89129 287.743547 
L 324.01033 289.436866 
L 324.12937 287.597666 
L 324.24841 287.670606 
L 324.36745 289.363925 
L 324.48649 285.697728 
L 324.60553 287.670606 
L 324.84361 283.581054 
L 324.96265 290.932971 
L 325.20073 285.624788 
L 325.31977 289.218044 
L 325.43881 285.551847 
L 325.67689 289.218044 
L 325.79593 285.478907 
L 325.91497 285.478907 
L 326.03401 289.145104 
L 326.15305 285.624788 
L 326.27209 289.145104 
L 326.39113 287.232964 
L 326.51017 287.305904 
L 326.62921 288.999223 
L 326.74825 287.305904 
L 326.86729 283.362233 
L 326.98633 287.160024 
L 327.10537 285.260086 
L 327.22441 287.305904 
L 327.34345 287.087083 
L 327.46249 283.216352 
L 327.58153 287.160024 
L 327.81961 287.014143 
L 327.93865 286.941202 
L 328.05769 284.895384 
L 328.17673 285.041265 
L 328.29577 288.634521 
L 328.41481 282.924591 
L 328.65289 288.634521 
L 328.77193 283.070472 
L 328.89097 287.014143 
L 329.01001 286.941202 
L 329.12905 283.070472 
L 329.24809 286.941202 
L 329.36713 284.968324 
L 329.48617 285.041265 
L 329.60521 286.868262 
L 329.84329 287.014143 
L 329.96233 286.941202 
L 330.08137 285.187146 
L 330.20041 288.853342 
L 330.43849 283.143412 
L 330.55753 287.087083 
L 330.67657 287.087083 
L 330.79561 285.333026 
L 330.91465 288.999223 
L 331.03369 287.160024 
L 331.15273 287.160024 
L 331.27177 287.014143 
L 331.39081 283.070472 
L 331.50985 287.014143 
L 331.62889 287.014143 
L 331.74793 285.260086 
L 331.86697 288.926283 
L 332.10505 285.187146 
L 332.22409 286.941202 
L 332.34313 282.85165 
L 332.58121 288.4157 
L 332.70025 284.822444 
L 332.81929 286.649441 
L 332.93833 286.43062 
L 333.05737 282.559889 
L 333.17641 286.43062 
L 333.41449 282.341068 
L 333.53353 284.311861 
L 333.77161 284.23892 
L 333.89065 283.947159 
L 334.00969 279.632073 
L 334.12873 285.482395 
L 334.24777 285.044752 
L 334.36681 280.88226 
L 334.48585 282.34247 
L 334.60489 281.613067 
L 334.72393 276.495636 
L 334.84297 279.206034 
L 334.96201 272.921557 
L 335.08105 272.931758 
L 335.31913 259.44145 
L 335.43817 261.010705 
L 335.79529 225.481181 
L 336.27145 53.568 
L 336.50953 214.0187 
L 337.10473 266.138101 
L 337.22377 265.232111 
L 337.58089 276.141135 
L 338.17609 282.998934 
L 338.29513 281.392843 
L 338.41417 283.655397 
L 338.53321 281.757545 
L 338.77129 285.992977 
L 338.89033 285.992977 
L 339.00937 284.23892 
L 339.12841 284.23892 
L 339.36649 284.530682 
L 339.48553 286.43062 
L 339.60457 282.632829 
L 339.72361 286.722381 
L 339.96169 283.070472 
L 340.08073 287.014143 
L 340.19977 285.114205 
L 340.43785 288.926283 
L 340.55689 285.333026 
L 340.79497 288.999223 
L 340.91401 287.378845 
L 341.03305 289.218044 
L 341.15209 287.524726 
L 341.27113 287.743547 
L 341.39017 289.509806 
L 341.50921 285.843609 
L 341.62825 287.816487 
L 341.74729 287.743547 
L 341.86633 285.843609 
L 342.10441 289.436866 
L 342.22345 287.743547 
L 342.34249 289.436866 
L 342.58057 285.770669 
L 342.69961 289.363925 
L 342.93769 285.770669 
L 343.05673 287.670606 
L 343.17577 287.743547 
L 343.29481 289.582746 
L 343.53289 285.770669 
L 343.65193 289.363925 
L 343.89001 285.843609 
L 344.00905 289.436866 
L 344.12809 287.670606 
L 344.24713 287.743547 
L 344.36617 289.509806 
L 344.60425 285.916549 
L 344.72329 287.816487 
L 344.84233 287.889427 
L 344.96137 289.655687 
L 345.08041 287.889427 
L 345.31849 287.962368 
L 345.43753 287.962368 
L 345.55657 289.874508 
L 345.67561 289.801567 
L 345.79465 287.962368 
L 345.91369 288.108249 
L 346.03273 289.801567 
L 346.15177 288.035308 
L 346.27081 288.035308 
L 346.38985 289.801567 
L 346.50889 288.108249 
L 346.62793 291.516494 
L 346.86601 286.281251 
L 346.98505 289.874508 
L 347.10409 286.208311 
L 347.34217 289.801567 
L 347.46121 288.108249 
L 347.58025 289.874508 
L 347.69929 288.035308 
L 347.81833 289.728627 
L 347.93737 289.655687 
L 348.05641 287.743547 
L 348.17545 287.889427 
L 348.29449 287.816487 
L 348.41353 287.889427 
L 348.53257 289.655687 
L 348.65161 287.743547 
L 348.77065 287.743547 
L 348.88969 285.770669 
L 349.00873 289.436866 
L 349.12777 283.726935 
L 349.24681 289.436866 
L 349.36585 287.670606 
L 349.60393 287.597666 
L 349.72297 285.624788 
L 349.84201 287.597666 
L 350.08009 287.670606 
L 350.19913 289.509806 
L 350.31817 289.363925 
L 350.43721 287.816487 
L 350.55625 287.743547 
L 350.67529 285.697728 
L 350.79433 285.697728 
L 350.91337 290.860031 
L 351.03241 287.451785 
L 351.15145 289.290985 
L 351.38953 285.624788 
L 351.50857 289.290985 
L 351.62761 287.451785 
L 351.74665 283.508114 
L 351.86569 287.451785 
L 351.98473 283.435174 
L 352.22281 289.072164 
L 352.34185 287.232964 
L 352.46089 287.160024 
L 352.57993 288.926283 
L 352.69897 287.232964 
L 352.93705 287.232964 
L 353.05609 283.508114 
L 353.17513 287.451785 
L 353.29417 287.597666 
L 353.41321 285.770669 
L 353.53225 287.597666 
L 353.77033 287.451785 
L 353.88937 289.072164 
L 354.00841 287.305904 
L 354.12745 289.072164 
L 354.24649 287.232964 
L 354.48457 287.451785 
L 354.60361 287.378845 
L 354.72265 283.508114 
L 354.84169 287.451785 
L 354.96073 285.478907 
L 355.07977 287.378845 
L 355.19881 287.305904 
L 355.31904 285.405967 
L 355.43808 288.999223 
L 355.67616 285.405967 
L 355.7952 287.378845 
L 355.91424 287.378845 
L 356.03328 285.697728 
L 356.15232 287.670606 
L 356.3904 287.816487 
L 356.62848 287.743547 
L 356.74752 289.509806 
L 356.86656 289.436866 
L 356.9856 287.743547 
L 357.10464 289.509806 
L 357.22368 289.363925 
L 357.34272 287.670606 
L 357.46176 289.509806 
L 357.5808 285.697728 
L 357.69984 285.770669 
L 357.81888 289.436866 
L 357.93792 285.770669 
L 358.05696 287.670606 
L 358.176 287.597666 
L 358.29504 283.726935 
L 358.53312 289.290985 
L 358.65216 283.653995 
L 358.7712 289.290985 
L 358.89024 287.524726 
L 359.00928 287.670606 
L 359.12832 289.363925 
L 359.24736 287.597666 
L 359.3664 289.436866 
L 359.48544 287.597666 
L 359.60448 287.743547 
L 359.72352 289.509806 
L 359.9616 285.916549 
L 360.08064 289.582746 
L 360.31872 286.06243 
L 360.43776 289.655687 
L 360.5568 285.98949 
L 360.67584 287.816487 
L 361.03296 287.743547 
L 361.27104 289.655687 
L 361.39008 289.582746 
L 361.50912 287.816487 
L 361.62816 287.889427 
L 361.86624 287.743547 
L 362.22336 287.524726 
L 362.3424 289.290985 
L 362.46144 287.451785 
L 362.69952 287.378845 
L 362.81856 285.333026 
L 363.29472 285.333026 
L 363.41376 287.232964 
L 363.65184 287.160024 
L 363.77088 288.926283 
L 363.88992 283.216352 
L 364.00896 287.160024 
L 364.128 287.232964 
L 364.24704 285.478907 
L 364.36608 289.145104 
L 364.48512 287.451785 
L 364.7232 287.597666 
L 365.08032 287.597666 
L 365.19936 287.816487 
L 365.3184 289.655687 
L 365.43744 285.916549 
L 365.67552 289.582746 
L 365.79456 287.816487 
L 365.9136 287.816487 
L 366.03264 289.509806 
L 366.15168 287.743547 
L 366.27072 289.582746 
L 366.38976 289.509806 
L 366.5088 285.843609 
L 366.62784 287.816487 
L 366.98496 287.816487 
L 367.104 285.916549 
L 367.34208 289.509806 
L 367.46112 285.770669 
L 367.6992 291.078852 
L 367.81824 285.843609 
L 368.05632 289.363925 
L 368.17536 287.597666 
L 368.2944 289.363925 
L 368.41344 285.770669 
L 368.53248 285.843609 
L 368.65152 291.078852 
L 368.77056 287.743547 
L 368.8896 287.816487 
L 369.00864 287.597666 
L 369.12768 283.799876 
L 369.24672 287.743547 
L 369.4848 287.670606 
L 369.60384 289.363925 
L 369.72288 287.670606 
L 369.84192 287.816487 
L 369.96096 289.363925 
L 370.08 285.697728 
L 370.19904 289.436866 
L 370.31808 287.670606 
L 370.55616 287.889427 
L 370.79424 287.743547 
L 370.91328 289.509806 
L 371.03232 285.843609 
L 371.2704 289.436866 
L 371.38944 287.816487 
L 371.50848 287.889427 
L 371.62752 289.655687 
L 371.74656 283.945756 
L 371.98464 289.728627 
L 372.10368 288.035308 
L 372.34176 288.035308 
L 372.57984 291.516494 
L 372.69888 288.035308 
L 372.81792 288.181189 
L 372.93696 289.874508 
L 373.056 288.181189 
L 373.17504 290.020389 
L 373.29408 289.947448 
L 373.41312 286.281251 
L 373.53216 291.589435 
L 373.77024 286.281251 
L 373.88928 291.443554 
L 374.12736 286.135371 
L 374.2464 289.728627 
L 374.36544 288.035308 
L 374.48448 288.108249 
L 374.60352 288.035308 
L 374.72256 288.181189 
L 374.8416 289.801567 
L 375.07968 286.208311 
L 375.19872 289.728627 
L 375.31776 287.962368 
L 375.55584 291.516494 
L 375.67488 288.035308 
L 375.79392 289.874508 
L 376.032 286.208311 
L 376.15104 289.874508 
L 376.27008 288.108249 
L 376.38912 288.254129 
L 376.50816 293.042951 
L 376.6272 286.208311 
L 376.74624 286.135371 
L 376.86528 289.655687 
L 376.98432 285.916549 
L 377.10336 289.582746 
L 377.2224 289.582746 
L 377.34144 287.889427 
L 377.46048 289.728627 
L 377.57952 286.06243 
L 377.69856 287.962368 
L 377.93664 287.670606 
L 378.05568 285.843609 
L 378.17472 289.509806 
L 378.29376 287.743547 
L 378.4128 287.743547 
L 378.53184 291.005911 
L 378.65088 287.524726 
L 378.88896 287.451785 
L 379.008 283.581054 
L 379.24608 289.363925 
L 379.36512 285.843609 
L 379.48416 289.363925 
L 379.6032 285.624788 
L 379.72224 285.624788 
L 379.84128 287.378845 
L 379.96032 285.478907 
L 380.07936 289.145104 
L 380.1984 289.145104 
L 380.31744 287.524726 
L 380.43648 289.290985 
L 380.55552 285.551847 
L 380.67456 285.770669 
L 380.7936 287.597666 
L 381.03168 287.743547 
L 381.15072 287.670606 
L 381.3888 287.743547 
L 381.50784 287.670606 
L 381.62688 287.743547 
L 381.74592 291.078852 
L 381.86496 287.670606 
L 382.10304 287.816487 
L 382.22208 285.843609 
L 382.46016 289.436866 
L 382.5792 287.597666 
L 382.69824 289.436866 
L 382.93632 285.843609 
L 383.05536 289.363925 
L 383.29344 285.624788 
L 383.41248 287.524726 
L 383.53152 285.624788 
L 383.65056 285.697728 
L 383.7696 289.290985 
L 383.88864 289.290985 
L 384.00768 287.524726 
L 384.12672 287.524726 
L 384.24576 285.697728 
L 384.3648 287.597666 
L 384.48384 287.524726 
L 384.60288 285.697728 
L 384.72192 289.290985 
L 384.84096 287.597666 
L 384.96 287.743547 
L 385.07904 289.436866 
L 385.19808 287.597666 
L 385.31712 287.597666 
L 385.43616 289.218044 
L 385.5552 285.697728 
L 385.67424 287.670606 
L 385.79328 285.697728 
L 386.03136 289.363925 
L 386.1504 287.597666 
L 386.26944 287.597666 
L 386.38848 287.451785 
L 386.50752 283.508114 
L 386.62656 289.290985 
L 386.7456 289.072164 
L 386.86464 285.478907 
L 386.98368 287.451785 
L 387.10272 287.378845 
L 387.3408 287.524726 
L 387.45984 285.697728 
L 387.69792 289.509806 
L 387.81696 283.945756 
L 388.05504 289.436866 
L 388.17408 283.799876 
L 388.29312 291.151792 
L 388.41216 289.509806 
L 388.76928 289.436866 
L 389.1264 285.770669 
L 389.24544 287.743547 
L 389.36448 287.670606 
L 389.48352 287.816487 
L 389.60256 287.743547 
L 389.7216 285.697728 
L 389.84064 285.697728 
L 389.95968 287.524726 
L 390.07872 285.551847 
L 390.3168 289.363925 
L 390.43584 287.670606 
L 390.55488 287.743547 
L 390.67392 289.436866 
L 390.79296 285.770669 
L 390.912 289.436866 
L 391.03104 287.816487 
L 391.15008 287.962368 
L 391.26912 291.443554 
L 391.38816 288.108249 
L 391.5072 288.181189 
L 391.62624 289.874508 
L 391.74528 286.135371 
L 391.86432 288.108249 
L 391.98336 288.035308 
L 392.1024 289.874508 
L 392.22144 289.947448 
L 392.34048 289.874508 
L 392.45952 288.108249 
L 392.57856 289.874508 
L 392.81664 286.281251 
L 392.93568 289.874508 
L 393.05472 288.181189 
L 393.17376 288.254129 
L 393.2928 291.662375 
L 393.41184 286.281251 
L 393.64992 291.443554 
L 393.76896 288.035308 
L 393.888 289.728627 
L 394.00704 287.816487 
L 394.12608 288.035308 
L 394.24512 289.801567 
L 394.36416 288.035308 
L 394.4832 288.108249 
L 394.60224 289.728627 
L 394.72128 286.208311 
L 394.84032 288.181189 
L 394.95936 288.035308 
L 395.0784 284.091637 
L 395.19744 291.370613 
L 395.43552 287.889427 
L 395.55456 289.582746 
L 395.6736 287.816487 
L 395.79264 289.582746 
L 395.91168 289.436866 
L 396.03072 287.816487 
L 396.14976 287.889427 
L 396.2688 287.816487 
L 396.38784 286.06243 
L 396.50688 287.816487 
L 396.74496 287.670606 
L 396.864 287.597666 
L 396.98304 285.624788 
L 397.10208 289.218044 
L 397.22112 289.072164 
L 397.34016 285.405967 
L 397.4592 287.305904 
L 397.57824 287.305904 
L 397.69728 285.478907 
L 397.81632 287.451785 
L 397.93536 287.451785 
L 398.0544 285.624788 
L 398.17344 287.524726 
L 398.29248 285.624788 
L 398.41152 287.451785 
L 398.53056 287.378845 
L 398.76864 287.597666 
L 398.88768 289.290985 
L 399.00672 287.670606 
L 399.12576 289.436866 
L 399.36384 285.843609 
L 399.48288 287.670606 
L 399.72096 287.670606 
L 399.84 291.005911 
L 399.95904 285.697728 
L 400.07808 289.436866 
L 400.31616 285.697728 
L 400.4352 289.363925 
L 400.55424 285.624788 
L 400.67328 285.697728 
L 400.79232 287.670606 
L 400.91136 285.770669 
L 401.14944 289.290985 
L 401.26848 287.597666 
L 401.38752 287.670606 
L 401.50656 289.436866 
L 401.6256 285.916549 
L 401.86368 289.655687 
L 401.98272 288.035308 
L 402.10176 289.728627 
L 402.2208 286.135371 
L 402.45888 291.443554 
L 402.57792 288.035308 
L 402.69696 289.801567 
L 402.816 289.655687 
L 402.93504 287.962368 
L 403.05408 289.728627 
L 403.17312 285.98949 
L 403.4112 289.582746 
L 403.53024 287.816487 
L 403.64928 287.889427 
L 403.76832 287.743547 
L 403.88736 285.843609 
L 404.0064 287.743547 
L 404.36352 287.597666 
L 404.48256 287.670606 
L 404.6016 285.843609 
L 404.72064 289.436866 
L 404.83968 287.670606 
L 404.95872 287.743547 
L 405.07776 289.509806 
L 405.1968 287.816487 
L 405.55392 288.108249 
L 405.67296 289.947448 
L 405.792 288.254129 
L 405.91104 288.40001 
L 406.03008 290.166269 
L 406.14912 288.40001 
L 406.26816 288.472951 
L 406.3872 291.881196 
L 406.50624 290.166269 
L 407.10144 290.166269 
L 407.22048 288.40001 
L 407.33952 290.093329 
L 407.45856 290.020389 
L 407.5776 286.354192 
L 407.69664 288.108249 
L 407.93472 288.035308 
L 408.05376 289.728627 
L 408.1728 287.889427 
L 408.41088 287.743547 
L 408.52992 285.916549 
L 408.64896 287.816487 
L 408.768 287.670606 
L 408.88704 287.816487 
L 409.00608 289.582746 
L 409.12512 287.816487 
L 409.24416 287.889427 
L 409.48224 287.743547 
L 409.60128 289.582746 
L 409.72032 289.509806 
L 409.83936 285.916549 
L 409.9584 289.655687 
L 410.07744 287.889427 
L 410.19648 287.962368 
L 410.31552 289.655687 
L 410.5536 285.98949 
L 410.67264 289.655687 
L 410.79168 286.06243 
L 411.02976 289.582746 
L 411.1488 287.889427 
L 411.26784 289.582746 
L 411.50592 285.770669 
L 411.62496 289.363925 
L 411.744 287.524726 
L 411.86304 289.363925 
L 411.98208 287.524726 
L 412.22016 287.670606 
L 412.3392 287.597666 
L 412.45824 283.653995 
L 412.57728 287.670606 
L 412.69632 287.670606 
L 412.81536 285.98949 
L 412.9344 287.889427 
L 413.17248 287.962368 
L 413.29152 289.728627 
L 413.41056 287.962368 
L 413.5296 287.962368 
L 413.64864 291.297673 
L 413.76768 288.035308 
L 413.88672 291.443554 
L 414.1248 287.962368 
L 414.24384 291.370613 
L 414.36288 287.962368 
L 414.48192 288.035308 
L 414.60096 287.962368 
L 414.72 285.98949 
L 414.83904 287.889427 
L 414.83904 287.889427 
" style="fill:none;stroke:#1f77b4;stroke-linecap:square;stroke-width:0.5;"/>
   </g>
   <g id="patch_3">
    <path d="M 57.6 307.584 
L 57.6 41.472 
" style="fill:none;stroke:#000000;stroke-linecap:square;stroke-linejoin:miter;stroke-width:0.8;"/>
   </g>
   <g id="patch_4">
    <path d="M 414.72 307.584 
L 414.72 41.472 
" style="fill:none;stroke:#000000;stroke-linecap:square;stroke-linejoin:miter;stroke-width:0.8;"/>
   </g>
   <g id="patch_5">
    <path d="M 57.6 307.584 
L 414.72 307.584 
" style="fill:none;stroke:#000000;stroke-linecap:square;stroke-linejoin:miter;stroke-width:0.8;"/>
   </g>
   <g id="patch_6">
    <path d="M 57.6 41.472 
L 414.72 41.472 
" style="fill:none;stroke:#000000;stroke-linecap:square;stroke-linejoin:miter;stroke-width:0.8;"/>
   </g>
   <g id="text_19">
    <!-- Transmitted power, spatial coupling -->
    <defs>
     <path d="M -0.296875 72.90625 
L 61.375 72.90625 
L 61.375 64.59375 
L 35.5 64.59375 
L 35.5 0 
L 25.59375 0 
L 25.59375 64.59375 
L -0.296875 64.59375 
z
" id="DejaVuSans-54"/>
     <path d="M 41.109375 46.296875 
Q 39.59375 47.171875 37.8125 47.578125 
Q 36.03125 48 33.890625 48 
Q 26.265625 48 22.1875 43.046875 
Q 18.109375 38.09375 18.109375 28.8125 
L 18.109375 0 
L 9.078125 0 
L 9.078125 54.6875 
L 18.109375 54.6875 
L 18.109375 46.1875 
Q 20.953125 51.171875 25.484375 53.578125 
Q 30.03125 56 36.53125 56 
Q 37.453125 56 38.578125 55.875 
Q 39.703125 55.765625 41.0625 55.515625 
z
" id="DejaVuSans-72"/>
     <path d="M 54.890625 33.015625 
L 54.890625 0 
L 45.90625 0 
L 45.90625 32.71875 
Q 45.90625 40.484375 42.875 44.328125 
Q 39.84375 48.1875 33.796875 48.1875 
Q 26.515625 48.1875 22.3125 43.546875 
Q 18.109375 38.921875 18.109375 30.90625 
L 18.109375 0 
L 9.078125 0 
L 9.078125 54.6875 
L 18.109375 54.6875 
L 18.109375 46.1875 
Q 21.34375 51.125 25.703125 53.5625 
Q 30.078125 56 35.796875 56 
Q 45.21875 56 50.046875 50.171875 
Q 54.890625 44.34375 54.890625 33.015625 
z
" id="DejaVuSans-6e"/>
     <path d="M 45.40625 46.390625 
L 45.40625 75.984375 
L 54.390625 75.984375 
L 54.390625 0 
L 45.40625 0 
L 45.40625 8.203125 
Q 42.578125 3.328125 38.25 0.953125 
Q 33.9375 -1.421875 27.875 -1.421875 
Q 17.96875 -1.421875 11.734375 6.484375 
Q 5.515625 14.40625 5.515625 27.296875 
Q 5.515625 40.1875 11.734375 48.09375 
Q 17.96875 56 27.875 56 
Q 33.9375 56 38.25 53.625 
Q 42.578125 51.265625 45.40625 46.390625 
z
M 14.796875 27.296875 
Q 14.796875 17.390625 18.875 11.75 
Q 22.953125 6.109375 30.078125 6.109375 
Q 37.203125 6.109375 41.296875 11.75 
Q 45.40625 17.390625 45.40625 27.296875 
Q 45.40625 37.203125 41.296875 42.84375 
Q 37.203125 48.484375 30.078125 48.484375 
Q 22.953125 48.484375 18.875 42.84375 
Q 14.796875 37.203125 14.796875 27.296875 
z
" id="DejaVuSans-64"/>
     <path d="M 18.109375 8.203125 
L 18.109375 -20.796875 
L 9.078125 -20.796875 
L 9.078125 54.6875 
L 18.109375 54.6875 
L 18.109375 46.390625 
Q 20.953125 51.265625 25.265625 53.625 
Q 29.59375 56 35.59375 56 
Q 45.5625 56 51.78125 48.09375 
Q 58.015625 40.1875 58.015625 27.296875 
Q 58.015625 14.40625 51.78125 6.484375 
Q 45.5625 -1.421875 35.59375 -1.421875 
Q 29.59375 -1.421875 25.265625 0.953125 
Q 20.953125 3.328125 18.109375 8.203125 
z
M 48.6875 27.296875 
Q 48.6875 37.203125 44.609375 42.84375 
Q 40.53125 48.484375 33.40625 48.484375 
Q 26.265625 48.484375 22.1875 42.84375 
Q 18.109375 37.203125 18.109375 27.296875 
Q 18.109375 17.390625 22.1875 11.75 
Q 26.265625 6.109375 33.40625 6.109375 
Q 40.53125 6.109375 44.609375 11.75 
Q 48.6875 17.390625 48.6875 27.296875 
z
" id="DejaVuSans-70"/>
     <path d="M 30.609375 48.390625 
Q 23.390625 48.390625 19.1875 42.75 
Q 14.984375 37.109375 14.984375 27.296875 
Q 14.984375 17.484375 19.15625 11.84375 
Q 23.34375 6.203125 30.609375 6.203125 
Q 37.796875 6.203125 41.984375 11.859375 
Q 46.1875 17.53125 46.1875 27.296875 
Q 46.1875 37.015625 41.984375 42.703125 
Q 37.796875 48.390625 30.609375 48.390625 
z
M 30.609375 56 
Q 42.328125 56 49.015625 48.375 
Q 55.71875 40.765625 55.71875 27.296875 
Q 55.71875 13.875 49.015625 6.21875 
Q 42.328125 -1.421875 30.609375 -1.421875 
Q 18.84375 -1.421875 12.171875 6.21875 
Q 5.515625 13.875 5.515625 27.296875 
Q 5.515625 40.765625 12.171875 48.375 
Q 18.84375 56 30.609375 56 
z
" id="DejaVuSans-6f"/>
     <path d="M 4.203125 54.6875 
L 13.1875 54.6875 
L 24.421875 12.015625 
L 35.59375 54.6875 
L 46.1875 54.6875 
L 57.421875 12.015625 
L 68.609375 54.6875 
L 77.59375 54.6875 
L 63.28125 0 
L 52.6875 0 
L 40.921875 44.828125 
L 29.109375 0 
L 18.5 0 
z
" id="DejaVuSans-77"/>
     <path d="M 11.71875 12.40625 
L 22.015625 12.40625 
L 22.015625 4 
L 14.015625 -11.625 
L 7.71875 -11.625 
L 11.71875 4 
z
" id="DejaVuSans-2c"/>
     <path d="M 9.421875 75.984375 
L 18.40625 75.984375 
L 18.40625 0 
L 9.421875 0 
z
" id="DejaVuSans-6c"/>
     <path d="M 48.78125 52.59375 
L 48.78125 44.1875 
Q 44.96875 46.296875 41.140625 47.34375 
Q 37.3125 48.390625 33.40625 48.390625 
Q 24.65625 48.390625 19.8125 42.84375 
Q 14.984375 37.3125 14.984375 27.296875 
Q 14.984375 17.28125 19.8125 11.734375 
Q 24.65625 6.203125 33.40625 6.203125 
Q 37.3125 6.203125 41.140625 7.25 
Q 44.96875 8.296875 48.78125 10.40625 
L 48.78125 2.09375 
Q 45.015625 0.34375 40.984375 -0.53125 
Q 36.96875 -1.421875 32.421875 -1.421875 
Q 20.0625 -1.421875 12.78125 6.34375 
Q 5.515625 14.109375 5.515625 27.296875 
Q 5.515625 40.671875 12.859375 48.328125 
Q 20.21875 56 33.015625 56 
Q 37.15625 56 41.109375 55.140625 
Q 45.0625 54.296875 48.78125 52.59375 
z
" id="DejaVuSans-63"/>
     <path d="M 45.40625 27.984375 
Q 45.40625 37.75 41.375 43.109375 
Q 37.359375 48.484375 30.078125 48.484375 
Q 22.859375 48.484375 18.828125 43.109375 
Q 14.796875 37.75 14.796875 27.984375 
Q 14.796875 18.265625 18.828125 12.890625 
Q 22.859375 7.515625 30.078125 7.515625 
Q 37.359375 7.515625 41.375 12.890625 
Q 45.40625 18.265625 45.40625 27.984375 
z
M 54.390625 6.78125 
Q 54.390625 -7.171875 48.1875 -13.984375 
Q 42 -20.796875 29.203125 -20.796875 
Q 24.46875 -20.796875 20.265625 -20.09375 
Q 16.0625 -19.390625 12.109375 -17.921875 
L 12.109375 -9.1875 
Q 16.0625 -11.328125 19.921875 -12.34375 
Q 23.78125 -13.375 27.78125 -13.375 
Q 36.625 -13.375 41.015625 -8.765625 
Q 45.40625 -4.15625 45.40625 5.171875 
L 45.40625 9.625 
Q 42.625 4.78125 38.28125 2.390625 
Q 33.9375 0 27.875 0 
Q 17.828125 0 11.671875 7.65625 
Q 5.515625 15.328125 5.515625 27.984375 
Q 5.515625 40.671875 11.671875 48.328125 
Q 17.828125 56 27.875 56 
Q 33.9375 56 38.28125 53.609375 
Q 42.625 51.21875 45.40625 46.390625 
L 45.40625 54.6875 
L 54.390625 54.6875 
z
" id="DejaVuSans-67"/>
    </defs>
    <g transform="translate(128.045625 35.472)scale(0.12 -0.12)">
     <use xlink:href="#DejaVuSans-54"/>
     <use x="60.865234" xlink:href="#DejaVuSans-72"/>
     <use x="101.978516" xlink:href="#DejaVuSans-61"/>
     <use x="163.257812" xlink:href="#DejaVuSans-6e"/>
     <use x="226.636719" xlink:href="#DejaVuSans-73"/>
     <use x="278.736328" xlink:href="#DejaVuSans-6d"/>
     <use x="376.148438" xlink:href="#DejaVuSans-69"/>
     <use x="403.931641" xlink:href="#DejaVuSans-74"/>
     <use x="443.140625" xlink:href="#DejaVuSans-74"/>
     <use x="482.349609" xlink:href="#DejaVuSans-65"/>
     <use x="543.873047" xlink:href="#DejaVuSans-64"/>
     <use x="607.349609" xlink:href="#DejaVuSans-20"/>
     <use x="639.136719" xlink:href="#DejaVuSans-70"/>
     <use x="702.613281" xlink:href="#DejaVuSans-6f"/>
     <use x="763.794922" xlink:href="#DejaVuSans-77"/>
     <use x="845.582031" xlink:href="#DejaVuSans-65"/>
     <use x="907.105469" xlink:href="#DejaVuSans-72"/>
     <use x="948.21875" xlink:href="#DejaVuSans-2c"/>
     <use x="980.005859" xlink:href="#DejaVuSans-20"/>
     <use x="1011.792969" xlink:href="#DejaVuSans-73"/>
     <use x="1063.892578" xlink:href="#DejaVuSans-70"/>
     <use x="1127.369141" xlink:href="#DejaVuSans-61"/>
     <use x="1188.648438" xlink:href="#DejaVuSans-74"/>
     <use x="1227.857422" xlink:href="#DejaVuSans-69"/>
     <use x="1255.640625" xlink:href="#DejaVuSans-61"/>
     <use x="1316.919922" xlink:href="#DejaVuSans-6c"/>
     <use x="1344.703125" xlink:href="#DejaVuSans-20"/>
     <use x="1376.490234" xlink:href="#DejaVuSans-63"/>
     <use x="1431.470703" xlink:href="#DejaVuSans-6f"/>
     <use x="1492.652344" xlink:href="#DejaVuSans-75"/>
     <use x="1556.03125" xlink:href="#DejaVuSans-70"/>
     <use x="1619.507812" xlink:href="#DejaVuSans-6c"/>
     <use x="1647.291016" xlink:href="#DejaVuSans-69"/>
     <use x="1675.074219" xlink:href="#DejaVuSans-6e"/>
     <use x="1738.453125" xlink:href="#DejaVuSans-67"/>
    </g>
   </g>
  </g>
 </g>
 <defs>
  <clipPath id="pbba28715b7">
   <rect height="266.112" width="357.12" x="57.6" y="41.472"/>
  </clipPath>
 </defs>
</svg>
