<?xml version="1.0" encoding="UTF-8" standalone="no"?>
<!-- Created with matplotlib (http://matplotlib.org/) -->

<svg
   xmlns:dc="http://purl.org/dc/elements/1.1/"
   xmlns:cc="http://creativecommons.org/ns#"
   xmlns:rdf="http://www.w3.org/1999/02/22-rdf-syntax-ns#"
   xmlns:svg="http://www.w3.org/2000/svg"
   xmlns="http://www.w3.org/2000/svg"
   xmlns:xlink="http://www.w3.org/1999/xlink"
   xmlns:sodipodi="http://sodipodi.sourceforge.net/DTD/sodipodi-0.dtd"
   xmlns:inkscape="http://www.inkscape.org/namespaces/inkscape"
   height="345pt"
   version="1.1"
   viewBox="0 0 460 345"
   width="460pt"
   id="svg612"
   sodipodi:docname="currents.svg"
   inkscape:version="0.92.3 (2405546, 2018-03-11)">
  <metadata
     id="metadata616">
    <rdf:RDF>
      <cc:Work
         rdf:about="">
        <dc:format>image/svg+xml</dc:format>
        <dc:type
           rdf:resource="http://purl.org/dc/dcmitype/StillImage" />
      </cc:Work>
    </rdf:RDF>
  </metadata>
  <sodipodi:namedview
     pagecolor="#ffffff"
     bordercolor="#666666"
     borderopacity="1"
     objecttolerance="10"
     gridtolerance="10"
     guidetolerance="10"
     inkscape:pageopacity="0"
     inkscape:pageshadow="2"
     inkscape:window-width="1366"
     inkscape:window-height="720"
     id="namedview614"
     showgrid="false"
     inkscape:zoom="1.026087"
     inkscape:cx="390.88686"
     inkscape:cy="218.13559"
     inkscape:window-x="0"
     inkscape:window-y="24"
     inkscape:window-maximized="1"
     inkscape:current-layer="svg612" />
  <defs
     id="defs4">
    <style
       type="text/css"
       id="style2">
*{stroke-linecap:butt;stroke-linejoin:round;}
  </style>
  </defs>
  <g
     id="figure_1">
    <g
       id="patch_1">
      <path
         d="M 0 345.6  L 460.8 345.6  L 460.8 0  L 0 0  z "
         style="fill:#ffffff;"
         id="path6" />
    </g>
    <g
       id="axes_1">
      <g
         id="patch_2">
        <path
           d="M 57.6 307.584  L 414.72 307.584  L 414.72 41.472  L 57.6 41.472  z "
           style="fill:#ffffff;"
           id="path9" />
      </g>
      <g
         id="matplotlib.axis_1">
        <g
           id="xtick_1">
          <g
             id="line2d_1">
            <defs
               id="defs13">
              <path
                 d="M 0 0  L 0 3.5  "
                 id="m643b3a16a2"
                 style="stroke:#000000;stroke-width:0.8;" />
            </defs>
            <g
               id="g17">
              <use
                 style="stroke:#000000;stroke-width:0.8;"
                 x="57.6"
                 xlink:href="#m643b3a16a2"
                 y="307.584"
                 id="use15" />
            </g>
          </g>
          <g
             id="text_1">
            <!-- 1015.0 -->
            <defs
               id="defs24">
              <path
                 d="M 12.40625 8.296875  L 28.515625 8.296875  L 28.515625 63.921875  L 10.984375 60.40625  L 10.984375 69.390625  L 28.421875 72.90625  L 38.28125 72.90625  L 38.28125 8.296875  L 54.390625 8.296875  L 54.390625 0  L 12.40625 0  z "
                 id="DejaVuSans-31" />
              <path
                 d="M 31.78125 66.40625  Q 24.171875 66.40625 20.328125 58.90625  Q 16.5 51.421875 16.5 36.375  Q 16.5 21.390625 20.328125 13.890625  Q 24.171875 6.390625 31.78125 6.390625  Q 39.453125 6.390625 43.28125 13.890625  Q 47.125 21.390625 47.125 36.375  Q 47.125 51.421875 43.28125 58.90625  Q 39.453125 66.40625 31.78125 66.40625  z M 31.78125 74.21875  Q 44.046875 74.21875 50.515625 64.515625  Q 56.984375 54.828125 56.984375 36.375  Q 56.984375 17.96875 50.515625 8.265625  Q 44.046875 -1.421875 31.78125 -1.421875  Q 19.53125 -1.421875 13.0625 8.265625  Q 6.59375 17.96875 6.59375 36.375  Q 6.59375 54.828125 13.0625 64.515625  Q 19.53125 74.21875 31.78125 74.21875  z "
                 id="DejaVuSans-30" />
              <path
                 d="M 10.796875 72.90625  L 49.515625 72.90625  L 49.515625 64.59375  L 19.828125 64.59375  L 19.828125 46.734375  Q 21.96875 47.46875 24.109375 47.828125  Q 26.265625 48.1875 28.421875 48.1875  Q 40.625 48.1875 47.75 41.5  Q 54.890625 34.8125 54.890625 23.390625  Q 54.890625 11.625 47.5625 5.09375  Q 40.234375 -1.421875 26.90625 -1.421875  Q 22.3125 -1.421875 17.546875 -0.640625  Q 12.796875 0.140625 7.71875 1.703125  L 7.71875 11.625  Q 12.109375 9.234375 16.796875 8.0625  Q 21.484375 6.890625 26.703125 6.890625  Q 35.15625 6.890625 40.078125 11.328125  Q 45.015625 15.765625 45.015625 23.390625  Q 45.015625 31 40.078125 35.4375  Q 35.15625 39.890625 26.703125 39.890625  Q 22.75 39.890625 18.8125 39.015625  Q 14.890625 38.140625 10.796875 36.28125  z "
                 id="DejaVuSans-35" />
              <path
                 d="M 10.6875 12.40625  L 21 12.40625  L 21 0  L 10.6875 0  z "
                 id="DejaVuSans-2e" />
            </defs>
            <g
               transform="translate(40.104687 322.182437)scale(0.1 -0.1)"
               id="g38">
              <use
                 xlink:href="#DejaVuSans-31"
                 id="use26" />
              <use
                 x="63.623047"
                 xlink:href="#DejaVuSans-30"
                 id="use28" />
              <use
                 x="127.246094"
                 xlink:href="#DejaVuSans-31"
                 id="use30" />
              <use
                 x="190.869141"
                 xlink:href="#DejaVuSans-35"
                 id="use32" />
              <use
                 x="254.492188"
                 xlink:href="#DejaVuSans-2e"
                 id="use34" />
              <use
                 x="286.279297"
                 xlink:href="#DejaVuSans-30"
                 id="use36" />
            </g>
          </g>
        </g>
        <g
           id="xtick_2">
          <g
             id="line2d_2">
            <g
               id="g44">
              <use
                 style="stroke:#000000;stroke-width:0.8;"
                 x="102.24"
                 xlink:href="#m643b3a16a2"
                 y="307.584"
                 id="use42" />
            </g>
          </g>
          <g
             id="text_2">
            <!-- 1017.5 -->
            <defs
               id="defs48">
              <path
                 d="M 8.203125 72.90625  L 55.078125 72.90625  L 55.078125 68.703125  L 28.609375 0  L 18.3125 0  L 43.21875 64.59375  L 8.203125 64.59375  z "
                 id="DejaVuSans-37" />
            </defs>
            <g
               transform="translate(84.744688 322.182437)scale(0.1 -0.1)"
               id="g62">
              <use
                 xlink:href="#DejaVuSans-31"
                 id="use50" />
              <use
                 x="63.623047"
                 xlink:href="#DejaVuSans-30"
                 id="use52" />
              <use
                 x="127.246094"
                 xlink:href="#DejaVuSans-31"
                 id="use54" />
              <use
                 x="190.869141"
                 xlink:href="#DejaVuSans-37"
                 id="use56" />
              <use
                 x="254.492188"
                 xlink:href="#DejaVuSans-2e"
                 id="use58" />
              <use
                 x="286.279297"
                 xlink:href="#DejaVuSans-35"
                 id="use60" />
            </g>
          </g>
        </g>
        <g
           id="xtick_3">
          <g
             id="line2d_3">
            <g
               id="g68">
              <use
                 style="stroke:#000000;stroke-width:0.8;"
                 x="146.88"
                 xlink:href="#m643b3a16a2"
                 y="307.584"
                 id="use66" />
            </g>
          </g>
          <g
             id="text_3">
            <!-- 1020.0 -->
            <defs
               id="defs72">
              <path
                 d="M 19.1875 8.296875  L 53.609375 8.296875  L 53.609375 0  L 7.328125 0  L 7.328125 8.296875  Q 12.9375 14.109375 22.625 23.890625  Q 32.328125 33.6875 34.8125 36.53125  Q 39.546875 41.84375 41.421875 45.53125  Q 43.3125 49.21875 43.3125 52.78125  Q 43.3125 58.59375 39.234375 62.25  Q 35.15625 65.921875 28.609375 65.921875  Q 23.96875 65.921875 18.8125 64.3125  Q 13.671875 62.703125 7.8125 59.421875  L 7.8125 69.390625  Q 13.765625 71.78125 18.9375 73  Q 24.125 74.21875 28.421875 74.21875  Q 39.75 74.21875 46.484375 68.546875  Q 53.21875 62.890625 53.21875 53.421875  Q 53.21875 48.921875 51.53125 44.890625  Q 49.859375 40.875 45.40625 35.40625  Q 44.1875 33.984375 37.640625 27.21875  Q 31.109375 20.453125 19.1875 8.296875  z "
                 id="DejaVuSans-32" />
            </defs>
            <g
               transform="translate(129.384688 322.182437)scale(0.1 -0.1)"
               id="g86">
              <use
                 xlink:href="#DejaVuSans-31"
                 id="use74" />
              <use
                 x="63.623047"
                 xlink:href="#DejaVuSans-30"
                 id="use76" />
              <use
                 x="127.246094"
                 xlink:href="#DejaVuSans-32"
                 id="use78" />
              <use
                 x="190.869141"
                 xlink:href="#DejaVuSans-30"
                 id="use80" />
              <use
                 x="254.492188"
                 xlink:href="#DejaVuSans-2e"
                 id="use82" />
              <use
                 x="286.279297"
                 xlink:href="#DejaVuSans-30"
                 id="use84" />
            </g>
          </g>
        </g>
        <g
           id="xtick_4">
          <g
             id="line2d_4">
            <g
               id="g92">
              <use
                 style="stroke:#000000;stroke-width:0.8;"
                 x="191.52"
                 xlink:href="#m643b3a16a2"
                 y="307.584"
                 id="use90" />
            </g>
          </g>
          <g
             id="text_4">
            <!-- 1022.5 -->
            <g
               transform="translate(174.024688 322.182437)scale(0.1 -0.1)"
               id="g107">
              <use
                 xlink:href="#DejaVuSans-31"
                 id="use95" />
              <use
                 x="63.623047"
                 xlink:href="#DejaVuSans-30"
                 id="use97" />
              <use
                 x="127.246094"
                 xlink:href="#DejaVuSans-32"
                 id="use99" />
              <use
                 x="190.869141"
                 xlink:href="#DejaVuSans-32"
                 id="use101" />
              <use
                 x="254.492188"
                 xlink:href="#DejaVuSans-2e"
                 id="use103" />
              <use
                 x="286.279297"
                 xlink:href="#DejaVuSans-35"
                 id="use105" />
            </g>
          </g>
        </g>
        <g
           id="xtick_5">
          <g
             id="line2d_5">
            <g
               id="g113">
              <use
                 style="stroke:#000000;stroke-width:0.8;"
                 x="236.16"
                 xlink:href="#m643b3a16a2"
                 y="307.584"
                 id="use111" />
            </g>
          </g>
          <g
             id="text_5">
            <!-- 1025.0 -->
            <g
               transform="translate(218.664687 322.182437)scale(0.1 -0.1)"
               id="g128">
              <use
                 xlink:href="#DejaVuSans-31"
                 id="use116" />
              <use
                 x="63.623047"
                 xlink:href="#DejaVuSans-30"
                 id="use118" />
              <use
                 x="127.246094"
                 xlink:href="#DejaVuSans-32"
                 id="use120" />
              <use
                 x="190.869141"
                 xlink:href="#DejaVuSans-35"
                 id="use122" />
              <use
                 x="254.492188"
                 xlink:href="#DejaVuSans-2e"
                 id="use124" />
              <use
                 x="286.279297"
                 xlink:href="#DejaVuSans-30"
                 id="use126" />
            </g>
          </g>
        </g>
        <g
           id="xtick_6">
          <g
             id="line2d_6">
            <g
               id="g134">
              <use
                 style="stroke:#000000;stroke-width:0.8;"
                 x="280.8"
                 xlink:href="#m643b3a16a2"
                 y="307.584"
                 id="use132" />
            </g>
          </g>
          <g
             id="text_6">
            <!-- 1027.5 -->
            <g
               transform="translate(263.304687 322.182437)scale(0.1 -0.1)"
               id="g149">
              <use
                 xlink:href="#DejaVuSans-31"
                 id="use137" />
              <use
                 x="63.623047"
                 xlink:href="#DejaVuSans-30"
                 id="use139" />
              <use
                 x="127.246094"
                 xlink:href="#DejaVuSans-32"
                 id="use141" />
              <use
                 x="190.869141"
                 xlink:href="#DejaVuSans-37"
                 id="use143" />
              <use
                 x="254.492188"
                 xlink:href="#DejaVuSans-2e"
                 id="use145" />
              <use
                 x="286.279297"
                 xlink:href="#DejaVuSans-35"
                 id="use147" />
            </g>
          </g>
        </g>
        <g
           id="xtick_7">
          <g
             id="line2d_7">
            <g
               id="g155">
              <use
                 style="stroke:#000000;stroke-width:0.8;"
                 x="325.44"
                 xlink:href="#m643b3a16a2"
                 y="307.584"
                 id="use153" />
            </g>
          </g>
          <g
             id="text_7">
            <!-- 1030.0 -->
            <defs
               id="defs159">
              <path
                 d="M 40.578125 39.3125  Q 47.65625 37.796875 51.625 33  Q 55.609375 28.21875 55.609375 21.1875  Q 55.609375 10.40625 48.1875 4.484375  Q 40.765625 -1.421875 27.09375 -1.421875  Q 22.515625 -1.421875 17.65625 -0.515625  Q 12.796875 0.390625 7.625 2.203125  L 7.625 11.71875  Q 11.71875 9.328125 16.59375 8.109375  Q 21.484375 6.890625 26.8125 6.890625  Q 36.078125 6.890625 40.9375 10.546875  Q 45.796875 14.203125 45.796875 21.1875  Q 45.796875 27.640625 41.28125 31.265625  Q 36.765625 34.90625 28.71875 34.90625  L 20.21875 34.90625  L 20.21875 43.015625  L 29.109375 43.015625  Q 36.375 43.015625 40.234375 45.921875  Q 44.09375 48.828125 44.09375 54.296875  Q 44.09375 59.90625 40.109375 62.90625  Q 36.140625 65.921875 28.71875 65.921875  Q 24.65625 65.921875 20.015625 65.03125  Q 15.375 64.15625 9.8125 62.3125  L 9.8125 71.09375  Q 15.4375 72.65625 20.34375 73.4375  Q 25.25 74.21875 29.59375 74.21875  Q 40.828125 74.21875 47.359375 69.109375  Q 53.90625 64.015625 53.90625 55.328125  Q 53.90625 49.265625 50.4375 45.09375  Q 46.96875 40.921875 40.578125 39.3125  z "
                 id="DejaVuSans-33" />
            </defs>
            <g
               transform="translate(307.944687 322.182437)scale(0.1 -0.1)"
               id="g173">
              <use
                 xlink:href="#DejaVuSans-31"
                 id="use161" />
              <use
                 x="63.623047"
                 xlink:href="#DejaVuSans-30"
                 id="use163" />
              <use
                 x="127.246094"
                 xlink:href="#DejaVuSans-33"
                 id="use165" />
              <use
                 x="190.869141"
                 xlink:href="#DejaVuSans-30"
                 id="use167" />
              <use
                 x="254.492188"
                 xlink:href="#DejaVuSans-2e"
                 id="use169" />
              <use
                 x="286.279297"
                 xlink:href="#DejaVuSans-30"
                 id="use171" />
            </g>
          </g>
        </g>
        <g
           id="xtick_8">
          <g
             id="line2d_8">
            <g
               id="g179">
              <use
                 style="stroke:#000000;stroke-width:0.8;"
                 x="370.08"
                 xlink:href="#m643b3a16a2"
                 y="307.584"
                 id="use177" />
            </g>
          </g>
          <g
             id="text_8">
            <!-- 1032.5 -->
            <g
               transform="translate(352.584688 322.182437)scale(0.1 -0.1)"
               id="g194">
              <use
                 xlink:href="#DejaVuSans-31"
                 id="use182" />
              <use
                 x="63.623047"
                 xlink:href="#DejaVuSans-30"
                 id="use184" />
              <use
                 x="127.246094"
                 xlink:href="#DejaVuSans-33"
                 id="use186" />
              <use
                 x="190.869141"
                 xlink:href="#DejaVuSans-32"
                 id="use188" />
              <use
                 x="254.492188"
                 xlink:href="#DejaVuSans-2e"
                 id="use190" />
              <use
                 x="286.279297"
                 xlink:href="#DejaVuSans-35"
                 id="use192" />
            </g>
          </g>
        </g>
        <g
           id="xtick_9">
          <g
             id="line2d_9">
            <g
               id="g200">
              <use
                 style="stroke:#000000;stroke-width:0.8;"
                 x="414.72"
                 xlink:href="#m643b3a16a2"
                 y="307.584"
                 id="use198" />
            </g>
          </g>
          <g
             id="text_9">
            <!-- 1035.0 -->
            <g
               transform="translate(397.224688 322.182437)scale(0.1 -0.1)"
               id="g215">
              <use
                 xlink:href="#DejaVuSans-31"
                 id="use203" />
              <use
                 x="63.623047"
                 xlink:href="#DejaVuSans-30"
                 id="use205" />
              <use
                 x="127.246094"
                 xlink:href="#DejaVuSans-33"
                 id="use207" />
              <use
                 x="190.869141"
                 xlink:href="#DejaVuSans-35"
                 id="use209" />
              <use
                 x="254.492188"
                 xlink:href="#DejaVuSans-2e"
                 id="use211" />
              <use
                 x="286.279297"
                 xlink:href="#DejaVuSans-30"
                 id="use213" />
            </g>
          </g>
        </g>
        <g
           id="text_10">
          <!-- wavelength [nm] -->
          <defs
             id="defs232">
            <path
               d="M 4.203125 54.6875  L 13.1875 54.6875  L 24.421875 12.015625  L 35.59375 54.6875  L 46.1875 54.6875  L 57.421875 12.015625  L 68.609375 54.6875  L 77.59375 54.6875  L 63.28125 0  L 52.6875 0  L 40.921875 44.828125  L 29.109375 0  L 18.5 0  z "
               id="DejaVuSans-77" />
            <path
               d="M 34.28125 27.484375  Q 23.390625 27.484375 19.1875 25  Q 14.984375 22.515625 14.984375 16.5  Q 14.984375 11.71875 18.140625 8.90625  Q 21.296875 6.109375 26.703125 6.109375  Q 34.1875 6.109375 38.703125 11.40625  Q 43.21875 16.703125 43.21875 25.484375  L 43.21875 27.484375  z M 52.203125 31.203125  L 52.203125 0  L 43.21875 0  L 43.21875 8.296875  Q 40.140625 3.328125 35.546875 0.953125  Q 30.953125 -1.421875 24.3125 -1.421875  Q 15.921875 -1.421875 10.953125 3.296875  Q 6 8.015625 6 15.921875  Q 6 25.140625 12.171875 29.828125  Q 18.359375 34.515625 30.609375 34.515625  L 43.21875 34.515625  L 43.21875 35.40625  Q 43.21875 41.609375 39.140625 45  Q 35.0625 48.390625 27.6875 48.390625  Q 23 48.390625 18.546875 47.265625  Q 14.109375 46.140625 10.015625 43.890625  L 10.015625 52.203125  Q 14.9375 54.109375 19.578125 55.046875  Q 24.21875 56 28.609375 56  Q 40.484375 56 46.34375 49.84375  Q 52.203125 43.703125 52.203125 31.203125  z "
               id="DejaVuSans-61" />
            <path
               d="M 2.984375 54.6875  L 12.5 54.6875  L 29.59375 8.796875  L 46.6875 54.6875  L 56.203125 54.6875  L 35.6875 0  L 23.484375 0  z "
               id="DejaVuSans-76" />
            <path
               d="M 56.203125 29.59375  L 56.203125 25.203125  L 14.890625 25.203125  Q 15.484375 15.921875 20.484375 11.0625  Q 25.484375 6.203125 34.421875 6.203125  Q 39.59375 6.203125 44.453125 7.46875  Q 49.3125 8.734375 54.109375 11.28125  L 54.109375 2.78125  Q 49.265625 0.734375 44.1875 -0.34375  Q 39.109375 -1.421875 33.890625 -1.421875  Q 20.796875 -1.421875 13.15625 6.1875  Q 5.515625 13.8125 5.515625 26.8125  Q 5.515625 40.234375 12.765625 48.109375  Q 20.015625 56 32.328125 56  Q 43.359375 56 49.78125 48.890625  Q 56.203125 41.796875 56.203125 29.59375  z M 47.21875 32.234375  Q 47.125 39.59375 43.09375 43.984375  Q 39.0625 48.390625 32.421875 48.390625  Q 24.90625 48.390625 20.390625 44.140625  Q 15.875 39.890625 15.1875 32.171875  z "
               id="DejaVuSans-65" />
            <path
               d="M 9.421875 75.984375  L 18.40625 75.984375  L 18.40625 0  L 9.421875 0  z "
               id="DejaVuSans-6c" />
            <path
               d="M 54.890625 33.015625  L 54.890625 0  L 45.90625 0  L 45.90625 32.71875  Q 45.90625 40.484375 42.875 44.328125  Q 39.84375 48.1875 33.796875 48.1875  Q 26.515625 48.1875 22.3125 43.546875  Q 18.109375 38.921875 18.109375 30.90625  L 18.109375 0  L 9.078125 0  L 9.078125 54.6875  L 18.109375 54.6875  L 18.109375 46.1875  Q 21.34375 51.125 25.703125 53.5625  Q 30.078125 56 35.796875 56  Q 45.21875 56 50.046875 50.171875  Q 54.890625 44.34375 54.890625 33.015625  z "
               id="DejaVuSans-6e" />
            <path
               d="M 45.40625 27.984375  Q 45.40625 37.75 41.375 43.109375  Q 37.359375 48.484375 30.078125 48.484375  Q 22.859375 48.484375 18.828125 43.109375  Q 14.796875 37.75 14.796875 27.984375  Q 14.796875 18.265625 18.828125 12.890625  Q 22.859375 7.515625 30.078125 7.515625  Q 37.359375 7.515625 41.375 12.890625  Q 45.40625 18.265625 45.40625 27.984375  z M 54.390625 6.78125  Q 54.390625 -7.171875 48.1875 -13.984375  Q 42 -20.796875 29.203125 -20.796875  Q 24.46875 -20.796875 20.265625 -20.09375  Q 16.0625 -19.390625 12.109375 -17.921875  L 12.109375 -9.1875  Q 16.0625 -11.328125 19.921875 -12.34375  Q 23.78125 -13.375 27.78125 -13.375  Q 36.625 -13.375 41.015625 -8.765625  Q 45.40625 -4.15625 45.40625 5.171875  L 45.40625 9.625  Q 42.625 4.78125 38.28125 2.390625  Q 33.9375 0 27.875 0  Q 17.828125 0 11.671875 7.65625  Q 5.515625 15.328125 5.515625 27.984375  Q 5.515625 40.671875 11.671875 48.328125  Q 17.828125 56 27.875 56  Q 33.9375 56 38.28125 53.609375  Q 42.625 51.21875 45.40625 46.390625  L 45.40625 54.6875  L 54.390625 54.6875  z "
               id="DejaVuSans-67" />
            <path
               d="M 18.3125 70.21875  L 18.3125 54.6875  L 36.8125 54.6875  L 36.8125 47.703125  L 18.3125 47.703125  L 18.3125 18.015625  Q 18.3125 11.328125 20.140625 9.421875  Q 21.96875 7.515625 27.59375 7.515625  L 36.8125 7.515625  L 36.8125 0  L 27.59375 0  Q 17.1875 0 13.234375 3.875  Q 9.28125 7.765625 9.28125 18.015625  L 9.28125 47.703125  L 2.6875 47.703125  L 2.6875 54.6875  L 9.28125 54.6875  L 9.28125 70.21875  z "
               id="DejaVuSans-74" />
            <path
               d="M 54.890625 33.015625  L 54.890625 0  L 45.90625 0  L 45.90625 32.71875  Q 45.90625 40.484375 42.875 44.328125  Q 39.84375 48.1875 33.796875 48.1875  Q 26.515625 48.1875 22.3125 43.546875  Q 18.109375 38.921875 18.109375 30.90625  L 18.109375 0  L 9.078125 0  L 9.078125 75.984375  L 18.109375 75.984375  L 18.109375 46.1875  Q 21.34375 51.125 25.703125 53.5625  Q 30.078125 56 35.796875 56  Q 45.21875 56 50.046875 50.171875  Q 54.890625 44.34375 54.890625 33.015625  z "
               id="DejaVuSans-68" />
            <path
               id="DejaVuSans-20" />
            <path
               d="M 8.59375 75.984375  L 29.296875 75.984375  L 29.296875 69  L 17.578125 69  L 17.578125 -6.203125  L 29.296875 -6.203125  L 29.296875 -13.1875  L 8.59375 -13.1875  z "
               id="DejaVuSans-5b" />
            <path
               d="M 52 44.1875  Q 55.375 50.25 60.0625 53.125  Q 64.75 56 71.09375 56  Q 79.640625 56 84.28125 50.015625  Q 88.921875 44.046875 88.921875 33.015625  L 88.921875 0  L 79.890625 0  L 79.890625 32.71875  Q 79.890625 40.578125 77.09375 44.375  Q 74.3125 48.1875 68.609375 48.1875  Q 61.625 48.1875 57.5625 43.546875  Q 53.515625 38.921875 53.515625 30.90625  L 53.515625 0  L 44.484375 0  L 44.484375 32.71875  Q 44.484375 40.625 41.703125 44.40625  Q 38.921875 48.1875 33.109375 48.1875  Q 26.21875 48.1875 22.15625 43.53125  Q 18.109375 38.875 18.109375 30.90625  L 18.109375 0  L 9.078125 0  L 9.078125 54.6875  L 18.109375 54.6875  L 18.109375 46.1875  Q 21.1875 51.21875 25.484375 53.609375  Q 29.78125 56 35.6875 56  Q 41.65625 56 45.828125 52.96875  Q 50 49.953125 52 44.1875  z "
               id="DejaVuSans-6d" />
            <path
               d="M 30.421875 75.984375  L 30.421875 -13.1875  L 9.71875 -13.1875  L 9.71875 -6.203125  L 21.390625 -6.203125  L 21.390625 69  L 9.71875 69  L 9.71875 75.984375  z "
               id="DejaVuSans-5d" />
          </defs>
          <g
             transform="translate(193.50375 335.860562)scale(0.1 -0.1)"
             id="g264">
            <use
               xlink:href="#DejaVuSans-77"
               id="use234" />
            <use
               x="81.787109"
               xlink:href="#DejaVuSans-61"
               id="use236" />
            <use
               x="143.066406"
               xlink:href="#DejaVuSans-76"
               id="use238" />
            <use
               x="202.246094"
               xlink:href="#DejaVuSans-65"
               id="use240" />
            <use
               x="263.769531"
               xlink:href="#DejaVuSans-6c"
               id="use242" />
            <use
               x="291.552734"
               xlink:href="#DejaVuSans-65"
               id="use244" />
            <use
               x="353.076172"
               xlink:href="#DejaVuSans-6e"
               id="use246" />
            <use
               x="416.455078"
               xlink:href="#DejaVuSans-67"
               id="use248" />
            <use
               x="479.931641"
               xlink:href="#DejaVuSans-74"
               id="use250" />
            <use
               x="519.140625"
               xlink:href="#DejaVuSans-68"
               id="use252" />
            <use
               x="582.519531"
               xlink:href="#DejaVuSans-20"
               id="use254" />
            <use
               x="614.306641"
               xlink:href="#DejaVuSans-5b"
               id="use256" />
            <use
               x="653.320312"
               xlink:href="#DejaVuSans-6e"
               id="use258" />
            <use
               x="716.699219"
               xlink:href="#DejaVuSans-6d"
               id="use260" />
            <use
               x="814.111328"
               xlink:href="#DejaVuSans-5d"
               id="use262" />
          </g>
        </g>
      </g>
      <g
         id="matplotlib.axis_2">
        <g
           id="ytick_1">
          <g
             id="line2d_10">
            <defs
               id="defs269">
              <path
                 d="M 0 0  L -3.5 0  "
                 id="me2a2061e98"
                 style="stroke:#000000;stroke-width:0.8;" />
            </defs>
            <g
               id="g273">
              <use
                 style="stroke:#000000;stroke-width:0.8;"
                 x="57.6"
                 xlink:href="#me2a2061e98"
                 y="290.618765"
                 id="use271" />
            </g>
          </g>
          <g
             id="text_11">
            <!-- 0.0 -->
            <g
               transform="translate(34.696875 294.417983)scale(0.1 -0.1)"
               id="g282">
              <use
                 xlink:href="#DejaVuSans-30"
                 id="use276" />
              <use
                 x="63.623047"
                 xlink:href="#DejaVuSans-2e"
                 id="use278" />
              <use
                 x="95.410156"
                 xlink:href="#DejaVuSans-30"
                 id="use280" />
            </g>
          </g>
        </g>
        <g
           id="ytick_2">
          <g
             id="line2d_11">
            <g
               id="g288">
              <use
                 style="stroke:#000000;stroke-width:0.8;"
                 x="57.6"
                 xlink:href="#me2a2061e98"
                 y="232.975737"
                 id="use286" />
            </g>
          </g>
          <g
             id="text_12">
            <!-- 0.2 -->
            <g
               transform="translate(34.696875 236.774956)scale(0.1 -0.1)"
               id="g297">
              <use
                 xlink:href="#DejaVuSans-30"
                 id="use291" />
              <use
                 x="63.623047"
                 xlink:href="#DejaVuSans-2e"
                 id="use293" />
              <use
                 x="95.410156"
                 xlink:href="#DejaVuSans-32"
                 id="use295" />
            </g>
          </g>
        </g>
        <g
           id="ytick_3">
          <g
             id="line2d_12">
            <g
               id="g303">
              <use
                 style="stroke:#000000;stroke-width:0.8;"
                 x="57.6"
                 xlink:href="#me2a2061e98"
                 y="175.332709"
                 id="use301" />
            </g>
          </g>
          <g
             id="text_13">
            <!-- 0.4 -->
            <defs
               id="defs307">
              <path
                 d="M 37.796875 64.3125  L 12.890625 25.390625  L 37.796875 25.390625  z M 35.203125 72.90625  L 47.609375 72.90625  L 47.609375 25.390625  L 58.015625 25.390625  L 58.015625 17.1875  L 47.609375 17.1875  L 47.609375 0  L 37.796875 0  L 37.796875 17.1875  L 4.890625 17.1875  L 4.890625 26.703125  z "
                 id="DejaVuSans-34" />
            </defs>
            <g
               transform="translate(34.696875 179.131928)scale(0.1 -0.1)"
               id="g315">
              <use
                 xlink:href="#DejaVuSans-30"
                 id="use309" />
              <use
                 x="63.623047"
                 xlink:href="#DejaVuSans-2e"
                 id="use311" />
              <use
                 x="95.410156"
                 xlink:href="#DejaVuSans-34"
                 id="use313" />
            </g>
          </g>
        </g>
        <g
           id="ytick_4">
          <g
             id="line2d_13">
            <g
               id="g321">
              <use
                 style="stroke:#000000;stroke-width:0.8;"
                 x="57.6"
                 xlink:href="#me2a2061e98"
                 y="117.689681"
                 id="use319" />
            </g>
          </g>
          <g
             id="text_14">
            <!-- 0.6 -->
            <defs
               id="defs325">
              <path
                 d="M 33.015625 40.375  Q 26.375 40.375 22.484375 35.828125  Q 18.609375 31.296875 18.609375 23.390625  Q 18.609375 15.53125 22.484375 10.953125  Q 26.375 6.390625 33.015625 6.390625  Q 39.65625 6.390625 43.53125 10.953125  Q 47.40625 15.53125 47.40625 23.390625  Q 47.40625 31.296875 43.53125 35.828125  Q 39.65625 40.375 33.015625 40.375  z M 52.59375 71.296875  L 52.59375 62.3125  Q 48.875 64.0625 45.09375 64.984375  Q 41.3125 65.921875 37.59375 65.921875  Q 27.828125 65.921875 22.671875 59.328125  Q 17.53125 52.734375 16.796875 39.40625  Q 19.671875 43.65625 24.015625 45.921875  Q 28.375 48.1875 33.59375 48.1875  Q 44.578125 48.1875 50.953125 41.515625  Q 57.328125 34.859375 57.328125 23.390625  Q 57.328125 12.15625 50.6875 5.359375  Q 44.046875 -1.421875 33.015625 -1.421875  Q 20.359375 -1.421875 13.671875 8.265625  Q 6.984375 17.96875 6.984375 36.375  Q 6.984375 53.65625 15.1875 63.9375  Q 23.390625 74.21875 37.203125 74.21875  Q 40.921875 74.21875 44.703125 73.484375  Q 48.484375 72.75 52.59375 71.296875  z "
                 id="DejaVuSans-36" />
            </defs>
            <g
               transform="translate(34.696875 121.4889)scale(0.1 -0.1)"
               id="g333">
              <use
                 xlink:href="#DejaVuSans-30"
                 id="use327" />
              <use
                 x="63.623047"
                 xlink:href="#DejaVuSans-2e"
                 id="use329" />
              <use
                 x="95.410156"
                 xlink:href="#DejaVuSans-36"
                 id="use331" />
            </g>
          </g>
        </g>
        <g
           id="ytick_5">
          <g
             id="line2d_14">
            <g
               id="g339">
              <use
                 style="stroke:#000000;stroke-width:0.8;"
                 x="57.6"
                 xlink:href="#me2a2061e98"
                 y="60.046653"
                 id="use337" />
            </g>
          </g>
          <g
             id="text_15">
            <!-- 0.8 -->
            <defs
               id="defs343">
              <path
                 d="M 31.78125 34.625  Q 24.75 34.625 20.71875 30.859375  Q 16.703125 27.09375 16.703125 20.515625  Q 16.703125 13.921875 20.71875 10.15625  Q 24.75 6.390625 31.78125 6.390625  Q 38.8125 6.390625 42.859375 10.171875  Q 46.921875 13.96875 46.921875 20.515625  Q 46.921875 27.09375 42.890625 30.859375  Q 38.875 34.625 31.78125 34.625  z M 21.921875 38.8125  Q 15.578125 40.375 12.03125 44.71875  Q 8.5 49.078125 8.5 55.328125  Q 8.5 64.0625 14.71875 69.140625  Q 20.953125 74.21875 31.78125 74.21875  Q 42.671875 74.21875 48.875 69.140625  Q 55.078125 64.0625 55.078125 55.328125  Q 55.078125 49.078125 51.53125 44.71875  Q 48 40.375 41.703125 38.8125  Q 48.828125 37.15625 52.796875 32.3125  Q 56.78125 27.484375 56.78125 20.515625  Q 56.78125 9.90625 50.3125 4.234375  Q 43.84375 -1.421875 31.78125 -1.421875  Q 19.734375 -1.421875 13.25 4.234375  Q 6.78125 9.90625 6.78125 20.515625  Q 6.78125 27.484375 10.78125 32.3125  Q 14.796875 37.15625 21.921875 38.8125  z M 18.3125 54.390625  Q 18.3125 48.734375 21.84375 45.5625  Q 25.390625 42.390625 31.78125 42.390625  Q 38.140625 42.390625 41.71875 45.5625  Q 45.3125 48.734375 45.3125 54.390625  Q 45.3125 60.0625 41.71875 63.234375  Q 38.140625 66.40625 31.78125 66.40625  Q 25.390625 66.40625 21.84375 63.234375  Q 18.3125 60.0625 18.3125 54.390625  z "
                 id="DejaVuSans-38" />
            </defs>
            <g
               transform="translate(34.696875 63.845872)scale(0.1 -0.1)"
               id="g351">
              <use
                 xlink:href="#DejaVuSans-30"
                 id="use345" />
              <use
                 x="63.623047"
                 xlink:href="#DejaVuSans-2e"
                 id="use347" />
              <use
                 x="95.410156"
                 xlink:href="#DejaVuSans-38"
                 id="use349" />
            </g>
          </g>
        </g>
        <g
           id="text_16">
          <!-- a.u. -->
          <defs
             id="defs356">
            <path
               d="M 8.5 21.578125  L 8.5 54.6875  L 17.484375 54.6875  L 17.484375 21.921875  Q 17.484375 14.15625 20.5 10.265625  Q 23.53125 6.390625 29.59375 6.390625  Q 36.859375 6.390625 41.078125 11.03125  Q 45.3125 15.671875 45.3125 23.6875  L 45.3125 54.6875  L 54.296875 54.6875  L 54.296875 0  L 45.3125 0  L 45.3125 8.40625  Q 42.046875 3.421875 37.71875 1  Q 33.40625 -1.421875 27.6875 -1.421875  Q 18.265625 -1.421875 13.375 4.4375  Q 8.5 10.296875 8.5 21.578125  z M 31.109375 56  z "
               id="DejaVuSans-75" />
          </defs>
          <g
             transform="translate(28.617188 183.938937)rotate(-90)scale(0.1 -0.1)"
             id="g366">
            <use
               xlink:href="#DejaVuSans-61"
               id="use358" />
            <use
               x="61.279297"
               xlink:href="#DejaVuSans-2e"
               id="use360" />
            <use
               x="93.066406"
               xlink:href="#DejaVuSans-75"
               id="use362" />
            <use
               x="156.445312"
               xlink:href="#DejaVuSans-2e"
               id="use364" />
          </g>
        </g>
      </g>
      <g
         id="line2d_15">
        <path
           clip-path="url(#p5a5d463b4d)"
           d="M 56.623509 289.460666  L 60.93384 288.934897  L 65.245261 290.272038  L 69.556681 288.331236  L 73.868102 290.025381  L 78.179522 287.863885  L 82.490943 289.363301  L 86.803452 288.16247  L 91.114873 288.006687  L 95.426293 288.344218  L 99.738803 288.168961  L 104.051313 288.850514  L 108.36384 288.616839  L 112.67635 289.635922  L 116.98886 289.363301  L 121.301369 289.869598  L 125.614968 289.564522  L 129.927478 289.447684  L 134.241077 290.557641  L 138.553586 287.967741  L 142.867203 288.123524  L 147.180802 287.662665  L 151.494401 284.624887  L 155.808 278.08198  L 160.121599 267.949562  L 164.436287 254.584636  L 168.749886 240.025372  L 173.064592 229.633316  L 177.37928 218.657072  L 181.693968 202.5205  L 186.008656 186.688997  L 190.323344 172.915147  L 194.63805 158.790777  L 198.952739 142.634728  L 203.268516 122.493221  L 207.583204 109.803363  L 211.898981 94.880601  L 216.214777 84.839052  L 220.529465 84.475562  L 224.845242 81.561117  L 229.161019 88.168918  L 233.476797 106.460509  L 237.79477 118.248128  L 242.110548 126.212552  L 246.426325 133.540873  L 250.744281 141.375476  L 255.060076 158.323423  L 259.375853 173.726517  L 263.693809 186.176214  L 268.009586 201.326159  L 272.32756 214.730026  L 276.645516 229.438588  L 280.963472 241.323569  L 285.279249 251.60528  L 289.597223 258.161167  L 293.915178 261.822078  L 298.233134 267.034334  L 302.551108 270.487535  L 306.869064 273.8953  L 311.187019 275.95294  L 315.507171 279.34123  L 319.825127 281.015903  L 324.143083 284.767688  L 328.463235 286.481307  L 332.781191 287.286188  L 337.101325 288.181943  L 341.419281 288.233871  L 345.739433 287.390044  L 350.057389 286.90322  L 354.377523 288.324745  L 358.697675 289.097171  L 363.017809 288.818059  L 367.337961 288.130015  L 371.658095 288.766131  L 375.97823 288.831041  L 380.298382 288.233871  L 384.618516 289.759251  L 388.93865 288.370182  L 393.258802 289.291901  L 397.581115 288.500001  L 401.901249 287.889849  L 406.221401 288.02616  L 410.543714 290.174674  L 414.863866 290.057836  "
           style="fill:none;stroke:#1f77b4;stroke-linecap:square;stroke-width:2;"
           id="path370" />
      </g>
      <g
         id="line2d_16">
        <path
           clip-path="url(#p5a5d463b4d)"
           d="M 56.623509 291.018769  L 60.93384 291.155541  L 65.245261 291.754733  L 69.556681 289.533815  L 73.868102 291.676577  L 78.179522 289.937618  L 82.490943 291.422572  L 86.803452 290.25024  L 91.114873 290.25024  L 95.426293 290.289318  L 99.738803 289.6771  L 104.051313 290.093929  L 108.36384 289.892027  L 112.67635 289.879001  L 116.98886 289.21468  L 121.301369 289.768281  L 125.614968 289.507763  L 129.927478 289.14955  L 134.241077 290.009261  L 138.553586 287.169612  L 142.867203 287.527824  L 147.180802 286.843964  L 151.494401 282.64962  L 155.808 269.903764  L 160.121599 250.37141  L 164.436287 224.391225  L 168.749886 204.142443  L 173.064592 189.3385  L 177.37928 175.153273  L 181.693968 158.682008  L 186.008656 147.128023  L 190.323344 138.205271  L 194.63805 133.743894  L 198.952739 120.991539  L 203.268516 107.679047  L 207.583204 100.137054  L 211.898981 86.010451  L 216.214777 78.540076  L 220.529465 76.70995  L 224.845242 69.31774  L 229.161019 65.064779  L 233.476797 78.05161  L 237.79477 84.121693  L 242.110548 84.746938  L 246.426325 86.596614  L 250.744281 88.732852  L 255.060076 99.375029  L 259.375853 115.449005  L 263.693809 129.725409  L 268.009586 146.724223  L 272.32756 167.989028  L 276.645516 194.001771  L 280.963472 216.035103  L 285.279249 230.500381  L 289.597223 242.047851  L 293.915178 247.929051  L 298.233134 255.738085  L 302.551108 261.397844  L 306.869064 266.406308  L 311.187019 269.558578  L 315.507171 273.466352  L 319.825127 276.273436  L 324.143083 281.066971  L 328.463235 283.411636  L 332.781191 284.72074  L 337.101325 286.752782  L 341.419281 286.726731  L 345.739433 286.896067  L 350.057389 287.43013  L 354.377523 289.27981  L 358.697675 289.338426  L 363.017809 290.373986  L 367.337961 289.85295  L 371.658095 290.282805  L 375.97823 290.413064  L 380.298382 290.093929  L 384.618516 291.17508  L 388.93865 290.054851  L 393.258802 290.60194  L 397.581115 291.057846  L 401.901249 288.882519  L 406.221401 288.86298  L 410.543714 290.595427  L 414.863866 290.334908  "
           style="fill:none;stroke:#ff7f0e;stroke-linecap:square;stroke-width:2;"
           id="path373" />
      </g>
      <g
         id="line2d_17">
        <path
           clip-path="url(#p5a5d463b4d)"
           d="M 56.623509 290.420352  L 60.93384 289.249394  L 65.245261 290.322772  L 69.556681 288.57284  L 73.868102 290.160139  L 78.179522 288.000372  L 82.490943 289.294931  L 86.803452 288.911117  L 91.114873 289.607187  L 95.426293 289.8674  L 99.738803 289.099771  L 104.051313 290.147129  L 108.36384 289.997506  L 112.67635 289.906432  L 116.98886 289.522618  L 121.301369 289.561649  L 125.614968 289.3795  L 129.927478 289.125793  L 134.241077 289.457564  L 138.553586 286.913982  L 142.867203 286.751349  L 147.180802 285.352705  L 151.494401 278.203354  L 155.808 260.164089  L 160.121599 230.49981  L 164.436287 197.517815  L 168.749886 171.769739  L 173.064592 156.235028  L 177.37928 140.062797  L 181.693968 127.117196  L 186.008656 117.138024  L 190.323344 111.712581  L 194.63805 109.845555  L 198.952739 100.835688  L 203.268516 88.683737  L 207.583204 80.558587  L 211.898981 73.643437  L 216.214777 65.472745  L 220.529465 64.548981  L 224.845242 53.568  L 229.161019 53.984349  L 233.476797 65.837042  L 237.79477 70.312711  L 242.110548 67.495894  L 246.426325 67.606492  L 250.744281 68.146427  L 255.060076 75.673097  L 259.375853 87.363156  L 263.693809 96.242927  L 268.009586 110.84738  L 272.32756 131.098455  L 276.645516 165.843393  L 280.963472 197.621902  L 285.279249 216.41578  L 289.597223 229.172726  L 293.915178 237.597121  L 298.233134 246.535434  L 302.551108 252.826081  L 306.869064 258.967109  L 311.187019 263.748523  L 315.507171 268.868214  L 319.825127 272.634795  L 324.143083 277.884593  L 328.463235 281.007148  L 332.781191 283.264496  L 337.101325 285.320178  L 341.419281 286.47162  L 345.739433 285.970711  L 350.057389 287.089626  L 354.377523 287.824728  L 358.697675 288.390691  L 363.017809 288.637893  L 367.337961 287.714137  L 371.658095 289.190846  L 375.97823 288.956654  L 380.298382 288.67042  L 384.618516 288.885096  L 388.93865 289.034718  L 393.258802 289.093266  L 397.581115 289.704767  L 401.901249 288.156499  L 406.221401 289.112782  L 410.543714 290.706587  L 414.863866 290.719597  "
           style="fill:none;stroke:#2ca02c;stroke-linecap:square;stroke-width:2;"
           id="path376" />
      </g>
      <g
         id="line2d_18">
        <path
           clip-path="url(#p5a5d463b4d)"
           d="M 56.623509 288.875971  L 60.93384 288.953958  L 65.245261 289.623347  L 69.556681 287.985619  L 73.868102 290.643677  L 78.179522 288.778487  L 82.490943 290.767157  L 86.803452 289.655842  L 91.114873 290.227746  L 95.426293 290.598185  L 99.738803 289.155425  L 104.051313 289.863807  L 108.36384 289.753325  L 112.67635 289.824813  L 116.98886 288.414548  L 121.301369 289.090436  L 125.614968 289.415382  L 129.927478 288.427546  L 134.241077 288.921464  L 138.553586 286.835311  L 142.867203 286.438877  L 147.180802 283.923795  L 151.494401 276.943956  L 155.808 259.494359  L 160.121599 229.339375  L 164.436287 195.057582  L 168.749886 167.820605  L 173.064592 151.170378  L 177.37928 135.507985  L 181.693968 125.902575  L 186.008656 118.987734  L 190.323344 111.189035  L 194.63805 112.813753  L 198.952739 104.560138  L 203.268516 95.79959  L 207.583204 87.76042  L 211.898981 78.551466  L 216.214777 70.993221  L 220.529465 75.464475  L 224.845242 64.689264  L 229.161019 61.771246  L 233.476797 76.478309  L 237.79477 83.042218  L 242.110548 80.533626  L 246.426325 83.230689  L 250.744281 84.77092  L 255.060076 90.899411  L 259.375853 100.86874  L 263.693809 108.9534  L 268.009586 121.82776  L 272.32756 138.497485  L 276.645516 171.810943  L 280.963472 201.108072  L 285.279249 219.539006  L 289.597223 232.491349  L 293.915178 240.764475  L 298.233134 249.797972  L 302.551108 256.108422  L 306.869064 261.106091  L 311.187019 264.18008  L 315.507171 270.568516  L 319.825127 272.466201  L 324.143083 278.022777  L 328.463235 281.590683  L 332.781191 282.896966  L 337.101325 284.528194  L 341.419281 286.23741  L 345.739433 285.685002  L 350.057389 285.678503  L 354.377523 287.309732  L 358.697675 287.647675  L 363.017809 288.226079  L 367.337961 287.907632  L 371.658095 289.044943  L 375.97823 289.24641  L 380.298382 289.428379  L 384.618516 289.941794  L 388.93865 290.409716  L 393.258802 290.344727  L 397.581115 290.286237  L 401.901249 288.622513  L 406.221401 287.946626  L 410.543714 290.065273  L 414.863866 290.273239  "
           style="fill:none;stroke:#d62728;stroke-linecap:square;stroke-width:2;"
           id="path379" />
      </g>
      <g
         id="line2d_19">
        <path
           clip-path="url(#p5a5d463b4d)"
           d="M 56.623509 290.31786  L 60.93384 289.428133  L 65.245261 290.31786  L 69.556681 288.577373  L 73.868102 290.486713  L 78.179522 288.233172  L 82.490943 290.084063  L 86.803452 288.85663  L 91.114873 288.934562  L 95.426293 288.830652  L 99.738803 288.103285  L 104.051313 288.389036  L 108.36384 287.973397  L 112.67635 288.356564  L 116.98886 287.759084  L 121.301369 288.798181  L 125.614968 288.837147  L 129.927478 288.687776  L 134.241077 289.441122  L 138.553586 287.213558  L 142.867203 287.817533  L 147.180802 285.076915  L 151.494401 278.550088  L 155.808 260.424344  L 160.121599 232.498616  L 164.436287 199.507293  L 168.749886 173.361026  L 173.064592 154.131241  L 177.37928 139.363081  L 181.693968 128.907158  L 186.008656 121.178876  L 190.323344 117.886236  L 194.63805 116.048345  L 198.952739 107.222516  L 203.268516 97.474487  L 207.583204 91.460717  L 211.898981 83.745422  L 216.214777 75.75736  L 220.529465 74.107801  L 224.845242 64.535117  L 229.161019 61.508751  L 233.476797 78.595393  L 237.79477 86.362654  L 242.110548 87.122479  L 246.426325 89.85012  L 250.744281 95.233938  L 255.060076 107.047171  L 259.375853 116.476977  L 263.693809 126.257475  L 268.009586 141.499714  L 272.32756 157.729108  L 276.645516 187.570673  L 280.963472 212.573938  L 285.279249 226.9979  L 289.597223 239.233263  L 293.915178 246.16274  L 298.233134 252.975319  L 302.551108 260.060659  L 306.869064 263.807904  L 311.187019 267.892852  L 315.507171 271.276412  L 319.825127 273.257189  L 324.143083 278.920267  L 328.463235 283.329934  L 332.781191 284.161211  L 337.101325 285.966642  L 341.419281 286.44073  L 345.739433 286.252394  L 350.057389 286.180956  L 354.377523 288.330587  L 358.697675 288.765709  L 363.017809 288.895596  L 367.337961 288.363059  L 371.658095 289.317729  L 375.97823 289.668424  L 380.298382 288.557889  L 384.618516 289.324223  L 388.93865 289.174853  L 393.258802 289.376178  L 397.581115 288.941056  L 401.901249 287.570748  L 406.221401 286.895335  L 410.543714 288.428002  L 414.863866 288.746226  "
           style="fill:none;stroke:#9467bd;stroke-linecap:square;stroke-width:2;"
           id="path382" />
      </g>
      <g
         id="patch_3">
        <path
           d="M 57.6 307.584  L 57.6 41.472  "
           style="fill:none;stroke:#000000;stroke-linecap:square;stroke-linejoin:miter;stroke-width:0.8;"
           id="path385" />
      </g>
      <g
         id="patch_4">
        <path
           d="M 414.72 307.584  L 414.72 41.472  "
           style="fill:none;stroke:#000000;stroke-linecap:square;stroke-linejoin:miter;stroke-width:0.8;"
           id="path388" />
      </g>
      <g
         id="patch_5">
        <path
           d="M 57.6 307.584  L 414.72 307.584  "
           style="fill:none;stroke:#000000;stroke-linecap:square;stroke-linejoin:miter;stroke-width:0.8;"
           id="path391" />
      </g>
      <g
         id="patch_6">
        <path
           d="M 57.6 41.472  L 414.72 41.472  "
           style="fill:none;stroke:#000000;stroke-linecap:square;stroke-linejoin:miter;stroke-width:0.8;"
           id="path394" />
      </g>
      <g
         id="text_17">
        <!-- Transmitted spectra for various diode currents -->
        <defs
           id="defs406">
          <path
             d="M -0.296875 72.90625  L 61.375 72.90625  L 61.375 64.59375  L 35.5 64.59375  L 35.5 0  L 25.59375 0  L 25.59375 64.59375  L -0.296875 64.59375  z "
             id="DejaVuSans-54" />
          <path
             d="M 41.109375 46.296875  Q 39.59375 47.171875 37.8125 47.578125  Q 36.03125 48 33.890625 48  Q 26.265625 48 22.1875 43.046875  Q 18.109375 38.09375 18.109375 28.8125  L 18.109375 0  L 9.078125 0  L 9.078125 54.6875  L 18.109375 54.6875  L 18.109375 46.1875  Q 20.953125 51.171875 25.484375 53.578125  Q 30.03125 56 36.53125 56  Q 37.453125 56 38.578125 55.875  Q 39.703125 55.765625 41.0625 55.515625  z "
             id="DejaVuSans-72" />
          <path
             d="M 44.28125 53.078125  L 44.28125 44.578125  Q 40.484375 46.53125 36.375 47.5  Q 32.28125 48.484375 27.875 48.484375  Q 21.1875 48.484375 17.84375 46.4375  Q 14.5 44.390625 14.5 40.28125  Q 14.5 37.15625 16.890625 35.375  Q 19.28125 33.59375 26.515625 31.984375  L 29.59375 31.296875  Q 39.15625 29.25 43.1875 25.515625  Q 47.21875 21.78125 47.21875 15.09375  Q 47.21875 7.46875 41.1875 3.015625  Q 35.15625 -1.421875 24.609375 -1.421875  Q 20.21875 -1.421875 15.453125 -0.5625  Q 10.6875 0.296875 5.421875 2  L 5.421875 11.28125  Q 10.40625 8.6875 15.234375 7.390625  Q 20.0625 6.109375 24.8125 6.109375  Q 31.15625 6.109375 34.5625 8.28125  Q 37.984375 10.453125 37.984375 14.40625  Q 37.984375 18.0625 35.515625 20.015625  Q 33.0625 21.96875 24.703125 23.78125  L 21.578125 24.515625  Q 13.234375 26.265625 9.515625 29.90625  Q 5.8125 33.546875 5.8125 39.890625  Q 5.8125 47.609375 11.28125 51.796875  Q 16.75 56 26.8125 56  Q 31.78125 56 36.171875 55.265625  Q 40.578125 54.546875 44.28125 53.078125  z "
             id="DejaVuSans-73" />
          <path
             d="M 9.421875 54.6875  L 18.40625 54.6875  L 18.40625 0  L 9.421875 0  z M 9.421875 75.984375  L 18.40625 75.984375  L 18.40625 64.59375  L 9.421875 64.59375  z "
             id="DejaVuSans-69" />
          <path
             d="M 45.40625 46.390625  L 45.40625 75.984375  L 54.390625 75.984375  L 54.390625 0  L 45.40625 0  L 45.40625 8.203125  Q 42.578125 3.328125 38.25 0.953125  Q 33.9375 -1.421875 27.875 -1.421875  Q 17.96875 -1.421875 11.734375 6.484375  Q 5.515625 14.40625 5.515625 27.296875  Q 5.515625 40.1875 11.734375 48.09375  Q 17.96875 56 27.875 56  Q 33.9375 56 38.25 53.625  Q 42.578125 51.265625 45.40625 46.390625  z M 14.796875 27.296875  Q 14.796875 17.390625 18.875 11.75  Q 22.953125 6.109375 30.078125 6.109375  Q 37.203125 6.109375 41.296875 11.75  Q 45.40625 17.390625 45.40625 27.296875  Q 45.40625 37.203125 41.296875 42.84375  Q 37.203125 48.484375 30.078125 48.484375  Q 22.953125 48.484375 18.875 42.84375  Q 14.796875 37.203125 14.796875 27.296875  z "
             id="DejaVuSans-64" />
          <path
             d="M 18.109375 8.203125  L 18.109375 -20.796875  L 9.078125 -20.796875  L 9.078125 54.6875  L 18.109375 54.6875  L 18.109375 46.390625  Q 20.953125 51.265625 25.265625 53.625  Q 29.59375 56 35.59375 56  Q 45.5625 56 51.78125 48.09375  Q 58.015625 40.1875 58.015625 27.296875  Q 58.015625 14.40625 51.78125 6.484375  Q 45.5625 -1.421875 35.59375 -1.421875  Q 29.59375 -1.421875 25.265625 0.953125  Q 20.953125 3.328125 18.109375 8.203125  z M 48.6875 27.296875  Q 48.6875 37.203125 44.609375 42.84375  Q 40.53125 48.484375 33.40625 48.484375  Q 26.265625 48.484375 22.1875 42.84375  Q 18.109375 37.203125 18.109375 27.296875  Q 18.109375 17.390625 22.1875 11.75  Q 26.265625 6.109375 33.40625 6.109375  Q 40.53125 6.109375 44.609375 11.75  Q 48.6875 17.390625 48.6875 27.296875  z "
             id="DejaVuSans-70" />
          <path
             d="M 48.78125 52.59375  L 48.78125 44.1875  Q 44.96875 46.296875 41.140625 47.34375  Q 37.3125 48.390625 33.40625 48.390625  Q 24.65625 48.390625 19.8125 42.84375  Q 14.984375 37.3125 14.984375 27.296875  Q 14.984375 17.28125 19.8125 11.734375  Q 24.65625 6.203125 33.40625 6.203125  Q 37.3125 6.203125 41.140625 7.25  Q 44.96875 8.296875 48.78125 10.40625  L 48.78125 2.09375  Q 45.015625 0.34375 40.984375 -0.53125  Q 36.96875 -1.421875 32.421875 -1.421875  Q 20.0625 -1.421875 12.78125 6.34375  Q 5.515625 14.109375 5.515625 27.296875  Q 5.515625 40.671875 12.859375 48.328125  Q 20.21875 56 33.015625 56  Q 37.15625 56 41.109375 55.140625  Q 45.0625 54.296875 48.78125 52.59375  z "
             id="DejaVuSans-63" />
          <path
             d="M 37.109375 75.984375  L 37.109375 68.5  L 28.515625 68.5  Q 23.6875 68.5 21.796875 66.546875  Q 19.921875 64.59375 19.921875 59.515625  L 19.921875 54.6875  L 34.71875 54.6875  L 34.71875 47.703125  L 19.921875 47.703125  L 19.921875 0  L 10.890625 0  L 10.890625 47.703125  L 2.296875 47.703125  L 2.296875 54.6875  L 10.890625 54.6875  L 10.890625 58.5  Q 10.890625 67.625 15.140625 71.796875  Q 19.390625 75.984375 28.609375 75.984375  z "
             id="DejaVuSans-66" />
          <path
             d="M 30.609375 48.390625  Q 23.390625 48.390625 19.1875 42.75  Q 14.984375 37.109375 14.984375 27.296875  Q 14.984375 17.484375 19.15625 11.84375  Q 23.34375 6.203125 30.609375 6.203125  Q 37.796875 6.203125 41.984375 11.859375  Q 46.1875 17.53125 46.1875 27.296875  Q 46.1875 37.015625 41.984375 42.703125  Q 37.796875 48.390625 30.609375 48.390625  z M 30.609375 56  Q 42.328125 56 49.015625 48.375  Q 55.71875 40.765625 55.71875 27.296875  Q 55.71875 13.875 49.015625 6.21875  Q 42.328125 -1.421875 30.609375 -1.421875  Q 18.84375 -1.421875 12.171875 6.21875  Q 5.515625 13.875 5.515625 27.296875  Q 5.515625 40.765625 12.171875 48.375  Q 18.84375 56 30.609375 56  z "
             id="DejaVuSans-6f" />
        </defs>
        <g
           transform="translate(95.901563 35.472)scale(0.12 -0.12)"
           id="g500">
          <use
             xlink:href="#DejaVuSans-54"
             id="use408" />
          <use
             x="60.865234"
             xlink:href="#DejaVuSans-72"
             id="use410" />
          <use
             x="101.978516"
             xlink:href="#DejaVuSans-61"
             id="use412" />
          <use
             x="163.257812"
             xlink:href="#DejaVuSans-6e"
             id="use414" />
          <use
             x="226.636719"
             xlink:href="#DejaVuSans-73"
             id="use416" />
          <use
             x="278.736328"
             xlink:href="#DejaVuSans-6d"
             id="use418" />
          <use
             x="376.148438"
             xlink:href="#DejaVuSans-69"
             id="use420" />
          <use
             x="403.931641"
             xlink:href="#DejaVuSans-74"
             id="use422" />
          <use
             x="443.140625"
             xlink:href="#DejaVuSans-74"
             id="use424" />
          <use
             x="482.349609"
             xlink:href="#DejaVuSans-65"
             id="use426" />
          <use
             x="543.873047"
             xlink:href="#DejaVuSans-64"
             id="use428" />
          <use
             x="607.349609"
             xlink:href="#DejaVuSans-20"
             id="use430" />
          <use
             x="639.136719"
             xlink:href="#DejaVuSans-73"
             id="use432" />
          <use
             x="691.236328"
             xlink:href="#DejaVuSans-70"
             id="use434" />
          <use
             x="754.712891"
             xlink:href="#DejaVuSans-65"
             id="use436" />
          <use
             x="816.236328"
             xlink:href="#DejaVuSans-63"
             id="use438" />
          <use
             x="871.216797"
             xlink:href="#DejaVuSans-74"
             id="use440" />
          <use
             x="910.425781"
             xlink:href="#DejaVuSans-72"
             id="use442" />
          <use
             x="951.539062"
             xlink:href="#DejaVuSans-61"
             id="use444" />
          <use
             x="1012.818359"
             xlink:href="#DejaVuSans-20"
             id="use446" />
          <use
             x="1044.605469"
             xlink:href="#DejaVuSans-66"
             id="use448" />
          <use
             x="1079.810547"
             xlink:href="#DejaVuSans-6f"
             id="use450" />
          <use
             x="1140.992188"
             xlink:href="#DejaVuSans-72"
             id="use452" />
          <use
             x="1182.105469"
             xlink:href="#DejaVuSans-20"
             id="use454" />
          <use
             x="1213.892578"
             xlink:href="#DejaVuSans-76"
             id="use456" />
          <use
             x="1273.072266"
             xlink:href="#DejaVuSans-61"
             id="use458" />
          <use
             x="1334.351562"
             xlink:href="#DejaVuSans-72"
             id="use460" />
          <use
             x="1375.464844"
             xlink:href="#DejaVuSans-69"
             id="use462" />
          <use
             x="1403.248047"
             xlink:href="#DejaVuSans-6f"
             id="use464" />
          <use
             x="1464.429688"
             xlink:href="#DejaVuSans-75"
             id="use466" />
          <use
             x="1527.808594"
             xlink:href="#DejaVuSans-73"
             id="use468" />
          <use
             x="1579.908203"
             xlink:href="#DejaVuSans-20"
             id="use470" />
          <use
             x="1611.695312"
             xlink:href="#DejaVuSans-64"
             id="use472" />
          <use
             x="1675.171875"
             xlink:href="#DejaVuSans-69"
             id="use474" />
          <use
             x="1702.955078"
             xlink:href="#DejaVuSans-6f"
             id="use476" />
          <use
             x="1764.136719"
             xlink:href="#DejaVuSans-64"
             id="use478" />
          <use
             x="1827.613281"
             xlink:href="#DejaVuSans-65"
             id="use480" />
          <use
             x="1889.136719"
             xlink:href="#DejaVuSans-20"
             id="use482" />
          <use
             x="1920.923828"
             xlink:href="#DejaVuSans-63"
             id="use484" />
          <use
             x="1975.904297"
             xlink:href="#DejaVuSans-75"
             id="use486" />
          <use
             x="2039.283203"
             xlink:href="#DejaVuSans-72"
             id="use488" />
          <use
             x="2080.380859"
             xlink:href="#DejaVuSans-72"
             id="use490" />
          <use
             x="2121.462891"
             xlink:href="#DejaVuSans-65"
             id="use492" />
          <use
             x="2182.986328"
             xlink:href="#DejaVuSans-6e"
             id="use494" />
          <use
             x="2246.365234"
             xlink:href="#DejaVuSans-74"
             id="use496" />
          <use
             x="2285.574219"
             xlink:href="#DejaVuSans-73"
             id="use498" />
        </g>
      </g>
      <g
         id="legend_1">
        <g
           id="patch_7">
          <path
             d="M 336.873125 122.862625  L 407.72 122.862625  Q 409.72 122.862625 409.72 120.862625  L 409.72 48.472  Q 409.72 46.472 407.72 46.472  L 336.873125 46.472  Q 334.873125 46.472 334.873125 48.472  L 334.873125 120.862625  Q 334.873125 122.862625 336.873125 122.862625  z "
             style="fill:#ffffff;opacity:0.8;stroke:#cccccc;stroke-linejoin:miter;"
             id="path503" />
        </g>
        <g
           id="line2d_20">
          <path
             d="M 338.873125 54.570438  L 358.873125 54.570438  "
             style="fill:none;stroke:#1f77b4;stroke-linecap:square;stroke-width:2;"
             id="path506" />
        </g>
        <g
           id="line2d_21" />
        <g
           id="text_18">
          <!-- 450 mA -->
          <defs
             id="defs511">
            <path
               d="M 34.1875 63.1875  L 20.796875 26.90625  L 47.609375 26.90625  z M 28.609375 72.90625  L 39.796875 72.90625  L 67.578125 0  L 57.328125 0  L 50.6875 18.703125  L 17.828125 18.703125  L 11.1875 0  L 0.78125 0  z "
               id="DejaVuSans-41" />
          </defs>
          <g
             transform="translate(366.873125 58.070438)scale(0.1 -0.1)"
             id="g525">
            <use
               xlink:href="#DejaVuSans-34"
               id="use513" />
            <use
               x="63.623047"
               xlink:href="#DejaVuSans-35"
               id="use515" />
            <use
               x="127.246094"
               xlink:href="#DejaVuSans-30"
               id="use517" />
            <use
               x="190.869141"
               xlink:href="#DejaVuSans-20"
               id="use519" />
            <use
               x="222.65625"
               xlink:href="#DejaVuSans-6d"
               id="use521" />
            <use
               x="320.068359"
               xlink:href="#DejaVuSans-41"
               id="use523" />
          </g>
        </g>
        <g
           id="line2d_22">
          <path
             d="M 338.873125 69.248563  L 358.873125 69.248563  "
             style="fill:none;stroke:#ff7f0e;stroke-linecap:square;stroke-width:2;"
             id="path528" />
        </g>
        <g
           id="line2d_23" />
        <g
           id="text_19">
          <!-- 475 mA -->
          <g
             transform="translate(366.873125 72.748563)scale(0.1 -0.1)"
             id="g544">
            <use
               xlink:href="#DejaVuSans-34"
               id="use532" />
            <use
               x="63.623047"
               xlink:href="#DejaVuSans-37"
               id="use534" />
            <use
               x="127.246094"
               xlink:href="#DejaVuSans-35"
               id="use536" />
            <use
               x="190.869141"
               xlink:href="#DejaVuSans-20"
               id="use538" />
            <use
               x="222.65625"
               xlink:href="#DejaVuSans-6d"
               id="use540" />
            <use
               x="320.068359"
               xlink:href="#DejaVuSans-41"
               id="use542" />
          </g>
        </g>
        <g
           id="line2d_24">
          <path
             d="M 338.873125 83.926688  L 358.873125 83.926688  "
             style="fill:none;stroke:#2ca02c;stroke-linecap:square;stroke-width:2;"
             id="path547" />
        </g>
        <g
           id="line2d_25" />
        <g
           id="text_20">
          <!-- 500 mA -->
          <g
             transform="translate(366.873125 87.426688)scale(0.1 -0.1)"
             id="g563">
            <use
               xlink:href="#DejaVuSans-35"
               id="use551" />
            <use
               x="63.623047"
               xlink:href="#DejaVuSans-30"
               id="use553" />
            <use
               x="127.246094"
               xlink:href="#DejaVuSans-30"
               id="use555" />
            <use
               x="190.869141"
               xlink:href="#DejaVuSans-20"
               id="use557" />
            <use
               x="222.65625"
               xlink:href="#DejaVuSans-6d"
               id="use559" />
            <use
               x="320.068359"
               xlink:href="#DejaVuSans-41"
               id="use561" />
          </g>
        </g>
        <g
           id="line2d_26">
          <path
             d="M 338.873125 98.604813  L 358.873125 98.604813  "
             style="fill:none;stroke:#d62728;stroke-linecap:square;stroke-width:2;"
             id="path566" />
        </g>
        <g
           id="line2d_27" />
        <g
           id="text_21">
          <!-- 525 mA -->
          <g
             transform="translate(366.873125 102.104813)scale(0.1 -0.1)"
             id="g582">
            <use
               xlink:href="#DejaVuSans-35"
               id="use570" />
            <use
               x="63.623047"
               xlink:href="#DejaVuSans-32"
               id="use572" />
            <use
               x="127.246094"
               xlink:href="#DejaVuSans-35"
               id="use574" />
            <use
               x="190.869141"
               xlink:href="#DejaVuSans-20"
               id="use576" />
            <use
               x="222.65625"
               xlink:href="#DejaVuSans-6d"
               id="use578" />
            <use
               x="320.068359"
               xlink:href="#DejaVuSans-41"
               id="use580" />
          </g>
        </g>
        <g
           id="line2d_28">
          <path
             d="M 338.873125 113.282938  L 358.873125 113.282938  "
             style="fill:none;stroke:#9467bd;stroke-linecap:square;stroke-width:2;"
             id="path585" />
        </g>
        <g
           id="line2d_29" />
        <g
           id="text_22">
          <!-- 560 mA -->
          <g
             transform="translate(366.873125 116.782938)scale(0.1 -0.1)"
             id="g601">
            <use
               xlink:href="#DejaVuSans-35"
               id="use589" />
            <use
               x="63.623047"
               xlink:href="#DejaVuSans-36"
               id="use591" />
            <use
               x="127.246094"
               xlink:href="#DejaVuSans-30"
               id="use593" />
            <use
               x="190.869141"
               xlink:href="#DejaVuSans-20"
               id="use595" />
            <use
               x="222.65625"
               xlink:href="#DejaVuSans-6d"
               id="use597" />
            <use
               x="320.068359"
               xlink:href="#DejaVuSans-41"
               id="use599" />
          </g>
        </g>
      </g>
    </g>
  </g>
  <defs
     id="defs610">
    <clipPath
       id="p5a5d463b4d">
      <rect
         height="266.112"
         width="357.12"
         x="57.6"
         y="41.472"
         id="rect607" />
    </clipPath>
  </defs>
  <text
     xml:space="preserve"
     style="font-style:normal;font-weight:normal;font-size:20px;line-height:1.25;font-family:sans-serif;letter-spacing:0px;word-spacing:0px;fill:#000000;fill-opacity:1;stroke:none;stroke-width:0.75;stroke-linecap:butt;stroke-linejoin:round"
     x="330.38138"
     y="135.9534"
     id="text1425"><tspan
       sodipodi:role="line"
       id="tspan1423"
       style="font-size:12px;stroke-width:0.75;stroke-linecap:butt;stroke-linejoin:round"
       x="330.38138"
       y="135.9534">Diode current</tspan></text>
</svg>
